M48
;GenerationSoftware,Autodesk,EAGLE,9.7.0*%
;CreationDate,2025-07-30T21:18:20Z*%
FMAT,2
ICI,OFF
METRIC,TZ,000.000
T7C0.350
T6C0.800
T5C1.000
T4C1.778
T3C3.000
T2C5.000
T1C5.100
%
G90
M71
T1
X5000Y70000
X90000Y5000
T2
X5000Y5000
X86896Y30400
T3
X4980Y5039
T4
X3420Y48896
X3420Y64136
X44060Y64136
X44060Y48896
T5
X26395Y21589
X26395Y13969
X26395Y16509
X26395Y19049
X26395Y26669
X26395Y11429
X26395Y24129
X11570Y11870
X14110Y11870
X16650Y11870
X19190Y11870
X53090Y46550
X55630Y46550
X66076Y46650
X68616Y46650
X60996Y46650
X63536Y46650
X50976Y54030
X50976Y56570
X77646Y66730
X50976Y59110
X50976Y61650
X50976Y64190
X50976Y66730
X77650Y55311
X77650Y57861
X77650Y60411
X77650Y62961
X26395Y29209
T6
X41520Y48896
X41520Y64136
X36440Y64136
X33900Y64136
X31360Y64136
X28820Y64136
X26280Y64136
X23740Y64136
X21200Y64136
X18660Y64136
X16120Y64136
X13580Y64136
X11040Y64136
X8500Y64136
X5960Y64136
X38980Y64136
X5960Y48896
X8500Y48896
X11040Y48896
X13580Y48896
X16120Y48896
X18660Y48896
X21200Y48896
X23740Y48896
X26280Y48896
X28820Y48896
X31360Y48896
X33900Y48896
X36440Y48896
X38980Y48896
T7
X30400Y41900
X11100Y3200
X75500Y46700
X63400Y70800
X55900Y55000
X22600Y61850
X2400Y60800
X3000Y52200
X21400Y52400
X67300Y64000
X74500Y59900
X18200Y3200
X25600Y3200
X42000Y3200
X51800Y3200
X59200Y28600
X58800Y37600
X49300Y29100
X88100Y71300
X77200Y71300
X44000Y71300
X23700Y71300
X13400Y71300
X91500Y37600
X33700Y3200
X91500Y21700
X91500Y11900
X83700Y3200
X76900Y3200
X68400Y3200
X60500Y3200
X13100Y53300
X15700Y57300
X33800Y29900
X14000Y43100
X80800Y37600
X72300Y29900
X71200Y37600
M30