G04 EAGLE Gerber RS-274X export*
G75*
%MOMM*%
%FSLAX34Y34*%
%LPD*%
%INBottom Copper*%
%IPPOS*%
%AMOC8*
5,1,8,0,0,1.08239X$1,22.5*%
G01*
G04 Define Apertures*
%ADD10C,1.500000*%
%ADD11R,3.300000X1.000000*%
%ADD12R,3.800000X1.500000*%
%ADD13C,1.200000*%
%ADD14C,1.000000*%
%ADD15C,0.600000*%
G36*
X17256Y499395D02*
X15319Y498937D01*
X13358Y499271D01*
X11681Y500343D01*
X10556Y501985D01*
X10160Y503935D01*
X10160Y626391D01*
X10468Y628119D01*
X11514Y629812D01*
X13137Y630964D01*
X15080Y631391D01*
X17037Y631026D01*
X18696Y629927D01*
X23409Y625213D01*
X30411Y622313D01*
X37989Y622313D01*
X44991Y625213D01*
X45959Y626181D01*
X47508Y627234D01*
X49454Y627645D01*
X51408Y627265D01*
X56386Y625203D01*
X62814Y625203D01*
X68754Y627663D01*
X68764Y627674D01*
X70277Y628711D01*
X72220Y629138D01*
X74177Y628773D01*
X75836Y627674D01*
X75846Y627663D01*
X81786Y625203D01*
X88214Y625203D01*
X94154Y627663D01*
X94164Y627674D01*
X95677Y628711D01*
X97620Y629138D01*
X99577Y628773D01*
X101236Y627674D01*
X101246Y627663D01*
X107186Y625203D01*
X113614Y625203D01*
X119554Y627663D01*
X119564Y627674D01*
X121077Y628711D01*
X123020Y629138D01*
X124977Y628773D01*
X126636Y627674D01*
X126646Y627663D01*
X132586Y625203D01*
X133240Y625203D01*
X135042Y624867D01*
X136719Y623794D01*
X137844Y622153D01*
X138240Y620203D01*
X138240Y616762D01*
X180240Y616762D01*
X180240Y620203D01*
X180576Y622005D01*
X181649Y623682D01*
X183290Y624807D01*
X185240Y625203D01*
X189814Y625203D01*
X195754Y627663D01*
X195764Y627674D01*
X197277Y628711D01*
X199220Y629138D01*
X201177Y628773D01*
X202836Y627674D01*
X202846Y627663D01*
X208786Y625203D01*
X215214Y625203D01*
X221154Y627663D01*
X221164Y627674D01*
X222677Y628711D01*
X224620Y629138D01*
X226577Y628773D01*
X228236Y627674D01*
X228246Y627663D01*
X234186Y625203D01*
X240614Y625203D01*
X246554Y627663D01*
X246564Y627674D01*
X248077Y628711D01*
X250020Y629138D01*
X251977Y628773D01*
X253636Y627674D01*
X253646Y627663D01*
X259586Y625203D01*
X266014Y625203D01*
X271954Y627663D01*
X271964Y627674D01*
X273477Y628711D01*
X275420Y629138D01*
X277377Y628773D01*
X279036Y627674D01*
X279046Y627663D01*
X284986Y625203D01*
X291414Y625203D01*
X297354Y627663D01*
X297364Y627674D01*
X298877Y628711D01*
X300820Y629138D01*
X302777Y628773D01*
X304436Y627674D01*
X304446Y627663D01*
X310386Y625203D01*
X316814Y625203D01*
X322754Y627663D01*
X327341Y632250D01*
X328275Y633685D01*
X329907Y634824D01*
X331854Y635235D01*
X333808Y634855D01*
X337409Y633363D01*
X338238Y633363D01*
X338238Y661363D01*
X337409Y661363D01*
X333808Y659871D01*
X332014Y659492D01*
X330055Y659841D01*
X328387Y660927D01*
X327348Y662469D01*
X322754Y667063D01*
X316814Y669523D01*
X310386Y669523D01*
X304446Y667063D01*
X304436Y667052D01*
X302923Y666015D01*
X300980Y665588D01*
X299023Y665953D01*
X297364Y667052D01*
X297354Y667063D01*
X291414Y669523D01*
X284986Y669523D01*
X279046Y667063D01*
X279036Y667052D01*
X277523Y666015D01*
X275580Y665588D01*
X273623Y665953D01*
X271964Y667052D01*
X271954Y667063D01*
X266014Y669523D01*
X259586Y669523D01*
X253646Y667063D01*
X253636Y667052D01*
X252123Y666015D01*
X250180Y665588D01*
X248223Y665953D01*
X246564Y667052D01*
X246554Y667063D01*
X240614Y669523D01*
X234186Y669523D01*
X228246Y667063D01*
X228236Y667052D01*
X226723Y666015D01*
X224780Y665588D01*
X222823Y665953D01*
X221164Y667052D01*
X221154Y667063D01*
X215214Y669523D01*
X208786Y669523D01*
X202846Y667063D01*
X202836Y667052D01*
X201323Y666015D01*
X199380Y665588D01*
X197423Y665953D01*
X195764Y667052D01*
X195754Y667063D01*
X189814Y669523D01*
X183386Y669523D01*
X177446Y667063D01*
X177436Y667052D01*
X175923Y666015D01*
X173980Y665588D01*
X172023Y665953D01*
X170364Y667052D01*
X170354Y667063D01*
X164414Y669523D01*
X157986Y669523D01*
X152046Y667063D01*
X152036Y667052D01*
X150523Y666015D01*
X148580Y665588D01*
X146623Y665953D01*
X144964Y667052D01*
X144954Y667063D01*
X139014Y669523D01*
X132586Y669523D01*
X126646Y667063D01*
X126636Y667052D01*
X125123Y666015D01*
X123180Y665588D01*
X121223Y665953D01*
X119564Y667052D01*
X119554Y667063D01*
X113614Y669523D01*
X107186Y669523D01*
X101246Y667063D01*
X101236Y667052D01*
X99723Y666015D01*
X97780Y665588D01*
X95823Y665953D01*
X94164Y667052D01*
X94154Y667063D01*
X88214Y669523D01*
X82025Y669523D01*
X80297Y669831D01*
X78604Y670877D01*
X77453Y672500D01*
X77026Y674443D01*
X77390Y676400D01*
X78489Y678059D01*
X78535Y678104D01*
X83230Y686236D01*
X85660Y695305D01*
X85660Y704695D01*
X83230Y713764D01*
X78535Y721896D01*
X74126Y726304D01*
X73122Y727744D01*
X72664Y729681D01*
X72998Y731642D01*
X74070Y733319D01*
X75712Y734444D01*
X77662Y734840D01*
X895000Y734840D01*
X895782Y734778D01*
X906548Y733073D01*
X908036Y732590D01*
X917748Y727641D01*
X919014Y726722D01*
X926722Y719014D01*
X927641Y717748D01*
X932590Y708036D01*
X933073Y706548D01*
X934778Y695782D01*
X934840Y695000D01*
X934840Y668160D01*
X934504Y666358D01*
X933431Y664681D01*
X931790Y663556D01*
X929840Y663160D01*
X816979Y663160D01*
X813245Y661613D01*
X810387Y658755D01*
X808840Y655021D01*
X808840Y640928D01*
X808546Y639238D01*
X807514Y637537D01*
X805900Y636372D01*
X803960Y635930D01*
X802000Y636279D01*
X800333Y637365D01*
X799221Y639015D01*
X798971Y639617D01*
X793647Y644941D01*
X792610Y646453D01*
X792183Y648397D01*
X792548Y650353D01*
X793647Y652012D01*
X798931Y657296D01*
X801620Y663787D01*
X801620Y670813D01*
X798931Y677304D01*
X793964Y682271D01*
X787473Y684960D01*
X765447Y684960D01*
X758956Y682271D01*
X753989Y677304D01*
X751300Y670813D01*
X751300Y663787D01*
X753989Y657296D01*
X755476Y655809D01*
X756480Y654369D01*
X756938Y652433D01*
X756605Y650471D01*
X755532Y648794D01*
X753891Y647669D01*
X751941Y647273D01*
X731121Y647273D01*
X731120Y647273D01*
X727996Y647273D01*
X723101Y647273D01*
X721999Y646817D01*
X721999Y646817D01*
X716610Y644585D01*
X714400Y642375D01*
X710939Y638914D01*
X710939Y638914D01*
X638896Y566871D01*
X637383Y565834D01*
X635440Y565407D01*
X633483Y565772D01*
X631824Y566871D01*
X567224Y631471D01*
X560733Y634160D01*
X539920Y634160D01*
X538118Y634496D01*
X536441Y635569D01*
X535316Y637210D01*
X534920Y639160D01*
X534920Y645413D01*
X531907Y652687D01*
X531527Y654560D01*
X531907Y656513D01*
X534920Y663787D01*
X534920Y670813D01*
X532231Y677304D01*
X527264Y682271D01*
X520773Y684960D01*
X498747Y684960D01*
X493631Y682841D01*
X491717Y682460D01*
X480285Y682460D01*
X474713Y680152D01*
X454236Y659675D01*
X452687Y658623D01*
X450740Y658211D01*
X448787Y658591D01*
X444389Y660413D01*
X436811Y660413D01*
X435422Y659838D01*
X433628Y659458D01*
X431669Y659808D01*
X430001Y660893D01*
X428921Y662496D01*
X424354Y667063D01*
X418414Y669523D01*
X411986Y669523D01*
X406046Y667063D01*
X406036Y667052D01*
X404523Y666015D01*
X402580Y665588D01*
X400623Y665953D01*
X398964Y667052D01*
X398954Y667063D01*
X393014Y669523D01*
X386586Y669523D01*
X380646Y667063D01*
X380636Y667052D01*
X379123Y666015D01*
X377180Y665588D01*
X375223Y665953D01*
X373564Y667052D01*
X373554Y667063D01*
X367614Y669523D01*
X361186Y669523D01*
X355246Y667063D01*
X350659Y662476D01*
X349725Y661041D01*
X348093Y659902D01*
X346146Y659491D01*
X344192Y659871D01*
X340591Y661363D01*
X339762Y661363D01*
X339762Y633363D01*
X340591Y633363D01*
X344192Y634855D01*
X345986Y635234D01*
X347945Y634885D01*
X349613Y633799D01*
X350652Y632257D01*
X355246Y627663D01*
X361186Y625203D01*
X365529Y625203D01*
X367257Y624895D01*
X368951Y623849D01*
X370102Y622226D01*
X370529Y620283D01*
X370164Y618326D01*
X369065Y616667D01*
X322522Y570124D01*
X320937Y569056D01*
X318986Y568660D01*
X179660Y568660D01*
X177858Y568996D01*
X176181Y570069D01*
X175056Y571710D01*
X174660Y573660D01*
X174660Y576513D01*
X171971Y583004D01*
X166504Y588471D01*
X160013Y591160D01*
X112240Y591160D01*
X110438Y591496D01*
X108761Y592569D01*
X107636Y594210D01*
X107240Y596160D01*
X107240Y598898D01*
X106936Y599633D01*
X106373Y600196D01*
X105638Y600500D01*
X89502Y600500D01*
X89502Y592738D01*
X70240Y592738D01*
X70240Y592010D01*
X69889Y590170D01*
X68804Y588502D01*
X67153Y587390D01*
X66485Y587113D01*
X63627Y584255D01*
X62080Y580521D01*
X62080Y566479D01*
X62521Y565413D01*
X62902Y563540D01*
X62521Y561587D01*
X62080Y560521D01*
X62080Y546479D01*
X62521Y545413D01*
X62902Y543540D01*
X62521Y541587D01*
X62080Y540521D01*
X62080Y526479D01*
X63627Y522745D01*
X66485Y519887D01*
X70219Y518340D01*
X125783Y518340D01*
X127696Y517959D01*
X127984Y517840D01*
X133240Y517840D01*
X135042Y517504D01*
X136719Y516431D01*
X137844Y514790D01*
X138240Y512840D01*
X138240Y511762D01*
X158478Y511762D01*
X158478Y520500D01*
X149714Y520500D01*
X147949Y520822D01*
X146264Y521881D01*
X145126Y523513D01*
X144715Y525460D01*
X145095Y527413D01*
X146160Y529985D01*
X146160Y533340D01*
X146496Y535142D01*
X147569Y536819D01*
X149210Y537944D01*
X151160Y538340D01*
X245829Y538340D01*
X247557Y538032D01*
X249251Y536986D01*
X250402Y535363D01*
X250829Y533420D01*
X250464Y531463D01*
X249365Y529804D01*
X224272Y504712D01*
X222724Y503659D01*
X220777Y503248D01*
X218824Y503628D01*
X215214Y505123D01*
X208786Y505123D01*
X202846Y502663D01*
X202836Y502652D01*
X201323Y501615D01*
X199380Y501188D01*
X197423Y501553D01*
X195764Y502652D01*
X195754Y502663D01*
X189814Y505123D01*
X185240Y505123D01*
X183438Y505459D01*
X181761Y506532D01*
X180636Y508173D01*
X180240Y510123D01*
X180240Y510238D01*
X138240Y510238D01*
X138240Y510123D01*
X137904Y508321D01*
X136831Y506644D01*
X135190Y505519D01*
X133240Y505123D01*
X132586Y505123D01*
X126646Y502663D01*
X126636Y502652D01*
X125123Y501615D01*
X123180Y501188D01*
X121223Y501553D01*
X119564Y502652D01*
X119554Y502663D01*
X113614Y505123D01*
X107186Y505123D01*
X101246Y502663D01*
X101236Y502652D01*
X99723Y501615D01*
X97780Y501188D01*
X95823Y501553D01*
X94164Y502652D01*
X94154Y502663D01*
X88214Y505123D01*
X81786Y505123D01*
X75846Y502663D01*
X75836Y502652D01*
X74323Y501615D01*
X72380Y501188D01*
X70423Y501553D01*
X68764Y502652D01*
X68754Y502663D01*
X62814Y505123D01*
X56386Y505123D01*
X51408Y503061D01*
X49574Y502681D01*
X47618Y503046D01*
X45959Y504145D01*
X44991Y505113D01*
X37989Y508013D01*
X30411Y508013D01*
X23409Y505113D01*
X18696Y500399D01*
X17256Y499395D01*
G37*
%LPC*%
G36*
X139842Y606500D02*
X158478Y606500D01*
X158478Y615238D01*
X138240Y615238D01*
X138240Y608102D01*
X138545Y607367D01*
X139107Y606805D01*
X139842Y606500D01*
G37*
G36*
X160002Y606500D02*
X178638Y606500D01*
X179373Y606805D01*
X179936Y607367D01*
X180240Y608102D01*
X180240Y615238D01*
X160002Y615238D01*
X160002Y606500D01*
G37*
G36*
X70240Y594262D02*
X87978Y594262D01*
X87978Y600500D01*
X71842Y600500D01*
X71107Y600196D01*
X70545Y599633D01*
X70240Y598898D01*
X70240Y594262D01*
G37*
G36*
X160002Y511762D02*
X180240Y511762D01*
X180240Y518898D01*
X179936Y519633D01*
X179373Y520196D01*
X178638Y520500D01*
X160002Y520500D01*
X160002Y511762D01*
G37*
%LPD*%
G36*
X880975Y10556D02*
X879025Y10160D01*
X69975Y10160D01*
X68914Y10274D01*
X67092Y11075D01*
X65727Y12523D01*
X65035Y14389D01*
X65126Y16377D01*
X65984Y18172D01*
X67475Y19490D01*
X71589Y21865D01*
X78135Y28411D01*
X82764Y36429D01*
X85160Y45371D01*
X85160Y54629D01*
X82764Y63571D01*
X78135Y71589D01*
X71589Y78135D01*
X63571Y82764D01*
X54629Y85160D01*
X45371Y85160D01*
X36429Y82764D01*
X28411Y78135D01*
X21865Y71589D01*
X19490Y67475D01*
X18861Y66613D01*
X17256Y65436D01*
X15319Y64978D01*
X13358Y65312D01*
X11681Y66384D01*
X10556Y68025D01*
X10160Y69975D01*
X10160Y334840D01*
X10496Y336642D01*
X11569Y338319D01*
X13210Y339444D01*
X15160Y339840D01*
X102021Y339840D01*
X105755Y341387D01*
X108613Y344245D01*
X110160Y347979D01*
X110160Y452021D01*
X109386Y453890D01*
X109008Y455644D01*
X109342Y457605D01*
X110414Y459282D01*
X112055Y460407D01*
X113238Y460647D01*
X119554Y463263D01*
X119564Y463274D01*
X121077Y464311D01*
X123020Y464738D01*
X124977Y464373D01*
X126636Y463274D01*
X126646Y463263D01*
X132586Y460803D01*
X139014Y460803D01*
X144954Y463263D01*
X144964Y463274D01*
X146477Y464311D01*
X148420Y464738D01*
X150377Y464373D01*
X152036Y463274D01*
X152046Y463263D01*
X157986Y460803D01*
X164414Y460803D01*
X170354Y463263D01*
X170364Y463274D01*
X171877Y464311D01*
X173820Y464738D01*
X175777Y464373D01*
X177436Y463274D01*
X177446Y463263D01*
X183386Y460803D01*
X189814Y460803D01*
X195754Y463263D01*
X195764Y463274D01*
X197277Y464311D01*
X199220Y464738D01*
X201177Y464373D01*
X202836Y463274D01*
X202846Y463263D01*
X208786Y460803D01*
X215214Y460803D01*
X221154Y463263D01*
X221164Y463274D01*
X222677Y464311D01*
X224620Y464738D01*
X226577Y464373D01*
X228236Y463274D01*
X228246Y463263D01*
X234186Y460803D01*
X240614Y460803D01*
X246554Y463263D01*
X246564Y463274D01*
X248077Y464311D01*
X250020Y464738D01*
X251977Y464373D01*
X253636Y463274D01*
X253646Y463263D01*
X259586Y460803D01*
X266014Y460803D01*
X271954Y463263D01*
X271964Y463274D01*
X273477Y464311D01*
X275420Y464738D01*
X277377Y464373D01*
X279036Y463274D01*
X279046Y463263D01*
X284986Y460803D01*
X291414Y460803D01*
X297354Y463263D01*
X297364Y463274D01*
X298877Y464311D01*
X300820Y464738D01*
X302777Y464373D01*
X304436Y463274D01*
X304446Y463263D01*
X310386Y460803D01*
X316814Y460803D01*
X322754Y463263D01*
X322764Y463274D01*
X324277Y464311D01*
X326220Y464738D01*
X328177Y464373D01*
X329836Y463274D01*
X329846Y463263D01*
X335786Y460803D01*
X342214Y460803D01*
X348154Y463263D01*
X348164Y463274D01*
X349677Y464311D01*
X351620Y464738D01*
X353577Y464373D01*
X355236Y463274D01*
X355246Y463263D01*
X361186Y460803D01*
X367614Y460803D01*
X373554Y463263D01*
X378141Y467850D01*
X379075Y469285D01*
X380707Y470424D01*
X382654Y470835D01*
X384608Y470455D01*
X388209Y468963D01*
X389038Y468963D01*
X389038Y489725D01*
X390562Y489725D01*
X390562Y468963D01*
X391391Y468963D01*
X394992Y470455D01*
X396786Y470834D01*
X398745Y470485D01*
X400413Y469399D01*
X401452Y467857D01*
X406046Y463263D01*
X411986Y460803D01*
X418414Y460803D01*
X424354Y463263D01*
X428918Y467827D01*
X429889Y469319D01*
X431521Y470457D01*
X433468Y470869D01*
X435422Y470488D01*
X436811Y469913D01*
X444389Y469913D01*
X451391Y472813D01*
X456750Y478172D01*
X459650Y485174D01*
X459650Y493053D01*
X459407Y494181D01*
X459741Y496142D01*
X460813Y497819D01*
X462454Y498944D01*
X464404Y499340D01*
X515614Y499340D01*
X517490Y498975D01*
X519149Y497876D01*
X521439Y495586D01*
X522476Y494073D01*
X522903Y492130D01*
X522538Y490173D01*
X521439Y488514D01*
X515929Y483004D01*
X513240Y476513D01*
X513240Y418286D01*
X512875Y416410D01*
X511776Y414751D01*
X306637Y209612D01*
X305052Y208544D01*
X303102Y208148D01*
X285951Y208148D01*
X284149Y208484D01*
X282473Y209556D01*
X281347Y211197D01*
X280951Y213148D01*
X280951Y215126D01*
X246951Y215126D01*
X246951Y213998D01*
X248026Y211403D01*
X248406Y209569D01*
X248042Y207613D01*
X246943Y205954D01*
X241480Y200491D01*
X238791Y194000D01*
X238791Y186975D01*
X241480Y180484D01*
X246943Y175022D01*
X247995Y173473D01*
X248407Y171526D01*
X248026Y169573D01*
X246951Y166977D01*
X246951Y165850D01*
X280951Y165850D01*
X280951Y167828D01*
X281288Y169630D01*
X282360Y171306D01*
X284001Y172432D01*
X285951Y172828D01*
X316000Y172828D01*
X322491Y175516D01*
X545871Y398896D01*
X548560Y405387D01*
X548560Y435340D01*
X548896Y437142D01*
X549969Y438819D01*
X551610Y439944D01*
X553560Y440340D01*
X559813Y440340D01*
X566304Y443029D01*
X571271Y447996D01*
X573960Y454487D01*
X573960Y472114D01*
X574326Y473990D01*
X575424Y475649D01*
X593651Y493876D01*
X595236Y494944D01*
X597186Y495340D01*
X612700Y495340D01*
X614502Y495004D01*
X616179Y493931D01*
X617304Y492290D01*
X617700Y490340D01*
X617700Y488500D01*
X617364Y486698D01*
X616291Y485021D01*
X614650Y483896D01*
X612700Y483500D01*
X610722Y483500D01*
X610722Y449500D01*
X611850Y449500D01*
X614445Y450575D01*
X616279Y450955D01*
X618235Y450590D01*
X619894Y449491D01*
X625356Y444029D01*
X631847Y441340D01*
X638873Y441340D01*
X646147Y444353D01*
X648020Y444733D01*
X649973Y444353D01*
X657247Y441340D01*
X664273Y441340D01*
X671547Y444353D01*
X673420Y444733D01*
X675373Y444353D01*
X682647Y441340D01*
X689673Y441340D01*
X696164Y444029D01*
X701131Y448996D01*
X703820Y455487D01*
X703820Y477513D01*
X701131Y484004D01*
X696164Y488971D01*
X689673Y491660D01*
X682647Y491660D01*
X675373Y488647D01*
X673500Y488267D01*
X671547Y488647D01*
X664273Y491660D01*
X658020Y491660D01*
X656218Y491996D01*
X654541Y493069D01*
X653416Y494710D01*
X653020Y496660D01*
X653020Y528974D01*
X653386Y530850D01*
X654484Y532509D01*
X732464Y610489D01*
X734049Y611557D01*
X735999Y611953D01*
X754500Y611953D01*
X756302Y611617D01*
X757979Y610545D01*
X759104Y608903D01*
X759500Y606953D01*
X759500Y604875D01*
X793500Y604875D01*
X793500Y606003D01*
X792396Y608669D01*
X792016Y610502D01*
X792381Y612459D01*
X793480Y614118D01*
X798971Y619609D01*
X799221Y620211D01*
X800140Y621660D01*
X801744Y622837D01*
X803681Y623295D01*
X805642Y622961D01*
X807319Y621889D01*
X808444Y620248D01*
X808840Y618298D01*
X808840Y589928D01*
X808546Y588238D01*
X807514Y586537D01*
X805900Y585372D01*
X803960Y584930D01*
X802000Y585279D01*
X800333Y586365D01*
X799221Y588015D01*
X798971Y588617D01*
X793480Y594108D01*
X792427Y595657D01*
X792015Y597604D01*
X792396Y599557D01*
X793500Y602223D01*
X793500Y603351D01*
X759500Y603351D01*
X759500Y602223D01*
X760604Y599557D01*
X760984Y597724D01*
X760619Y595767D01*
X759520Y594108D01*
X754029Y588617D01*
X751340Y582126D01*
X751340Y575100D01*
X754374Y567776D01*
X754754Y565903D01*
X754374Y563950D01*
X751340Y556626D01*
X751340Y549600D01*
X754029Y543109D01*
X758996Y538142D01*
X765487Y535453D01*
X787513Y535453D01*
X794004Y538142D01*
X798971Y543109D01*
X799221Y543711D01*
X800140Y545160D01*
X801744Y546337D01*
X803681Y546795D01*
X805642Y546461D01*
X807319Y545389D01*
X808444Y543748D01*
X808840Y541798D01*
X808840Y431979D01*
X810387Y428245D01*
X813245Y425387D01*
X816979Y423840D01*
X929840Y423840D01*
X931642Y423504D01*
X933319Y422431D01*
X934444Y420790D01*
X934840Y418840D01*
X934840Y77662D01*
X934532Y75934D01*
X933486Y74241D01*
X931863Y73090D01*
X929920Y72663D01*
X927963Y73027D01*
X926304Y74126D01*
X921896Y78535D01*
X913764Y83230D01*
X904695Y85660D01*
X895305Y85660D01*
X886236Y83230D01*
X878104Y78535D01*
X871465Y71896D01*
X866770Y63764D01*
X864340Y54695D01*
X864340Y45305D01*
X866770Y36236D01*
X871465Y28104D01*
X878104Y21465D01*
X881525Y19490D01*
X882387Y18861D01*
X883564Y17256D01*
X884022Y15319D01*
X883688Y13358D01*
X882616Y11681D01*
X880975Y10556D01*
G37*
%LPC*%
G36*
X600460Y467262D02*
X609198Y467262D01*
X609198Y483500D01*
X608070Y483500D01*
X604579Y482054D01*
X601906Y479381D01*
X600460Y475890D01*
X600460Y467262D01*
G37*
G36*
X608070Y449500D02*
X609198Y449500D01*
X609198Y465738D01*
X600460Y465738D01*
X600460Y457110D01*
X601906Y453619D01*
X604579Y450946D01*
X608070Y449500D01*
G37*
G36*
X864335Y268840D02*
X873593Y268840D01*
X882535Y271236D01*
X890553Y275865D01*
X897099Y282411D01*
X901728Y290429D01*
X904124Y299371D01*
X904124Y308629D01*
X901728Y317571D01*
X897099Y325589D01*
X890553Y332135D01*
X882535Y336764D01*
X873593Y339160D01*
X864335Y339160D01*
X855393Y336764D01*
X847375Y332135D01*
X840829Y325589D01*
X836200Y317571D01*
X833804Y308629D01*
X833804Y299371D01*
X836200Y290429D01*
X840829Y282411D01*
X847375Y275865D01*
X855393Y271236D01*
X864335Y268840D01*
G37*
G36*
X112187Y93540D02*
X119213Y93540D01*
X126487Y96553D01*
X128360Y96933D01*
X130313Y96553D01*
X137587Y93540D01*
X144613Y93540D01*
X151887Y96553D01*
X153760Y96933D01*
X155713Y96553D01*
X162987Y93540D01*
X170013Y93540D01*
X176504Y96229D01*
X181966Y101691D01*
X183515Y102744D01*
X185462Y103155D01*
X187415Y102775D01*
X190010Y101700D01*
X191138Y101700D01*
X191138Y135700D01*
X189160Y135700D01*
X187358Y136036D01*
X185681Y137109D01*
X184556Y138750D01*
X184160Y140700D01*
X184160Y268114D01*
X184526Y269990D01*
X185624Y271649D01*
X186938Y272963D01*
X188524Y274032D01*
X190474Y274428D01*
X241951Y274428D01*
X243754Y274091D01*
X245430Y273019D01*
X246555Y271378D01*
X246951Y269428D01*
X246951Y267450D01*
X280951Y267450D01*
X280951Y268577D01*
X279876Y271173D01*
X279496Y273006D01*
X279861Y274963D01*
X280960Y276622D01*
X286423Y282084D01*
X289111Y288575D01*
X289111Y295600D01*
X286423Y302091D01*
X281455Y307059D01*
X274964Y309748D01*
X177575Y309748D01*
X171084Y307059D01*
X151529Y287504D01*
X148840Y281013D01*
X148840Y153486D01*
X148475Y151610D01*
X147376Y149951D01*
X142749Y145324D01*
X141164Y144256D01*
X139214Y143860D01*
X137587Y143860D01*
X130313Y140847D01*
X128440Y140467D01*
X126487Y140847D01*
X119213Y143860D01*
X112187Y143860D01*
X105696Y141171D01*
X100729Y136204D01*
X98040Y129713D01*
X98040Y107687D01*
X100729Y101196D01*
X105696Y96229D01*
X112187Y93540D01*
G37*
G36*
X246951Y216650D02*
X280951Y216650D01*
X280951Y217777D01*
X279876Y220373D01*
X279496Y222206D01*
X279861Y224163D01*
X280960Y225822D01*
X286423Y231284D01*
X289111Y237775D01*
X289111Y244800D01*
X286423Y251291D01*
X280960Y256754D01*
X279908Y258303D01*
X279496Y260249D01*
X279876Y262203D01*
X280951Y264798D01*
X280951Y265926D01*
X246951Y265926D01*
X246951Y264798D01*
X248026Y262203D01*
X248406Y260369D01*
X248042Y258413D01*
X246943Y256754D01*
X241480Y251291D01*
X238791Y244800D01*
X238791Y237775D01*
X241480Y231284D01*
X246943Y225822D01*
X247995Y224273D01*
X248407Y222326D01*
X248026Y220373D01*
X246951Y217777D01*
X246951Y216650D01*
G37*
G36*
X252939Y96628D02*
X274964Y96628D01*
X281455Y99316D01*
X286423Y104284D01*
X289111Y110775D01*
X289111Y117800D01*
X286099Y125074D01*
X285718Y126948D01*
X286099Y128901D01*
X289111Y136175D01*
X289111Y143200D01*
X286423Y149691D01*
X280960Y155154D01*
X279908Y156703D01*
X279496Y158649D01*
X279876Y160603D01*
X280951Y163198D01*
X280951Y164326D01*
X246951Y164326D01*
X246951Y163198D01*
X248026Y160603D01*
X248406Y158769D01*
X248042Y156813D01*
X246943Y155154D01*
X241480Y149691D01*
X238791Y143200D01*
X238791Y136175D01*
X241804Y128901D01*
X242185Y127028D01*
X241804Y125074D01*
X238791Y117800D01*
X238791Y110775D01*
X241480Y104284D01*
X246448Y99316D01*
X252939Y96628D01*
G37*
G36*
X192662Y119462D02*
X201400Y119462D01*
X201400Y128090D01*
X199954Y131581D01*
X197281Y134254D01*
X193790Y135700D01*
X192662Y135700D01*
X192662Y119462D01*
G37*
G36*
X192662Y101700D02*
X193790Y101700D01*
X197281Y103146D01*
X199954Y105819D01*
X201400Y109310D01*
X201400Y117938D01*
X192662Y117938D01*
X192662Y101700D01*
G37*
%LPD*%
G36*
X560423Y511074D02*
X558480Y510647D01*
X556523Y511012D01*
X554864Y512111D01*
X535004Y531971D01*
X529847Y534108D01*
X528281Y535135D01*
X527156Y536777D01*
X526760Y538727D01*
X526760Y539538D01*
X492737Y539538D01*
X492424Y537858D01*
X491351Y536181D01*
X489710Y535056D01*
X487760Y534660D01*
X442171Y534660D01*
X440443Y534968D01*
X438750Y536014D01*
X437598Y537637D01*
X437171Y539580D01*
X437536Y541537D01*
X438635Y543196D01*
X485093Y589654D01*
X486569Y590674D01*
X488509Y591117D01*
X490468Y590768D01*
X492136Y589682D01*
X493248Y588032D01*
X493835Y586615D01*
X494215Y584781D01*
X493850Y582825D01*
X492751Y581166D01*
X487289Y575704D01*
X484600Y569213D01*
X484600Y562187D01*
X487289Y555696D01*
X492751Y550234D01*
X493804Y548685D01*
X494215Y546738D01*
X493835Y544785D01*
X492760Y542190D01*
X492760Y541062D01*
X526760Y541062D01*
X526760Y542190D01*
X525685Y544785D01*
X525305Y546619D01*
X525670Y548575D01*
X526769Y550234D01*
X532231Y555696D01*
X534920Y562187D01*
X534920Y569213D01*
X532231Y575704D01*
X526769Y581166D01*
X525716Y582715D01*
X525305Y584662D01*
X525685Y586615D01*
X526760Y589210D01*
X526760Y590338D01*
X508998Y590338D01*
X508998Y591862D01*
X526760Y591862D01*
X526760Y593840D01*
X527096Y595642D01*
X528169Y597319D01*
X529810Y598444D01*
X531760Y598840D01*
X547834Y598840D01*
X549710Y598475D01*
X551369Y597376D01*
X609549Y539196D01*
X610553Y537756D01*
X611011Y535819D01*
X610678Y533858D01*
X609605Y532181D01*
X607964Y531056D01*
X606014Y530660D01*
X584287Y530660D01*
X577796Y527971D01*
X561936Y512111D01*
X560423Y511074D01*
G37*
D10*
X271451Y215888D02*
X256451Y215888D01*
X256451Y139688D02*
X271451Y139688D01*
X271451Y165088D02*
X256451Y165088D01*
X256451Y190488D02*
X271451Y190488D01*
X271451Y114288D02*
X256451Y114288D01*
X256451Y241288D02*
X271451Y241288D01*
X271451Y266688D02*
X256451Y266688D01*
X256451Y292088D02*
X271451Y292088D01*
D11*
X88740Y593500D03*
X88740Y573500D03*
X88740Y553500D03*
X88740Y533500D03*
D12*
X159240Y616000D03*
X159240Y511000D03*
D10*
X769000Y629613D02*
X784000Y629613D01*
X784000Y604113D02*
X769000Y604113D01*
X769000Y578613D02*
X784000Y578613D01*
X784000Y553113D02*
X769000Y553113D01*
X517260Y667300D02*
X502260Y667300D01*
X502260Y641900D02*
X517260Y641900D01*
X517260Y616500D02*
X502260Y616500D01*
X502260Y591100D02*
X517260Y591100D01*
X768960Y667300D02*
X783960Y667300D01*
X517260Y565700D02*
X502260Y565700D01*
X502260Y540300D02*
X517260Y540300D01*
X635360Y474000D02*
X635360Y459000D01*
X609960Y459000D02*
X609960Y474000D01*
X686160Y474000D02*
X686160Y459000D01*
X660760Y459000D02*
X660760Y474000D01*
X556300Y473000D02*
X556300Y458000D01*
X530900Y458000D02*
X530900Y473000D01*
X191900Y126200D02*
X191900Y111200D01*
X166500Y111200D02*
X166500Y126200D01*
X141100Y126200D02*
X141100Y111200D01*
X115700Y111200D02*
X115700Y126200D01*
D13*
X59600Y476963D02*
X59600Y488963D01*
X85000Y488963D02*
X85000Y476963D01*
X110400Y476963D02*
X110400Y488963D01*
X135800Y488963D02*
X135800Y476963D01*
X161200Y476963D02*
X161200Y488963D01*
X186600Y488963D02*
X186600Y476963D01*
X212000Y476963D02*
X212000Y488963D01*
X237400Y488963D02*
X237400Y476963D01*
X262800Y476963D02*
X262800Y488963D01*
X288200Y488963D02*
X288200Y476963D01*
X313600Y476963D02*
X313600Y488963D01*
X339000Y488963D02*
X339000Y476963D01*
X364400Y476963D02*
X364400Y488963D01*
X389800Y488963D02*
X389800Y476963D01*
X415200Y476963D02*
X415200Y488963D01*
X415200Y641363D02*
X415200Y653363D01*
X389800Y653363D02*
X389800Y641363D01*
X364400Y641363D02*
X364400Y653363D01*
X339000Y653363D02*
X339000Y641363D01*
X313600Y641363D02*
X313600Y653363D01*
X288200Y653363D02*
X288200Y641363D01*
X262800Y641363D02*
X262800Y653363D01*
X237400Y653363D02*
X237400Y641363D01*
X212000Y641363D02*
X212000Y653363D01*
X186600Y653363D02*
X186600Y641363D01*
X161200Y641363D02*
X161200Y653363D01*
X135800Y653363D02*
X135800Y641363D01*
X110400Y641363D02*
X110400Y653363D01*
X85000Y653363D02*
X85000Y641363D01*
X59600Y641363D02*
X59600Y653363D01*
D14*
X509760Y591100D02*
X531100Y591100D01*
X532000Y592000D01*
X389800Y488963D02*
X389800Y463200D01*
X391000Y462000D01*
X595000Y468000D02*
X596500Y466500D01*
X609960Y466500D02*
X609960Y446960D01*
X609000Y446000D01*
X339000Y641363D02*
X339000Y666000D01*
X339000Y641363D02*
X339000Y627000D01*
X284888Y215888D02*
X263951Y215888D01*
X284888Y215888D02*
X285000Y216000D01*
X263951Y215888D02*
X242112Y215888D01*
X242000Y216000D01*
X242912Y165088D02*
X263951Y165088D01*
X242912Y165088D02*
X242000Y166000D01*
X263951Y165088D02*
X284912Y165088D01*
X286000Y164000D01*
X191900Y87000D02*
X191900Y67100D01*
X192000Y67000D01*
D15*
X304000Y419000D03*
X111000Y32000D03*
X755000Y467000D03*
X634000Y708000D03*
X559000Y550000D03*
D14*
X290688Y266688D02*
X263951Y266688D01*
X290688Y266688D02*
X291000Y267000D01*
X263951Y266688D02*
X240312Y266688D01*
X240000Y267000D01*
X755113Y604113D02*
X776500Y604113D01*
X755113Y604113D02*
X754000Y603000D01*
X776500Y604113D02*
X797113Y604113D01*
X799000Y606000D01*
X609960Y489960D02*
X609960Y466500D01*
X609960Y489960D02*
X611000Y491000D01*
X191900Y143900D02*
X191900Y118700D01*
X191900Y143900D02*
X192000Y144000D01*
X191900Y118700D02*
X191900Y95000D01*
X482700Y540300D02*
X509760Y540300D01*
X482700Y540300D02*
X481000Y542000D01*
X509760Y540300D02*
X535300Y540300D01*
X536000Y541000D01*
D15*
X226000Y618500D03*
X24000Y608000D03*
X30000Y522000D03*
X214000Y524000D03*
D14*
X495100Y591100D02*
X509760Y591100D01*
X495100Y591100D02*
X475000Y571000D01*
X159240Y511000D02*
X89000Y511000D01*
X88000Y512000D01*
X126000Y616000D02*
X159240Y616000D01*
X212000Y616000D01*
D15*
X673000Y640000D03*
X745000Y599000D03*
X182000Y32000D03*
X256000Y32000D03*
X337000Y32000D03*
X420000Y32000D03*
X518000Y32000D03*
X605000Y32000D03*
X684000Y32000D03*
X769000Y32000D03*
X837000Y32000D03*
X915000Y119000D03*
X915000Y217000D03*
X915000Y376000D03*
X134000Y713000D03*
X237000Y713000D03*
X440000Y713000D03*
X772000Y713000D03*
X881000Y713000D03*
X493000Y291000D03*
X588000Y376000D03*
X592000Y286000D03*
X712000Y376000D03*
X723000Y299000D03*
X808000Y376000D03*
X140000Y431000D03*
X338000Y299000D03*
D10*
X635360Y466500D02*
X635360Y513000D01*
X635360Y538360D01*
X726613Y629613D01*
X557220Y616500D02*
X509760Y616500D01*
X557220Y616500D02*
X635360Y538360D01*
X587800Y513000D02*
X556300Y481500D01*
X587800Y513000D02*
X635360Y513000D01*
X424000Y517000D02*
X415200Y508200D01*
X424000Y517000D02*
X525000Y517000D01*
D15*
X157000Y573000D03*
D10*
X415200Y508200D02*
X415200Y488963D01*
X726613Y629613D02*
X776500Y629613D01*
X312488Y190488D02*
X263951Y190488D01*
X312488Y190488D02*
X530900Y408900D01*
X156500Y573500D02*
X88740Y573500D01*
X156500Y573500D02*
X157000Y573000D01*
X530900Y465500D02*
X530900Y408900D01*
X556300Y465500D02*
X556300Y481500D01*
X556300Y485700D02*
X525000Y517000D01*
X556300Y485700D02*
X556300Y481500D01*
D14*
X415200Y641363D02*
X327337Y553500D01*
X88740Y553500D01*
X262800Y488963D02*
X286837Y513000D01*
X387000Y513000D01*
X480000Y606000D01*
X480000Y628000D01*
X493900Y641900D01*
X509760Y641900D01*
X509760Y667300D02*
X483300Y667300D01*
X464000Y648000D01*
X464000Y614000D01*
X378000Y528000D01*
X269000Y528000D01*
X237400Y496400D01*
X237400Y488963D01*
X130500Y533500D02*
X88740Y533500D01*
X130500Y533500D02*
X131000Y533000D01*
D15*
X131000Y533000D03*
D10*
X166500Y277500D02*
X166500Y144100D01*
X166500Y118700D01*
X166500Y277500D02*
X181088Y292088D01*
X263951Y292088D01*
X166500Y144100D02*
X141100Y118700D01*
X166500Y118700D01*
M02*
