G04 EAGLE Gerber RS-274X export*
G75*
%MOMM*%
%FSLAX34Y34*%
%LPD*%
%INTop Copper*%
%IPPOS*%
%AMOC8*
5,1,8,0,0,1.08239X$1,22.5*%
G01*
G04 Define Apertures*
%ADD10C,1.500000*%
%ADD11R,2.000000X2.000000*%
%ADD12C,1.200000*%
%ADD13C,1.000000*%
%ADD14C,0.600000*%
G36*
X880975Y10556D02*
X879025Y10160D01*
X69975Y10160D01*
X68914Y10274D01*
X67092Y11075D01*
X65727Y12523D01*
X65035Y14389D01*
X65126Y16377D01*
X65984Y18172D01*
X67475Y19490D01*
X71589Y21865D01*
X78135Y28411D01*
X82764Y36429D01*
X85160Y45371D01*
X85160Y54629D01*
X82764Y63571D01*
X78135Y71589D01*
X71589Y78135D01*
X71223Y78346D01*
X70302Y79030D01*
X69150Y80653D01*
X68723Y82597D01*
X69088Y84553D01*
X70187Y86212D01*
X90881Y106906D01*
X92357Y107926D01*
X94297Y108369D01*
X96256Y108019D01*
X97923Y106934D01*
X99036Y105284D01*
X100729Y101196D01*
X105696Y96229D01*
X112187Y93540D01*
X119213Y93540D01*
X126487Y96553D01*
X128360Y96933D01*
X130313Y96553D01*
X137587Y93540D01*
X144613Y93540D01*
X151887Y96553D01*
X153760Y96933D01*
X155713Y96553D01*
X162987Y93540D01*
X170013Y93540D01*
X176504Y96229D01*
X181966Y101691D01*
X183515Y102744D01*
X185462Y103155D01*
X187415Y102775D01*
X190010Y101700D01*
X191138Y101700D01*
X191138Y119462D01*
X201400Y119462D01*
X201400Y121102D01*
X201722Y122867D01*
X202781Y124552D01*
X204413Y125691D01*
X206360Y126102D01*
X208313Y125722D01*
X211196Y124528D01*
X234095Y124528D01*
X235860Y124206D01*
X237545Y123147D01*
X238683Y121515D01*
X239095Y119568D01*
X238791Y118010D01*
X238791Y110775D01*
X241480Y104284D01*
X246448Y99316D01*
X252939Y96628D01*
X274964Y96628D01*
X281455Y99316D01*
X286423Y104284D01*
X289111Y110775D01*
X289111Y117800D01*
X286099Y125074D01*
X285718Y126948D01*
X286099Y128901D01*
X289111Y136175D01*
X289111Y143200D01*
X286423Y149691D01*
X280960Y155154D01*
X279908Y156703D01*
X279496Y158649D01*
X279876Y160603D01*
X280951Y163198D01*
X280951Y164326D01*
X246951Y164326D01*
X246951Y163198D01*
X247547Y161761D01*
X247925Y160007D01*
X247591Y158045D01*
X246519Y156369D01*
X244877Y155244D01*
X242927Y154848D01*
X222562Y154848D01*
X220685Y155213D01*
X219026Y156312D01*
X216286Y159052D01*
X210715Y161360D01*
X157406Y161360D01*
X155678Y161668D01*
X153985Y162714D01*
X152834Y164337D01*
X152407Y166280D01*
X152772Y168237D01*
X153871Y169896D01*
X155338Y171363D01*
X156924Y172432D01*
X158874Y172828D01*
X241951Y172828D01*
X243754Y172491D01*
X245430Y171419D01*
X246555Y169778D01*
X246951Y167828D01*
X246951Y165850D01*
X280951Y165850D01*
X280951Y166977D01*
X279876Y169573D01*
X279496Y171406D01*
X279861Y173363D01*
X280960Y175022D01*
X286423Y180484D01*
X289111Y186975D01*
X289111Y194000D01*
X286423Y200491D01*
X280960Y205954D01*
X279908Y207503D01*
X279496Y209449D01*
X279876Y211403D01*
X280951Y213998D01*
X280951Y215126D01*
X246951Y215126D01*
X246951Y213148D01*
X246615Y211345D01*
X245543Y209669D01*
X243902Y208544D01*
X241951Y208148D01*
X167194Y208148D01*
X165466Y208456D01*
X163773Y209501D01*
X162621Y211124D01*
X162194Y213068D01*
X162559Y215024D01*
X163658Y216683D01*
X169138Y222163D01*
X170724Y223232D01*
X172674Y223628D01*
X241951Y223628D01*
X243754Y223291D01*
X245430Y222219D01*
X246555Y220578D01*
X246951Y218628D01*
X246951Y216650D01*
X280951Y216650D01*
X280951Y217777D01*
X279876Y220373D01*
X279496Y222206D01*
X279861Y224163D01*
X280960Y225822D01*
X286423Y231284D01*
X289111Y237775D01*
X289111Y244800D01*
X286423Y251291D01*
X280960Y256754D01*
X279908Y258303D01*
X279496Y260249D01*
X279876Y262203D01*
X280951Y264798D01*
X280951Y265926D01*
X246951Y265926D01*
X246951Y263948D01*
X246615Y262145D01*
X245543Y260469D01*
X243902Y259344D01*
X241951Y258948D01*
X184994Y258948D01*
X183266Y259256D01*
X181573Y260301D01*
X180421Y261924D01*
X179994Y263868D01*
X180359Y265824D01*
X181458Y267483D01*
X186938Y272963D01*
X188524Y274032D01*
X190474Y274428D01*
X241951Y274428D01*
X243754Y274091D01*
X245430Y273019D01*
X246555Y271378D01*
X246951Y269428D01*
X246951Y267450D01*
X280951Y267450D01*
X280951Y268577D01*
X279876Y271173D01*
X279496Y273006D01*
X279861Y274963D01*
X280960Y276622D01*
X286423Y282084D01*
X289111Y288575D01*
X289111Y295600D01*
X286423Y302091D01*
X281455Y307059D01*
X274964Y309748D01*
X205258Y309748D01*
X203530Y310056D01*
X201837Y311101D01*
X200686Y312724D01*
X200259Y314668D01*
X200624Y316624D01*
X201723Y318283D01*
X213815Y330376D01*
X215400Y331444D01*
X217351Y331840D01*
X367016Y331840D01*
X372587Y334148D01*
X486852Y448413D01*
X489160Y453985D01*
X489160Y524016D01*
X487501Y528020D01*
X487127Y529694D01*
X487161Y529920D01*
X487061Y529939D01*
X485402Y531038D01*
X431824Y584615D01*
X430756Y586200D01*
X430360Y588151D01*
X430360Y617502D01*
X430682Y619267D01*
X431741Y620952D01*
X433373Y622090D01*
X435320Y622502D01*
X436289Y622313D01*
X444389Y622313D01*
X451391Y625213D01*
X456750Y630572D01*
X459650Y637574D01*
X459650Y645152D01*
X456750Y652154D01*
X451391Y657513D01*
X444389Y660413D01*
X436811Y660413D01*
X435422Y659838D01*
X433628Y659458D01*
X431669Y659808D01*
X430001Y660893D01*
X428921Y662496D01*
X424354Y667063D01*
X418414Y669523D01*
X411986Y669523D01*
X406046Y667063D01*
X406036Y667052D01*
X404523Y666015D01*
X402580Y665588D01*
X400623Y665953D01*
X398964Y667052D01*
X398954Y667063D01*
X393014Y669523D01*
X386586Y669523D01*
X380646Y667063D01*
X380636Y667052D01*
X379123Y666015D01*
X377180Y665588D01*
X375223Y665953D01*
X373564Y667052D01*
X373554Y667063D01*
X367614Y669523D01*
X361186Y669523D01*
X355246Y667063D01*
X350659Y662476D01*
X349725Y661041D01*
X348093Y659902D01*
X346146Y659491D01*
X344192Y659871D01*
X340591Y661363D01*
X339762Y661363D01*
X339762Y633363D01*
X340591Y633363D01*
X344192Y634855D01*
X345986Y635234D01*
X347945Y634885D01*
X349613Y633799D01*
X350652Y632257D01*
X355214Y627696D01*
X356218Y626256D01*
X356676Y624319D01*
X356342Y622358D01*
X355270Y620681D01*
X353628Y619556D01*
X351678Y619160D01*
X326322Y619160D01*
X324594Y619468D01*
X322901Y620514D01*
X321749Y622137D01*
X321322Y624080D01*
X321687Y626037D01*
X322786Y627696D01*
X327341Y632250D01*
X328275Y633685D01*
X329907Y634824D01*
X331854Y635235D01*
X333808Y634855D01*
X337409Y633363D01*
X338238Y633363D01*
X338238Y661363D01*
X337409Y661363D01*
X333808Y659871D01*
X332014Y659492D01*
X330055Y659841D01*
X328387Y660927D01*
X327348Y662469D01*
X322754Y667063D01*
X316814Y669523D01*
X310386Y669523D01*
X304446Y667063D01*
X304436Y667052D01*
X302923Y666015D01*
X300980Y665588D01*
X299023Y665953D01*
X297364Y667052D01*
X297354Y667063D01*
X291414Y669523D01*
X284986Y669523D01*
X279046Y667063D01*
X279036Y667052D01*
X277523Y666015D01*
X275580Y665588D01*
X273623Y665953D01*
X271964Y667052D01*
X271954Y667063D01*
X266014Y669523D01*
X259586Y669523D01*
X253646Y667063D01*
X253636Y667052D01*
X252123Y666015D01*
X250180Y665588D01*
X248223Y665953D01*
X246564Y667052D01*
X246554Y667063D01*
X240614Y669523D01*
X234186Y669523D01*
X228246Y667063D01*
X228236Y667052D01*
X226723Y666015D01*
X224780Y665588D01*
X222823Y665953D01*
X221164Y667052D01*
X221154Y667063D01*
X215214Y669523D01*
X208786Y669523D01*
X202846Y667063D01*
X202836Y667052D01*
X201323Y666015D01*
X199380Y665588D01*
X197423Y665953D01*
X195764Y667052D01*
X195754Y667063D01*
X189814Y669523D01*
X183386Y669523D01*
X177446Y667063D01*
X177436Y667052D01*
X175923Y666015D01*
X173980Y665588D01*
X172023Y665953D01*
X170364Y667052D01*
X170354Y667063D01*
X164414Y669523D01*
X157986Y669523D01*
X152046Y667063D01*
X152036Y667052D01*
X150523Y666015D01*
X148580Y665588D01*
X146623Y665953D01*
X144964Y667052D01*
X144954Y667063D01*
X139014Y669523D01*
X132586Y669523D01*
X126646Y667063D01*
X126636Y667052D01*
X125123Y666015D01*
X123180Y665588D01*
X121223Y665953D01*
X119564Y667052D01*
X119554Y667063D01*
X113614Y669523D01*
X107186Y669523D01*
X101246Y667063D01*
X101236Y667052D01*
X99723Y666015D01*
X97780Y665588D01*
X95823Y665953D01*
X94164Y667052D01*
X94154Y667063D01*
X88214Y669523D01*
X82025Y669523D01*
X80297Y669831D01*
X78604Y670877D01*
X77453Y672500D01*
X77026Y674443D01*
X77390Y676400D01*
X78489Y678059D01*
X78535Y678104D01*
X83230Y686236D01*
X85660Y695305D01*
X85660Y704695D01*
X83230Y713764D01*
X78535Y721896D01*
X74126Y726304D01*
X73122Y727744D01*
X72664Y729681D01*
X72998Y731642D01*
X74070Y733319D01*
X75712Y734444D01*
X77662Y734840D01*
X895000Y734840D01*
X895782Y734778D01*
X906548Y733073D01*
X908036Y732590D01*
X917748Y727641D01*
X919014Y726722D01*
X926722Y719014D01*
X927641Y717748D01*
X932590Y708036D01*
X933073Y706548D01*
X934778Y695782D01*
X934840Y695000D01*
X934840Y668160D01*
X934504Y666358D01*
X933431Y664681D01*
X931790Y663556D01*
X929840Y663160D01*
X816979Y663160D01*
X812500Y661305D01*
X810666Y660925D01*
X808710Y661290D01*
X808317Y661550D01*
X804707Y663045D01*
X803141Y664073D01*
X802016Y665715D01*
X801620Y667665D01*
X801620Y670813D01*
X798931Y677304D01*
X793964Y682271D01*
X787473Y684960D01*
X765447Y684960D01*
X758956Y682271D01*
X756598Y679913D01*
X755086Y678876D01*
X753142Y678449D01*
X751186Y678814D01*
X749527Y679913D01*
X749288Y680152D01*
X743716Y682460D01*
X527803Y682460D01*
X525889Y682841D01*
X520773Y684960D01*
X498747Y684960D01*
X492256Y682271D01*
X487289Y677304D01*
X484600Y670813D01*
X484600Y663787D01*
X487613Y656513D01*
X487993Y654640D01*
X487613Y652687D01*
X484600Y645413D01*
X484600Y638387D01*
X487613Y631113D01*
X487993Y629240D01*
X487613Y627287D01*
X484600Y620013D01*
X484600Y612987D01*
X487289Y606496D01*
X492751Y601034D01*
X493804Y599485D01*
X494215Y597538D01*
X493835Y595585D01*
X492760Y592990D01*
X492760Y591862D01*
X526760Y591862D01*
X526760Y592990D01*
X525685Y595585D01*
X525305Y597419D01*
X525670Y599375D01*
X526769Y601034D01*
X532231Y606496D01*
X534920Y612987D01*
X534920Y620184D01*
X534619Y621581D01*
X534953Y623542D01*
X536025Y625219D01*
X537666Y626344D01*
X539617Y626740D01*
X620749Y626740D01*
X622626Y626375D01*
X624285Y625276D01*
X683800Y565761D01*
X689372Y563453D01*
X731828Y563453D01*
X733630Y563117D01*
X735306Y562044D01*
X736432Y560403D01*
X736828Y558453D01*
X736828Y538338D01*
X736462Y536462D01*
X735363Y534803D01*
X728185Y527624D01*
X726600Y526556D01*
X724649Y526160D01*
X685985Y526160D01*
X680413Y523852D01*
X647845Y491284D01*
X646296Y490232D01*
X644349Y489820D01*
X642396Y490201D01*
X638873Y491660D01*
X631847Y491660D01*
X625356Y488971D01*
X619894Y483509D01*
X618345Y482456D01*
X616398Y482045D01*
X614445Y482425D01*
X611850Y483500D01*
X610722Y483500D01*
X610722Y449500D01*
X611850Y449500D01*
X614445Y450575D01*
X616279Y450955D01*
X618235Y450590D01*
X619894Y449491D01*
X625356Y444029D01*
X631847Y441340D01*
X638873Y441340D01*
X646147Y444353D01*
X648020Y444733D01*
X649973Y444353D01*
X657247Y441340D01*
X664273Y441340D01*
X671547Y444353D01*
X673420Y444733D01*
X675373Y444353D01*
X682647Y441340D01*
X689673Y441340D01*
X696164Y444029D01*
X701656Y449521D01*
X701852Y449819D01*
X703493Y450944D01*
X705443Y451340D01*
X714516Y451340D01*
X720087Y453648D01*
X789352Y522913D01*
X791660Y528485D01*
X791660Y533830D01*
X792011Y535669D01*
X793096Y537337D01*
X793412Y537550D01*
X793597Y537735D01*
X795219Y538819D01*
X796769Y539461D01*
X796769Y539461D01*
X798701Y540261D01*
X800304Y541865D01*
X801744Y542869D01*
X803681Y543327D01*
X805642Y542993D01*
X807319Y541921D01*
X808444Y540280D01*
X808840Y538329D01*
X808840Y431979D01*
X810387Y428245D01*
X813245Y425387D01*
X816979Y423840D01*
X929840Y423840D01*
X931642Y423504D01*
X933319Y422431D01*
X934444Y420790D01*
X934840Y418840D01*
X934840Y77662D01*
X934532Y75934D01*
X933486Y74241D01*
X931863Y73090D01*
X929920Y72663D01*
X927963Y73027D01*
X926304Y74126D01*
X921896Y78535D01*
X913764Y83230D01*
X904695Y85660D01*
X895305Y85660D01*
X886236Y83230D01*
X878104Y78535D01*
X871465Y71896D01*
X866770Y63764D01*
X864340Y54695D01*
X864340Y45305D01*
X866770Y36236D01*
X871465Y28104D01*
X878104Y21465D01*
X881525Y19490D01*
X882387Y18861D01*
X883564Y17256D01*
X884022Y15319D01*
X883688Y13358D01*
X882616Y11681D01*
X880975Y10556D01*
G37*
%LPC*%
G36*
X492760Y541062D02*
X526760Y541062D01*
X526760Y542190D01*
X525685Y544785D01*
X525305Y546619D01*
X525670Y548575D01*
X526769Y550234D01*
X532231Y555696D01*
X534920Y562187D01*
X534920Y569213D01*
X532231Y575704D01*
X526769Y581166D01*
X525716Y582715D01*
X525305Y584662D01*
X525685Y586615D01*
X526760Y589210D01*
X526760Y590338D01*
X492760Y590338D01*
X492760Y589210D01*
X493835Y586615D01*
X494215Y584781D01*
X493850Y582825D01*
X492751Y581166D01*
X487289Y575704D01*
X484600Y569213D01*
X484600Y562187D01*
X487289Y555696D01*
X492751Y550234D01*
X493804Y548685D01*
X494215Y546738D01*
X493835Y544785D01*
X492760Y542190D01*
X492760Y541062D01*
G37*
G36*
X500370Y530800D02*
X508998Y530800D01*
X508998Y539538D01*
X492760Y539538D01*
X492760Y538410D01*
X493557Y536486D01*
X493932Y534812D01*
X493897Y534586D01*
X493997Y534568D01*
X495656Y533469D01*
X496879Y532246D01*
X500370Y530800D01*
G37*
G36*
X510522Y530800D02*
X519150Y530800D01*
X522641Y532246D01*
X525314Y534919D01*
X526760Y538410D01*
X526760Y539538D01*
X510522Y539538D01*
X510522Y530800D01*
G37*
G36*
X527387Y440340D02*
X534413Y440340D01*
X541687Y443353D01*
X543560Y443733D01*
X545513Y443353D01*
X552787Y440340D01*
X559813Y440340D01*
X566304Y443029D01*
X571271Y447996D01*
X573960Y454487D01*
X573960Y476513D01*
X571271Y483004D01*
X566304Y487971D01*
X559813Y490660D01*
X552787Y490660D01*
X545513Y487647D01*
X543640Y487267D01*
X541687Y487647D01*
X534413Y490660D01*
X527387Y490660D01*
X520896Y487971D01*
X515929Y483004D01*
X513240Y476513D01*
X513240Y454487D01*
X515929Y447996D01*
X520896Y443029D01*
X527387Y440340D01*
G37*
G36*
X600460Y467262D02*
X609198Y467262D01*
X609198Y483500D01*
X608070Y483500D01*
X604579Y482054D01*
X601906Y479381D01*
X600460Y475890D01*
X600460Y467262D01*
G37*
G36*
X608070Y449500D02*
X609198Y449500D01*
X609198Y465738D01*
X600460Y465738D01*
X600460Y457110D01*
X601906Y453619D01*
X604579Y450946D01*
X608070Y449500D01*
G37*
G36*
X864335Y268840D02*
X873593Y268840D01*
X882535Y271236D01*
X890553Y275865D01*
X897099Y282411D01*
X901728Y290429D01*
X904124Y299371D01*
X904124Y308629D01*
X901728Y317571D01*
X897099Y325589D01*
X890553Y332135D01*
X882535Y336764D01*
X873593Y339160D01*
X864335Y339160D01*
X855393Y336764D01*
X847375Y332135D01*
X840829Y325589D01*
X836200Y317571D01*
X833804Y308629D01*
X833804Y299371D01*
X836200Y290429D01*
X840829Y282411D01*
X847375Y275865D01*
X855393Y271236D01*
X864335Y268840D01*
G37*
G36*
X192662Y101700D02*
X193790Y101700D01*
X197281Y103146D01*
X199954Y105819D01*
X201400Y109310D01*
X201400Y117938D01*
X192662Y117938D01*
X192662Y101700D01*
G37*
%LPD*%
G36*
X757467Y594169D02*
X755517Y593773D01*
X700738Y593773D01*
X698861Y594139D01*
X697202Y595237D01*
X648835Y643604D01*
X647831Y645044D01*
X647373Y646981D01*
X647707Y648942D01*
X648779Y650619D01*
X650420Y651744D01*
X652371Y652140D01*
X732349Y652140D01*
X734226Y651775D01*
X735885Y650676D01*
X749876Y636685D01*
X750944Y635100D01*
X751340Y633149D01*
X751340Y626100D01*
X754029Y619609D01*
X759520Y614118D01*
X760573Y612569D01*
X760985Y610622D01*
X760604Y608669D01*
X759500Y606003D01*
X759500Y604875D01*
X777262Y604875D01*
X777262Y603351D01*
X759500Y603351D01*
X759500Y602223D01*
X760137Y600686D01*
X760515Y598932D01*
X760181Y596971D01*
X759109Y595294D01*
X757467Y594169D01*
G37*
G36*
X349600Y380556D02*
X347649Y380160D01*
X219671Y380160D01*
X217943Y380468D01*
X216250Y381514D01*
X215098Y383137D01*
X214671Y385080D01*
X215036Y387037D01*
X216135Y388696D01*
X275652Y448213D01*
X277960Y453785D01*
X277960Y456230D01*
X278282Y457995D01*
X279341Y459680D01*
X280973Y460818D01*
X282920Y461230D01*
X284873Y460849D01*
X284986Y460803D01*
X291414Y460803D01*
X297354Y463263D01*
X297364Y463274D01*
X298877Y464311D01*
X300820Y464738D01*
X302777Y464373D01*
X304436Y463274D01*
X304446Y463263D01*
X310386Y460803D01*
X316814Y460803D01*
X322754Y463263D01*
X322764Y463274D01*
X324277Y464311D01*
X326220Y464738D01*
X328177Y464373D01*
X329836Y463274D01*
X329846Y463263D01*
X335786Y460803D01*
X342214Y460803D01*
X348154Y463263D01*
X348164Y463274D01*
X349677Y464311D01*
X351620Y464738D01*
X353577Y464373D01*
X355236Y463274D01*
X355246Y463263D01*
X361186Y460803D01*
X367614Y460803D01*
X373554Y463263D01*
X378141Y467850D01*
X379075Y469285D01*
X380707Y470424D01*
X382654Y470835D01*
X384608Y470455D01*
X388209Y468963D01*
X389038Y468963D01*
X389038Y496963D01*
X388209Y496963D01*
X384608Y495471D01*
X382814Y495092D01*
X380855Y495441D01*
X379187Y496527D01*
X378148Y498069D01*
X373554Y502663D01*
X367614Y505123D01*
X361186Y505123D01*
X355246Y502663D01*
X355236Y502652D01*
X353723Y501615D01*
X351780Y501188D01*
X349823Y501553D01*
X348164Y502652D01*
X348154Y502663D01*
X342214Y505123D01*
X335786Y505123D01*
X329846Y502663D01*
X329836Y502652D01*
X328323Y501615D01*
X326380Y501188D01*
X324423Y501553D01*
X322764Y502652D01*
X322754Y502663D01*
X316814Y505123D01*
X310386Y505123D01*
X304446Y502663D01*
X304436Y502652D01*
X302923Y501615D01*
X300980Y501188D01*
X299023Y501553D01*
X297364Y502652D01*
X297354Y502663D01*
X291414Y505123D01*
X284986Y505123D01*
X279046Y502663D01*
X279036Y502652D01*
X277523Y501615D01*
X275580Y501188D01*
X273623Y501553D01*
X271964Y502652D01*
X271954Y502663D01*
X266014Y505123D01*
X259586Y505123D01*
X253646Y502663D01*
X253636Y502652D01*
X252123Y501615D01*
X250180Y501188D01*
X248223Y501553D01*
X246564Y502652D01*
X246554Y502663D01*
X240614Y505123D01*
X234186Y505123D01*
X228246Y502663D01*
X228236Y502652D01*
X226723Y501615D01*
X224780Y501188D01*
X222823Y501553D01*
X221164Y502652D01*
X221154Y502663D01*
X215214Y505123D01*
X208786Y505123D01*
X202846Y502663D01*
X202836Y502652D01*
X201323Y501615D01*
X199380Y501188D01*
X197423Y501553D01*
X195764Y502652D01*
X195754Y502663D01*
X189814Y505123D01*
X183386Y505123D01*
X177446Y502663D01*
X177436Y502652D01*
X175923Y501615D01*
X173980Y501188D01*
X172023Y501553D01*
X170364Y502652D01*
X170354Y502663D01*
X164414Y505123D01*
X157986Y505123D01*
X152046Y502663D01*
X152036Y502652D01*
X150523Y501615D01*
X148580Y501188D01*
X146623Y501553D01*
X144964Y502652D01*
X144954Y502663D01*
X139014Y505123D01*
X132586Y505123D01*
X126646Y502663D01*
X126636Y502652D01*
X125123Y501615D01*
X123180Y501188D01*
X121223Y501553D01*
X119564Y502652D01*
X119554Y502663D01*
X113614Y505123D01*
X107186Y505123D01*
X101246Y502663D01*
X101236Y502652D01*
X99723Y501615D01*
X97780Y501188D01*
X95823Y501553D01*
X94164Y502652D01*
X94154Y502663D01*
X88214Y505123D01*
X81786Y505123D01*
X75846Y502663D01*
X75836Y502652D01*
X74323Y501615D01*
X72380Y501188D01*
X70423Y501553D01*
X68764Y502652D01*
X68754Y502663D01*
X62814Y505123D01*
X56386Y505123D01*
X51408Y503061D01*
X49574Y502681D01*
X47618Y503046D01*
X45959Y504145D01*
X44991Y505113D01*
X37989Y508013D01*
X30411Y508013D01*
X23409Y505113D01*
X18696Y500399D01*
X17256Y499395D01*
X15319Y498937D01*
X13358Y499271D01*
X11681Y500343D01*
X10556Y501985D01*
X10160Y503935D01*
X10160Y626391D01*
X10468Y628119D01*
X11514Y629812D01*
X13137Y630964D01*
X15080Y631391D01*
X17037Y631026D01*
X18696Y629927D01*
X23409Y625213D01*
X30411Y622313D01*
X37989Y622313D01*
X44991Y625213D01*
X45959Y626181D01*
X47508Y627234D01*
X49454Y627645D01*
X51408Y627265D01*
X56386Y625203D01*
X62814Y625203D01*
X68754Y627663D01*
X68764Y627674D01*
X70277Y628711D01*
X72220Y629138D01*
X74177Y628773D01*
X75836Y627674D01*
X75846Y627663D01*
X81786Y625203D01*
X88214Y625203D01*
X94154Y627663D01*
X94164Y627674D01*
X95677Y628711D01*
X97620Y629138D01*
X99577Y628773D01*
X101236Y627674D01*
X101246Y627663D01*
X107186Y625203D01*
X113614Y625203D01*
X119554Y627663D01*
X119564Y627674D01*
X121077Y628711D01*
X123020Y629138D01*
X124977Y628773D01*
X126636Y627674D01*
X126646Y627663D01*
X132586Y625203D01*
X139014Y625203D01*
X144954Y627663D01*
X144964Y627674D01*
X146477Y628711D01*
X148420Y629138D01*
X150377Y628773D01*
X152036Y627674D01*
X152308Y627401D01*
X153106Y626891D01*
X154270Y625277D01*
X154713Y623337D01*
X154363Y621378D01*
X153278Y619710D01*
X151627Y618598D01*
X147413Y616852D01*
X118148Y587587D01*
X115840Y582016D01*
X115840Y529985D01*
X118148Y524413D01*
X122413Y520148D01*
X127985Y517840D01*
X134016Y517840D01*
X139587Y520148D01*
X143852Y524413D01*
X146160Y529985D01*
X146160Y550892D01*
X146482Y552657D01*
X147541Y554342D01*
X149173Y555480D01*
X151120Y555892D01*
X153073Y555511D01*
X153487Y555340D01*
X346614Y555340D01*
X348490Y554975D01*
X350149Y553876D01*
X395876Y508149D01*
X396944Y506564D01*
X397340Y504614D01*
X397340Y501963D01*
X397004Y500161D01*
X395931Y498484D01*
X394290Y497359D01*
X392340Y496963D01*
X390562Y496963D01*
X390562Y468963D01*
X391391Y468963D01*
X394992Y470455D01*
X396786Y470834D01*
X398745Y470485D01*
X400413Y469399D01*
X401452Y467857D01*
X406046Y463263D01*
X411986Y460803D01*
X418292Y460803D01*
X420020Y460495D01*
X421714Y459449D01*
X422865Y457826D01*
X423292Y455883D01*
X422927Y453926D01*
X421828Y452267D01*
X351185Y381624D01*
X349600Y380556D01*
G37*
G36*
X117256Y363131D02*
X115319Y362673D01*
X113358Y363007D01*
X111681Y364079D01*
X110556Y365720D01*
X110160Y367671D01*
X110160Y452021D01*
X109386Y453890D01*
X109008Y455644D01*
X109342Y457605D01*
X110414Y459282D01*
X112055Y460407D01*
X113238Y460647D01*
X119554Y463263D01*
X119564Y463274D01*
X121077Y464311D01*
X123020Y464738D01*
X124977Y464373D01*
X126636Y463274D01*
X126646Y463263D01*
X132586Y460803D01*
X139014Y460803D01*
X144954Y463263D01*
X144964Y463274D01*
X146477Y464311D01*
X148420Y464738D01*
X150377Y464373D01*
X152036Y463274D01*
X152046Y463263D01*
X157986Y460803D01*
X164414Y460803D01*
X170354Y463263D01*
X170364Y463274D01*
X171877Y464311D01*
X173820Y464738D01*
X175777Y464373D01*
X177436Y463274D01*
X177446Y463263D01*
X183386Y460803D01*
X189814Y460803D01*
X195754Y463263D01*
X195764Y463274D01*
X197277Y464311D01*
X199220Y464738D01*
X201177Y464373D01*
X202836Y463274D01*
X202846Y463263D01*
X206523Y461740D01*
X208031Y460767D01*
X209182Y459144D01*
X209609Y457200D01*
X209245Y455244D01*
X208146Y453585D01*
X118696Y364135D01*
X117256Y363131D01*
G37*
D10*
X271451Y215888D02*
X256451Y215888D01*
X256451Y139688D02*
X271451Y139688D01*
X271451Y165088D02*
X256451Y165088D01*
X256451Y190488D02*
X271451Y190488D01*
X271451Y114288D02*
X256451Y114288D01*
X256451Y241288D02*
X271451Y241288D01*
X271451Y266688D02*
X256451Y266688D01*
X256451Y292088D02*
X271451Y292088D01*
X769000Y629613D02*
X784000Y629613D01*
X784000Y604113D02*
X769000Y604113D01*
X769000Y578613D02*
X784000Y578613D01*
X784000Y553113D02*
X769000Y553113D01*
X517260Y667300D02*
X502260Y667300D01*
X502260Y641900D02*
X517260Y641900D01*
X517260Y616500D02*
X502260Y616500D01*
X502260Y591100D02*
X517260Y591100D01*
X768960Y667300D02*
X783960Y667300D01*
X517260Y565700D02*
X502260Y565700D01*
X502260Y540300D02*
X517260Y540300D01*
X635360Y474000D02*
X635360Y459000D01*
X609960Y459000D02*
X609960Y474000D01*
X686160Y474000D02*
X686160Y459000D01*
X660760Y459000D02*
X660760Y474000D01*
X556300Y473000D02*
X556300Y458000D01*
X530900Y458000D02*
X530900Y473000D01*
X191900Y126200D02*
X191900Y111200D01*
X166500Y111200D02*
X166500Y126200D01*
X141100Y126200D02*
X141100Y111200D01*
X115700Y111200D02*
X115700Y126200D01*
D11*
X29000Y136000D03*
X29000Y171000D03*
X29000Y101000D03*
X29000Y311000D03*
X29000Y276000D03*
X29000Y206000D03*
X29000Y241000D03*
D12*
X59600Y476963D02*
X59600Y488963D01*
X85000Y488963D02*
X85000Y476963D01*
X110400Y476963D02*
X110400Y488963D01*
X135800Y488963D02*
X135800Y476963D01*
X161200Y476963D02*
X161200Y488963D01*
X186600Y488963D02*
X186600Y476963D01*
X212000Y476963D02*
X212000Y488963D01*
X237400Y488963D02*
X237400Y476963D01*
X262800Y476963D02*
X262800Y488963D01*
X288200Y488963D02*
X288200Y476963D01*
X313600Y476963D02*
X313600Y488963D01*
X339000Y488963D02*
X339000Y476963D01*
X364400Y476963D02*
X364400Y488963D01*
X389800Y488963D02*
X389800Y476963D01*
X415200Y476963D02*
X415200Y488963D01*
X415200Y641363D02*
X415200Y653363D01*
X389800Y653363D02*
X389800Y641363D01*
X364400Y641363D02*
X364400Y653363D01*
X339000Y653363D02*
X339000Y641363D01*
X313600Y641363D02*
X313600Y653363D01*
X288200Y653363D02*
X288200Y641363D01*
X262800Y641363D02*
X262800Y653363D01*
X237400Y653363D02*
X237400Y641363D01*
X212000Y641363D02*
X212000Y653363D01*
X186600Y653363D02*
X186600Y641363D01*
X161200Y641363D02*
X161200Y653363D01*
X135800Y653363D02*
X135800Y641363D01*
X110400Y641363D02*
X110400Y653363D01*
X85000Y653363D02*
X85000Y641363D01*
X59600Y641363D02*
X59600Y653363D01*
D13*
X389800Y488963D02*
X390000Y489163D01*
X389800Y488963D02*
X389800Y460800D01*
X388000Y459000D01*
X487700Y540300D02*
X509760Y540300D01*
X487700Y540300D02*
X486000Y542000D01*
X509760Y540300D02*
X509760Y525760D01*
X509000Y525000D01*
X509660Y591000D02*
X509760Y591100D01*
X509660Y591000D02*
X487000Y591000D01*
X509760Y591100D02*
X531900Y591100D01*
X532000Y591000D01*
X594500Y466500D02*
X609960Y466500D01*
X594500Y466500D02*
X594000Y467000D01*
X339000Y631000D02*
X339000Y641363D01*
X339000Y631000D02*
X337000Y629000D01*
X339000Y641363D02*
X339000Y667000D01*
X338000Y668000D01*
D14*
X304000Y419000D03*
X111000Y32000D03*
X755000Y467000D03*
X634000Y708000D03*
X559000Y550000D03*
D13*
X263951Y266688D02*
X242312Y266688D01*
X242000Y267000D01*
X263951Y266688D02*
X288688Y266688D01*
X289000Y267000D01*
X751113Y604113D02*
X776500Y604113D01*
X751113Y604113D02*
X751000Y604000D01*
X284912Y165088D02*
X263951Y165088D01*
X284912Y165088D02*
X285000Y165000D01*
X286888Y215888D02*
X263951Y215888D01*
X286888Y215888D02*
X287000Y216000D01*
X191900Y118700D02*
X191900Y101100D01*
X192000Y101000D01*
X235112Y215888D02*
X263951Y215888D01*
X235112Y215888D02*
X235000Y216000D01*
X234088Y165088D02*
X263951Y165088D01*
X234088Y165088D02*
X233000Y164000D01*
D14*
X226000Y618500D03*
X24000Y608000D03*
X30000Y522000D03*
X214000Y524000D03*
X673000Y640000D03*
X745000Y599000D03*
X182000Y32000D03*
X256000Y32000D03*
X337000Y32000D03*
X420000Y32000D03*
X518000Y32000D03*
X605000Y32000D03*
X684000Y32000D03*
X769000Y32000D03*
X837000Y32000D03*
X915000Y119000D03*
X915000Y217000D03*
X915000Y376000D03*
X134000Y713000D03*
X237000Y713000D03*
X440000Y713000D03*
X772000Y713000D03*
X881000Y713000D03*
X493000Y291000D03*
X588000Y376000D03*
X592000Y286000D03*
X712000Y376000D03*
X723000Y299000D03*
X808000Y376000D03*
X140000Y431000D03*
X338000Y299000D03*
X157000Y573000D03*
D10*
X356000Y573000D01*
X415000Y514000D01*
X415000Y489163D01*
X415200Y488963D01*
X263951Y190488D02*
X149488Y190488D01*
X60000Y101000D01*
X29000Y101000D01*
X530900Y465500D02*
X556300Y465500D01*
D13*
X115700Y127700D02*
X115700Y118700D01*
X214211Y139688D02*
X263951Y139688D01*
X214211Y139688D02*
X207699Y146200D01*
X134200Y146200D01*
X115700Y127700D01*
X209000Y347000D02*
X364000Y347000D01*
X474000Y457000D01*
X474000Y521000D01*
X415200Y579800D01*
X415200Y641363D01*
X68000Y206000D02*
X29000Y206000D01*
X68000Y206000D02*
X209000Y347000D01*
X689000Y511000D02*
X733000Y511000D01*
X689000Y511000D02*
X660760Y482760D01*
X660760Y466500D01*
X751988Y529988D02*
X751988Y564988D01*
X765613Y578613D01*
X776500Y578613D01*
X751988Y529988D02*
X733000Y511000D01*
X82000Y276000D02*
X29000Y276000D01*
X82000Y276000D02*
X262800Y456800D01*
X262800Y488963D01*
X509760Y641900D02*
X629100Y641900D01*
X692387Y578613D01*
X776500Y578613D01*
X759000Y649000D02*
X740700Y667300D01*
X759000Y649000D02*
X799000Y649000D01*
X807000Y641000D01*
X807000Y570000D01*
X790113Y553113D01*
X776500Y553113D01*
X776500Y531500D01*
X711500Y466500D01*
X686160Y466500D01*
X740700Y667300D02*
X509760Y667300D01*
X87000Y311000D02*
X29000Y311000D01*
X87000Y311000D02*
X237400Y461400D01*
X237400Y488963D01*
X389800Y578200D02*
X389800Y618000D01*
X389800Y641363D01*
X389800Y578200D02*
X459000Y509000D01*
X459000Y468000D01*
X356000Y365000D01*
X199000Y365000D01*
X75000Y241000D01*
X29000Y241000D01*
D14*
X131000Y533000D03*
D13*
X131000Y579000D01*
X156000Y604000D01*
X373000Y604000D01*
X374000Y603000D01*
X374800Y603000D01*
X389800Y618000D01*
D10*
X58000Y136000D02*
X29000Y136000D01*
X58000Y136000D02*
X163288Y241288D01*
X263951Y241288D01*
X181088Y292088D02*
X60000Y171000D01*
X181088Y292088D02*
X263951Y292088D01*
X60000Y171000D02*
X29000Y171000D01*
M02*
