G04 EAGLE Gerber RS-274X export*
G75*
%MOMM*%
%FSLAX34Y34*%
%LPD*%
%INSilkscreen Top*%
%IPPOS*%
%AMOC8*
5,1,8,0,0,1.08239X$1,22.5*%
G01*
G04 Define Apertures*
%ADD10C,0.254000*%
%ADD11C,0.127000*%
%ADD12C,0.080000*%
%ADD13C,0.076200*%
G36*
X877056Y346035D02*
X864715Y351071D01*
X864715Y352972D01*
X877056Y357929D01*
X877056Y356221D01*
X873447Y354811D01*
X873447Y349188D01*
X877056Y347769D01*
X877056Y346035D01*
G37*
%LPC*%
G36*
X872142Y349696D02*
X872142Y354312D01*
X868070Y352727D01*
X867426Y352481D01*
X866703Y352236D01*
X865976Y352000D01*
X866222Y351921D01*
X867051Y351649D01*
X868087Y351273D01*
X872142Y349696D01*
G37*
%LPD*%
G36*
X877056Y406879D02*
X864715Y411915D01*
X864715Y413816D01*
X877056Y418773D01*
X877056Y417065D01*
X873447Y415655D01*
X873447Y410032D01*
X877056Y408613D01*
X877056Y406879D01*
G37*
%LPC*%
G36*
X872142Y410540D02*
X872142Y415156D01*
X868070Y413570D01*
X867426Y413325D01*
X866703Y413080D01*
X865976Y412843D01*
X866222Y412765D01*
X867051Y412493D01*
X868087Y412116D01*
X872142Y410540D01*
G37*
%LPD*%
G36*
X877056Y359440D02*
X864715Y359440D01*
X864715Y361385D01*
X875295Y368059D01*
X873815Y367980D01*
X872808Y367953D01*
X864715Y367953D01*
X864715Y369460D01*
X877056Y369460D01*
X877056Y367445D01*
X866546Y360842D01*
X867395Y360885D01*
X868858Y360929D01*
X877056Y360929D01*
X877056Y359440D01*
G37*
G36*
X877056Y395346D02*
X864715Y395346D01*
X864715Y397291D01*
X875295Y403965D01*
X873815Y403886D01*
X872808Y403860D01*
X864715Y403860D01*
X864715Y405366D01*
X877056Y405366D01*
X877056Y403352D01*
X866546Y396748D01*
X867395Y396792D01*
X868858Y396835D01*
X877056Y396835D01*
X877056Y395346D01*
G37*
G36*
X877056Y383378D02*
X864715Y383378D01*
X864715Y392741D01*
X866081Y392741D01*
X866081Y385051D01*
X870040Y385051D01*
X870040Y392215D01*
X871389Y392215D01*
X871389Y385051D01*
X875690Y385051D01*
X875690Y393100D01*
X877056Y393100D01*
X877056Y383378D01*
G37*
G36*
X866081Y371340D02*
X864715Y371340D01*
X864715Y381483D01*
X866081Y381483D01*
X866081Y377244D01*
X877056Y377244D01*
X877056Y375580D01*
X866081Y375580D01*
X866081Y371340D01*
G37*
G36*
X562899Y158000D02*
X556938Y158000D01*
X556938Y207406D01*
X564722Y207406D01*
X591441Y165048D01*
X591257Y168248D01*
X591126Y170974D01*
X591047Y173227D01*
X591021Y175006D01*
X591021Y207406D01*
X597052Y207406D01*
X597052Y158000D01*
X588987Y158000D01*
X562548Y200078D01*
X562723Y196676D01*
X562899Y190821D01*
X562899Y158000D01*
G37*
G36*
X547953Y158000D02*
X509031Y158000D01*
X509031Y207406D01*
X546516Y207406D01*
X546516Y201936D01*
X515729Y201936D01*
X515729Y186087D01*
X544412Y186087D01*
X544412Y180687D01*
X515729Y180687D01*
X515729Y163470D01*
X547953Y163470D01*
X547953Y158000D01*
G37*
G36*
X479429Y157299D02*
X478315Y157311D01*
X477231Y157348D01*
X476177Y157409D01*
X475152Y157495D01*
X474156Y157605D01*
X473191Y157740D01*
X472255Y157899D01*
X471349Y158083D01*
X470472Y158292D01*
X469625Y158525D01*
X468808Y158782D01*
X468020Y159064D01*
X467262Y159370D01*
X466534Y159701D01*
X465835Y160057D01*
X465166Y160437D01*
X464527Y160842D01*
X463917Y161271D01*
X463337Y161724D01*
X462787Y162202D01*
X462266Y162705D01*
X461775Y163232D01*
X461314Y163784D01*
X460882Y164360D01*
X460480Y164961D01*
X460107Y165586D01*
X459765Y166235D01*
X459451Y166910D01*
X459168Y167608D01*
X458914Y168332D01*
X458690Y169080D01*
X458495Y169852D01*
X464982Y171149D01*
X465132Y170602D01*
X465302Y170073D01*
X465492Y169563D01*
X465701Y169071D01*
X465930Y168597D01*
X466179Y168142D01*
X466447Y167706D01*
X466736Y167288D01*
X467044Y166888D01*
X467371Y166507D01*
X467719Y166145D01*
X468086Y165801D01*
X468472Y165475D01*
X468879Y165168D01*
X469305Y164880D01*
X469751Y164610D01*
X470217Y164357D01*
X470704Y164121D01*
X471211Y163901D01*
X471739Y163697D01*
X472287Y163509D01*
X472856Y163338D01*
X473445Y163183D01*
X474055Y163045D01*
X474686Y162923D01*
X475337Y162817D01*
X476008Y162727D01*
X476701Y162654D01*
X477413Y162597D01*
X478146Y162556D01*
X478900Y162531D01*
X479674Y162523D01*
X480474Y162532D01*
X481250Y162558D01*
X482003Y162602D01*
X482733Y162663D01*
X483439Y162741D01*
X484123Y162836D01*
X484783Y162950D01*
X485421Y163080D01*
X486035Y163228D01*
X486626Y163393D01*
X487194Y163576D01*
X487738Y163776D01*
X488260Y163993D01*
X488758Y164228D01*
X489233Y164480D01*
X489685Y164750D01*
X490112Y165036D01*
X490511Y165339D01*
X490883Y165658D01*
X491227Y165994D01*
X491544Y166345D01*
X491833Y166713D01*
X492094Y167098D01*
X492328Y167498D01*
X492535Y167915D01*
X492714Y168348D01*
X492865Y168798D01*
X492989Y169263D01*
X493086Y169746D01*
X493154Y170244D01*
X493196Y170759D01*
X493209Y171290D01*
X493192Y171880D01*
X493140Y172442D01*
X493054Y172976D01*
X492933Y173481D01*
X492778Y173958D01*
X492588Y174406D01*
X492364Y174826D01*
X492105Y175217D01*
X491815Y175585D01*
X491497Y175938D01*
X491151Y176274D01*
X490777Y176593D01*
X490375Y176896D01*
X489945Y177183D01*
X489487Y177453D01*
X489002Y177706D01*
X488490Y177947D01*
X487954Y178178D01*
X487394Y178398D01*
X486810Y178609D01*
X486202Y178810D01*
X485570Y179002D01*
X484913Y179183D01*
X484233Y179354D01*
X481314Y180047D01*
X478097Y180792D01*
X476677Y181116D01*
X475345Y181441D01*
X474102Y181765D01*
X472946Y182089D01*
X471879Y182414D01*
X470901Y182738D01*
X470010Y183062D01*
X469208Y183387D01*
X468469Y183716D01*
X467771Y184054D01*
X467113Y184402D01*
X466495Y184759D01*
X465916Y185125D01*
X465378Y185501D01*
X464880Y185885D01*
X464421Y186280D01*
X463996Y186687D01*
X463596Y187111D01*
X463222Y187553D01*
X462874Y188011D01*
X462552Y188486D01*
X462255Y188979D01*
X461984Y189488D01*
X461739Y190014D01*
X461521Y190559D01*
X461332Y191123D01*
X461173Y191707D01*
X461042Y192311D01*
X460940Y192934D01*
X460868Y193578D01*
X460824Y194240D01*
X460810Y194923D01*
X460829Y195705D01*
X460886Y196464D01*
X460980Y197201D01*
X461113Y197915D01*
X461284Y198606D01*
X461493Y199274D01*
X461739Y199919D01*
X462024Y200542D01*
X462346Y201142D01*
X462707Y201720D01*
X463105Y202274D01*
X463541Y202806D01*
X464016Y203315D01*
X464528Y203802D01*
X465078Y204265D01*
X465666Y204706D01*
X466290Y205122D01*
X466946Y205512D01*
X467635Y205874D01*
X468356Y206210D01*
X469111Y206518D01*
X469898Y206800D01*
X470718Y207055D01*
X471570Y207283D01*
X472455Y207485D01*
X473374Y207659D01*
X474324Y207807D01*
X475308Y207928D01*
X476324Y208022D01*
X477373Y208089D01*
X478455Y208129D01*
X479569Y208143D01*
X480606Y208132D01*
X481611Y208102D01*
X482586Y208052D01*
X483529Y207981D01*
X484442Y207891D01*
X485324Y207780D01*
X486174Y207649D01*
X486994Y207498D01*
X487783Y207327D01*
X488541Y207136D01*
X489268Y206924D01*
X489964Y206693D01*
X490629Y206441D01*
X491263Y206169D01*
X491866Y205877D01*
X492438Y205565D01*
X492984Y205229D01*
X493510Y204864D01*
X494014Y204471D01*
X494498Y204050D01*
X494961Y203600D01*
X495403Y203122D01*
X495825Y202616D01*
X496225Y202081D01*
X496605Y201518D01*
X496964Y200926D01*
X497302Y200306D01*
X497619Y199658D01*
X497915Y198981D01*
X498191Y198276D01*
X498446Y197543D01*
X498680Y196782D01*
X492087Y195624D01*
X491944Y196107D01*
X491785Y196573D01*
X491611Y197021D01*
X491421Y197453D01*
X491216Y197868D01*
X490996Y198267D01*
X490760Y198648D01*
X490509Y199013D01*
X490243Y199360D01*
X489962Y199691D01*
X489665Y200005D01*
X489352Y200302D01*
X489025Y200583D01*
X488682Y200846D01*
X488323Y201093D01*
X487950Y201322D01*
X487559Y201537D01*
X487150Y201737D01*
X486723Y201924D01*
X486278Y202097D01*
X485814Y202256D01*
X485331Y202401D01*
X484831Y202533D01*
X484312Y202651D01*
X483774Y202754D01*
X483219Y202844D01*
X482645Y202920D01*
X482052Y202983D01*
X481442Y203031D01*
X480812Y203066D01*
X480165Y203086D01*
X479499Y203093D01*
X478769Y203086D01*
X478061Y203063D01*
X477376Y203024D01*
X476712Y202970D01*
X476069Y202901D01*
X475449Y202817D01*
X474851Y202717D01*
X474275Y202602D01*
X473720Y202472D01*
X473188Y202326D01*
X472677Y202165D01*
X472188Y201989D01*
X471721Y201797D01*
X471276Y201590D01*
X470854Y201367D01*
X470452Y201130D01*
X470075Y200877D01*
X469721Y200609D01*
X469392Y200325D01*
X469087Y200027D01*
X468807Y199714D01*
X468551Y199386D01*
X468319Y199042D01*
X468112Y198684D01*
X467929Y198310D01*
X467771Y197922D01*
X467636Y197518D01*
X467527Y197099D01*
X467441Y196666D01*
X467380Y196217D01*
X467344Y195753D01*
X467332Y195274D01*
X467351Y194716D01*
X467407Y194183D01*
X467502Y193675D01*
X467634Y193192D01*
X467804Y192733D01*
X468012Y192299D01*
X468258Y191889D01*
X468541Y191504D01*
X468861Y191139D01*
X469213Y190788D01*
X469599Y190451D01*
X470019Y190128D01*
X470471Y189820D01*
X470958Y189525D01*
X471477Y189245D01*
X472030Y188980D01*
X472671Y188714D01*
X473453Y188433D01*
X474376Y188137D01*
X475440Y187827D01*
X476646Y187502D01*
X477994Y187162D01*
X479482Y186807D01*
X481112Y186437D01*
X485653Y185368D01*
X486772Y185083D01*
X487866Y184772D01*
X488937Y184434D01*
X489983Y184071D01*
X491001Y183677D01*
X491987Y183251D01*
X492939Y182792D01*
X493858Y182300D01*
X494302Y182038D01*
X494731Y181763D01*
X495146Y181473D01*
X495546Y181169D01*
X495931Y180851D01*
X496301Y180518D01*
X496656Y180171D01*
X496996Y179810D01*
X497321Y179434D01*
X497626Y179041D01*
X497914Y178632D01*
X498184Y178206D01*
X498436Y177764D01*
X498670Y177305D01*
X498885Y176830D01*
X499083Y176339D01*
X499259Y175828D01*
X499413Y175296D01*
X499542Y174741D01*
X499648Y174165D01*
X499731Y173567D01*
X499790Y172946D01*
X499825Y172304D01*
X499837Y171640D01*
X499816Y170798D01*
X499753Y169979D01*
X499649Y169185D01*
X499502Y168414D01*
X499314Y167668D01*
X499085Y166946D01*
X498813Y166248D01*
X498500Y165574D01*
X498145Y164924D01*
X497748Y164298D01*
X497309Y163697D01*
X496829Y163119D01*
X496307Y162566D01*
X495743Y162037D01*
X495137Y161532D01*
X494489Y161051D01*
X493804Y160596D01*
X493084Y160171D01*
X492331Y159776D01*
X491543Y159409D01*
X490721Y159072D01*
X489865Y158764D01*
X488975Y158486D01*
X488051Y158237D01*
X487092Y158017D01*
X486100Y157826D01*
X485073Y157665D01*
X484013Y157533D01*
X482918Y157431D01*
X481789Y157357D01*
X480626Y157313D01*
X479429Y157299D01*
G37*
G36*
X622313Y157299D02*
X621460Y157311D01*
X620627Y157346D01*
X619816Y157405D01*
X619025Y157487D01*
X618256Y157593D01*
X617507Y157723D01*
X616778Y157876D01*
X616071Y158053D01*
X615385Y158253D01*
X614719Y158477D01*
X614074Y158724D01*
X613450Y158995D01*
X612847Y159289D01*
X612264Y159607D01*
X611703Y159949D01*
X611162Y160314D01*
X610644Y160702D01*
X610150Y161110D01*
X609681Y161540D01*
X609236Y161991D01*
X608815Y162463D01*
X608419Y162956D01*
X608047Y163470D01*
X607699Y164005D01*
X607376Y164561D01*
X607078Y165138D01*
X606803Y165737D01*
X606553Y166356D01*
X606328Y166997D01*
X606126Y167659D01*
X605950Y168341D01*
X605797Y169045D01*
X612179Y169782D01*
X612310Y169331D01*
X612453Y168894D01*
X612609Y168472D01*
X612777Y168064D01*
X612957Y167670D01*
X613149Y167291D01*
X613354Y166926D01*
X613571Y166576D01*
X613800Y166239D01*
X614041Y165917D01*
X614295Y165609D01*
X614561Y165316D01*
X614839Y165037D01*
X615129Y164772D01*
X615432Y164522D01*
X615747Y164285D01*
X616074Y164063D01*
X616413Y163856D01*
X616765Y163663D01*
X617129Y163484D01*
X617505Y163319D01*
X617894Y163169D01*
X618295Y163033D01*
X618708Y162911D01*
X619133Y162804D01*
X619570Y162711D01*
X620020Y162632D01*
X620482Y162568D01*
X620956Y162518D01*
X621443Y162482D01*
X621942Y162460D01*
X622453Y162453D01*
X623080Y162465D01*
X623689Y162501D01*
X624282Y162561D01*
X624857Y162645D01*
X625415Y162753D01*
X625956Y162885D01*
X626479Y163040D01*
X626985Y163220D01*
X627474Y163424D01*
X627945Y163652D01*
X628400Y163903D01*
X628837Y164179D01*
X629257Y164479D01*
X629659Y164802D01*
X630045Y165150D01*
X630413Y165521D01*
X630761Y165914D01*
X631086Y166324D01*
X631390Y166753D01*
X631671Y167199D01*
X631929Y167663D01*
X632165Y168145D01*
X632378Y168646D01*
X632569Y169164D01*
X632738Y169700D01*
X632884Y170254D01*
X633007Y170826D01*
X633108Y171416D01*
X633187Y172023D01*
X633243Y172649D01*
X633277Y173293D01*
X633288Y173954D01*
X633277Y174530D01*
X633243Y175092D01*
X633186Y175640D01*
X633107Y176174D01*
X633005Y176695D01*
X632881Y177201D01*
X632734Y177693D01*
X632565Y178171D01*
X632373Y178635D01*
X632158Y179085D01*
X631921Y179522D01*
X631661Y179944D01*
X631378Y180352D01*
X631073Y180747D01*
X630745Y181127D01*
X630395Y181493D01*
X630026Y181842D01*
X629640Y182167D01*
X629239Y182471D01*
X628823Y182751D01*
X628390Y183010D01*
X627942Y183245D01*
X627478Y183459D01*
X626998Y183650D01*
X626503Y183818D01*
X625991Y183964D01*
X625464Y184088D01*
X624922Y184189D01*
X624363Y184268D01*
X623789Y184324D01*
X623199Y184357D01*
X622593Y184369D01*
X621959Y184356D01*
X621335Y184318D01*
X620723Y184255D01*
X620121Y184167D01*
X619530Y184054D01*
X618951Y183915D01*
X618382Y183751D01*
X617824Y183562D01*
X617272Y183343D01*
X616720Y183089D01*
X616168Y182800D01*
X615615Y182475D01*
X615063Y182116D01*
X614511Y181721D01*
X613958Y181292D01*
X613406Y180827D01*
X607235Y180827D01*
X608883Y207406D01*
X636970Y207406D01*
X636970Y202041D01*
X614633Y202041D01*
X613687Y186367D01*
X614207Y186749D01*
X614744Y187107D01*
X615295Y187440D01*
X615863Y187748D01*
X616446Y188032D01*
X617045Y188290D01*
X617659Y188525D01*
X618289Y188734D01*
X618935Y188919D01*
X619596Y189079D01*
X620272Y189215D01*
X620965Y189326D01*
X621673Y189412D01*
X622396Y189474D01*
X623136Y189511D01*
X623891Y189523D01*
X624791Y189506D01*
X625668Y189456D01*
X626521Y189373D01*
X627352Y189256D01*
X628160Y189105D01*
X628944Y188922D01*
X629705Y188704D01*
X630443Y188454D01*
X631158Y188170D01*
X631850Y187852D01*
X632519Y187501D01*
X633164Y187117D01*
X633786Y186699D01*
X634386Y186248D01*
X634962Y185763D01*
X635515Y185245D01*
X636039Y184700D01*
X636529Y184135D01*
X636986Y183550D01*
X637409Y182944D01*
X637798Y182318D01*
X638153Y181672D01*
X638475Y181005D01*
X638762Y180319D01*
X639016Y179612D01*
X639236Y178884D01*
X639422Y178137D01*
X639574Y177369D01*
X639693Y176581D01*
X639777Y175772D01*
X639828Y174944D01*
X639845Y174095D01*
X639827Y173130D01*
X639772Y172192D01*
X639682Y171280D01*
X639555Y170393D01*
X639391Y169533D01*
X639192Y168699D01*
X638956Y167890D01*
X638683Y167108D01*
X638375Y166352D01*
X638030Y165622D01*
X637649Y164917D01*
X637232Y164239D01*
X636778Y163587D01*
X636288Y162961D01*
X635762Y162361D01*
X635199Y161787D01*
X634604Y161243D01*
X633981Y160735D01*
X633330Y160262D01*
X632651Y159823D01*
X631944Y159420D01*
X631209Y159052D01*
X630446Y158719D01*
X629654Y158421D01*
X628835Y158158D01*
X627987Y157930D01*
X627112Y157737D01*
X626208Y157579D01*
X625276Y157457D01*
X624317Y157369D01*
X623329Y157316D01*
X622313Y157299D01*
G37*
G36*
X651871Y158000D02*
X644472Y158000D01*
X663267Y183667D01*
X645910Y207406D01*
X653309Y207406D01*
X667054Y188015D01*
X680414Y207406D01*
X687812Y207406D01*
X670911Y183913D01*
X689250Y158000D01*
X681851Y158000D01*
X667019Y179600D01*
X651871Y158000D01*
G37*
G36*
X211646Y101413D02*
X211190Y101426D01*
X210757Y101465D01*
X210347Y101531D01*
X209961Y101624D01*
X209599Y101743D01*
X209261Y101888D01*
X208946Y102060D01*
X208655Y102258D01*
X208390Y102482D01*
X208154Y102731D01*
X207945Y103006D01*
X207765Y103305D01*
X207613Y103631D01*
X207490Y103981D01*
X207395Y104357D01*
X207328Y104758D01*
X208957Y104907D01*
X209005Y104642D01*
X209068Y104394D01*
X209148Y104163D01*
X209244Y103949D01*
X209356Y103752D01*
X209483Y103573D01*
X209627Y103410D01*
X209787Y103265D01*
X209963Y103137D01*
X210156Y103025D01*
X210364Y102931D01*
X210588Y102854D01*
X210829Y102794D01*
X211085Y102752D01*
X211358Y102726D01*
X211646Y102718D01*
X211936Y102727D01*
X212210Y102754D01*
X212468Y102800D01*
X212709Y102864D01*
X212935Y102947D01*
X213145Y103048D01*
X213339Y103167D01*
X213516Y103304D01*
X213675Y103460D01*
X213813Y103633D01*
X213930Y103825D01*
X214025Y104033D01*
X214100Y104260D01*
X214153Y104505D01*
X214184Y104767D01*
X214195Y105047D01*
X214183Y105292D01*
X214147Y105523D01*
X214086Y105741D01*
X214001Y105944D01*
X213892Y106134D01*
X213759Y106309D01*
X213602Y106471D01*
X213420Y106619D01*
X213215Y106752D01*
X212989Y106867D01*
X212742Y106964D01*
X212473Y107043D01*
X212182Y107105D01*
X211870Y107149D01*
X211537Y107176D01*
X211182Y107184D01*
X210289Y107184D01*
X210289Y108551D01*
X211147Y108551D01*
X211462Y108560D01*
X211759Y108586D01*
X212037Y108630D01*
X212298Y108692D01*
X212540Y108771D01*
X212764Y108868D01*
X212970Y108983D01*
X213157Y109116D01*
X213324Y109264D01*
X213469Y109425D01*
X213592Y109600D01*
X213693Y109789D01*
X213771Y109991D01*
X213826Y110207D01*
X213860Y110436D01*
X213871Y110679D01*
X213862Y110920D01*
X213835Y111148D01*
X213789Y111363D01*
X213725Y111565D01*
X213643Y111754D01*
X213543Y111930D01*
X213425Y112093D01*
X213289Y112242D01*
X213134Y112377D01*
X212962Y112493D01*
X212772Y112592D01*
X212565Y112673D01*
X212340Y112735D01*
X212097Y112780D01*
X211837Y112807D01*
X211559Y112816D01*
X211304Y112808D01*
X211063Y112783D01*
X210833Y112741D01*
X210616Y112683D01*
X210412Y112607D01*
X210219Y112516D01*
X210040Y112407D01*
X209873Y112282D01*
X209720Y112141D01*
X209585Y111987D01*
X209466Y111820D01*
X209364Y111638D01*
X209278Y111443D01*
X209210Y111234D01*
X209159Y111012D01*
X209124Y110775D01*
X207539Y110898D01*
X207597Y111266D01*
X207683Y111614D01*
X207797Y111941D01*
X207940Y112247D01*
X208112Y112532D01*
X208311Y112796D01*
X208539Y113040D01*
X208795Y113263D01*
X209075Y113462D01*
X209375Y113634D01*
X209694Y113781D01*
X210031Y113900D01*
X210389Y113993D01*
X210765Y114059D01*
X211161Y114099D01*
X211576Y114112D01*
X212028Y114099D01*
X212453Y114058D01*
X212852Y113991D01*
X213226Y113897D01*
X213574Y113775D01*
X213896Y113627D01*
X214192Y113452D01*
X214462Y113250D01*
X214703Y113023D01*
X214912Y112776D01*
X215089Y112507D01*
X215234Y112217D01*
X215347Y111906D01*
X215427Y111574D01*
X215475Y111220D01*
X215491Y110845D01*
X215481Y110557D01*
X215450Y110282D01*
X215398Y110021D01*
X215326Y109774D01*
X215233Y109540D01*
X215119Y109321D01*
X214985Y109115D01*
X214830Y108923D01*
X214655Y108745D01*
X214462Y108583D01*
X214250Y108435D01*
X214019Y108302D01*
X213769Y108184D01*
X213501Y108081D01*
X213213Y107993D01*
X212908Y107920D01*
X212908Y107885D01*
X213244Y107838D01*
X213561Y107771D01*
X213859Y107685D01*
X214138Y107579D01*
X214398Y107453D01*
X214638Y107307D01*
X214860Y107142D01*
X215062Y106957D01*
X215243Y106755D01*
X215399Y106542D01*
X215532Y106315D01*
X215640Y106076D01*
X215725Y105825D01*
X215785Y105561D01*
X215821Y105284D01*
X215833Y104995D01*
X215816Y104580D01*
X215765Y104189D01*
X215680Y103822D01*
X215561Y103480D01*
X215409Y103161D01*
X215222Y102866D01*
X215001Y102596D01*
X214747Y102350D01*
X214461Y102130D01*
X214146Y101940D01*
X213802Y101779D01*
X213429Y101647D01*
X213027Y101544D01*
X212596Y101471D01*
X212135Y101427D01*
X211646Y101413D01*
G37*
G36*
X233584Y101413D02*
X233127Y101426D01*
X232694Y101465D01*
X232285Y101531D01*
X231899Y101624D01*
X231537Y101743D01*
X231198Y101888D01*
X230884Y102060D01*
X230593Y102258D01*
X230328Y102482D01*
X230091Y102731D01*
X229883Y103006D01*
X229703Y103305D01*
X229551Y103631D01*
X229428Y103981D01*
X229333Y104357D01*
X229266Y104758D01*
X230895Y104907D01*
X230942Y104642D01*
X231006Y104394D01*
X231086Y104163D01*
X231181Y103949D01*
X231293Y103752D01*
X231421Y103573D01*
X231565Y103410D01*
X231725Y103265D01*
X231901Y103137D01*
X232093Y103025D01*
X232301Y102931D01*
X232526Y102854D01*
X232766Y102794D01*
X233023Y102752D01*
X233295Y102726D01*
X233584Y102718D01*
X233874Y102727D01*
X234147Y102754D01*
X234405Y102800D01*
X234647Y102864D01*
X234873Y102947D01*
X235082Y103048D01*
X235276Y103167D01*
X235454Y103304D01*
X235613Y103460D01*
X235751Y103633D01*
X235867Y103825D01*
X235963Y104033D01*
X236037Y104260D01*
X236090Y104505D01*
X236122Y104767D01*
X236133Y105047D01*
X236120Y105292D01*
X236084Y105523D01*
X236024Y105741D01*
X235939Y105944D01*
X235830Y106134D01*
X235697Y106309D01*
X235539Y106471D01*
X235357Y106619D01*
X235153Y106752D01*
X234927Y106867D01*
X234679Y106964D01*
X234410Y107043D01*
X234120Y107105D01*
X233808Y107149D01*
X233475Y107176D01*
X233120Y107184D01*
X232226Y107184D01*
X232226Y108551D01*
X233085Y108551D01*
X233400Y108560D01*
X233696Y108586D01*
X233975Y108630D01*
X234235Y108692D01*
X234477Y108771D01*
X234701Y108868D01*
X234907Y108983D01*
X235095Y109116D01*
X235262Y109264D01*
X235407Y109425D01*
X235530Y109600D01*
X235630Y109789D01*
X235708Y109991D01*
X235764Y110207D01*
X235797Y110436D01*
X235808Y110679D01*
X235799Y110920D01*
X235772Y111148D01*
X235727Y111363D01*
X235663Y111565D01*
X235581Y111754D01*
X235481Y111930D01*
X235363Y112093D01*
X235226Y112242D01*
X235072Y112377D01*
X234900Y112493D01*
X234710Y112592D01*
X234502Y112673D01*
X234277Y112735D01*
X234035Y112780D01*
X233774Y112807D01*
X233496Y112816D01*
X233242Y112808D01*
X233000Y112783D01*
X232771Y112741D01*
X232554Y112683D01*
X232349Y112607D01*
X232157Y112516D01*
X231977Y112407D01*
X231810Y112282D01*
X231658Y112141D01*
X231522Y111987D01*
X231403Y111820D01*
X231301Y111638D01*
X231216Y111443D01*
X231148Y111234D01*
X231096Y111012D01*
X231061Y110775D01*
X229476Y110898D01*
X229534Y111266D01*
X229620Y111614D01*
X229735Y111941D01*
X229878Y112247D01*
X230049Y112532D01*
X230249Y112796D01*
X230477Y113040D01*
X230733Y113263D01*
X231013Y113462D01*
X231312Y113634D01*
X231631Y113781D01*
X231969Y113900D01*
X232326Y113993D01*
X232703Y114059D01*
X233099Y114099D01*
X233514Y114112D01*
X233965Y114099D01*
X234390Y114058D01*
X234790Y113991D01*
X235164Y113897D01*
X235511Y113775D01*
X235833Y113627D01*
X236129Y113452D01*
X236400Y113250D01*
X236641Y113023D01*
X236850Y112776D01*
X237027Y112507D01*
X237172Y112217D01*
X237284Y111906D01*
X237364Y111574D01*
X237413Y111220D01*
X237429Y110845D01*
X237418Y110557D01*
X237387Y110282D01*
X237336Y110021D01*
X237264Y109774D01*
X237171Y109540D01*
X237057Y109321D01*
X236923Y109115D01*
X236768Y108923D01*
X236593Y108745D01*
X236399Y108583D01*
X236187Y108435D01*
X235956Y108302D01*
X235707Y108184D01*
X235438Y108081D01*
X235151Y107993D01*
X234845Y107920D01*
X234845Y107885D01*
X235181Y107838D01*
X235499Y107771D01*
X235797Y107685D01*
X236076Y107579D01*
X236335Y107453D01*
X236576Y107307D01*
X236797Y107142D01*
X237000Y106957D01*
X237180Y106755D01*
X237337Y106542D01*
X237469Y106315D01*
X237578Y106076D01*
X237662Y105825D01*
X237722Y105561D01*
X237758Y105284D01*
X237770Y104995D01*
X237753Y104580D01*
X237703Y104189D01*
X237618Y103822D01*
X237499Y103480D01*
X237346Y103161D01*
X237159Y102866D01*
X236939Y102596D01*
X236684Y102350D01*
X236398Y102130D01*
X236083Y101940D01*
X235739Y101779D01*
X235366Y101647D01*
X234964Y101544D01*
X234533Y101471D01*
X234073Y101427D01*
X233584Y101413D01*
G37*
G36*
X223463Y101588D02*
X221729Y101588D01*
X216693Y113928D01*
X218453Y113928D01*
X221869Y105240D01*
X222605Y103059D01*
X223341Y105240D01*
X226739Y113928D01*
X228499Y113928D01*
X223463Y101588D01*
G37*
G36*
X228543Y126988D02*
X227054Y126988D01*
X227054Y139328D01*
X228999Y139328D01*
X235673Y128748D01*
X235594Y130228D01*
X235567Y131236D01*
X235567Y139328D01*
X237074Y139328D01*
X237074Y126988D01*
X235059Y126988D01*
X228455Y137498D01*
X228499Y136648D01*
X228543Y135186D01*
X228543Y126988D01*
G37*
G36*
X224807Y126988D02*
X215085Y126988D01*
X215085Y139328D01*
X224448Y139328D01*
X224448Y137962D01*
X216758Y137962D01*
X216758Y134003D01*
X223923Y134003D01*
X223923Y132654D01*
X216758Y132654D01*
X216758Y128354D01*
X224807Y128354D01*
X224807Y126988D01*
G37*
G36*
X231670Y152388D02*
X227054Y152388D01*
X227054Y164728D01*
X231136Y164728D01*
X231522Y164722D01*
X231897Y164704D01*
X232261Y164673D01*
X232614Y164630D01*
X232955Y164575D01*
X233286Y164507D01*
X233605Y164428D01*
X233913Y164335D01*
X234210Y164231D01*
X234496Y164114D01*
X234770Y163985D01*
X235033Y163844D01*
X235286Y163691D01*
X235526Y163525D01*
X235756Y163347D01*
X235975Y163156D01*
X236181Y162955D01*
X236374Y162743D01*
X236554Y162520D01*
X236720Y162287D01*
X236873Y162044D01*
X237013Y161791D01*
X237139Y161527D01*
X237252Y161252D01*
X237352Y160968D01*
X237439Y160673D01*
X237512Y160367D01*
X237572Y160052D01*
X237618Y159726D01*
X237652Y159389D01*
X237672Y159042D01*
X237678Y158685D01*
X237667Y158215D01*
X237632Y157760D01*
X237574Y157320D01*
X237492Y156895D01*
X237387Y156485D01*
X237259Y156090D01*
X237108Y155709D01*
X236934Y155344D01*
X236738Y154996D01*
X236523Y154670D01*
X236288Y154364D01*
X236034Y154079D01*
X235760Y153815D01*
X235467Y153573D01*
X235155Y153351D01*
X234823Y153150D01*
X234475Y152971D01*
X234114Y152816D01*
X233739Y152685D01*
X233352Y152578D01*
X232951Y152495D01*
X232537Y152435D01*
X232110Y152400D01*
X231670Y152388D01*
G37*
%LPC*%
G36*
X231477Y153728D02*
X231811Y153737D01*
X232135Y153765D01*
X232449Y153811D01*
X232753Y153877D01*
X233046Y153960D01*
X233329Y154063D01*
X233601Y154184D01*
X233864Y154323D01*
X234114Y154480D01*
X234349Y154654D01*
X234569Y154844D01*
X234774Y155050D01*
X234964Y155273D01*
X235139Y155512D01*
X235299Y155768D01*
X235445Y156040D01*
X235574Y156327D01*
X235686Y156626D01*
X235781Y156937D01*
X235859Y157262D01*
X235919Y157599D01*
X235962Y157948D01*
X235988Y158310D01*
X235997Y158685D01*
X235977Y159242D01*
X235918Y159764D01*
X235820Y160253D01*
X235682Y160707D01*
X235506Y161128D01*
X235290Y161514D01*
X235034Y161866D01*
X234740Y162184D01*
X234408Y162466D01*
X234041Y162711D01*
X233639Y162918D01*
X233202Y163087D01*
X232729Y163219D01*
X232221Y163313D01*
X231679Y163370D01*
X231101Y163388D01*
X228727Y163388D01*
X228727Y153728D01*
X231477Y153728D01*
G37*
%LPD*%
G36*
X215574Y152388D02*
X214085Y152388D01*
X214085Y164728D01*
X216030Y164728D01*
X222704Y154148D01*
X222625Y155628D01*
X222599Y156636D01*
X222599Y164728D01*
X224105Y164728D01*
X224105Y152388D01*
X222091Y152388D01*
X215487Y162898D01*
X215531Y162048D01*
X215574Y160586D01*
X215574Y152388D01*
G37*
G36*
X205797Y152213D02*
X205322Y152225D01*
X204863Y152261D01*
X204421Y152321D01*
X203995Y152405D01*
X203586Y152514D01*
X203194Y152646D01*
X202819Y152803D01*
X202460Y152983D01*
X202120Y153187D01*
X201801Y153411D01*
X201502Y153657D01*
X201224Y153924D01*
X200967Y154212D01*
X200730Y154521D01*
X200514Y154852D01*
X200319Y155204D01*
X200145Y155574D01*
X199995Y155960D01*
X199868Y156363D01*
X199764Y156781D01*
X199683Y157216D01*
X199625Y157666D01*
X199590Y158133D01*
X199579Y158615D01*
X199585Y158985D01*
X199604Y159345D01*
X199635Y159694D01*
X199679Y160032D01*
X199736Y160360D01*
X199805Y160677D01*
X199887Y160984D01*
X199981Y161280D01*
X200088Y161565D01*
X200208Y161840D01*
X200340Y162104D01*
X200485Y162358D01*
X200642Y162601D01*
X200812Y162833D01*
X201190Y163266D01*
X201613Y163652D01*
X201840Y163825D01*
X202077Y163986D01*
X202325Y164134D01*
X202582Y164269D01*
X202850Y164391D01*
X203128Y164501D01*
X203416Y164597D01*
X203714Y164681D01*
X204023Y164752D01*
X204342Y164809D01*
X204670Y164854D01*
X205010Y164887D01*
X205359Y164906D01*
X205718Y164912D01*
X206219Y164902D01*
X206695Y164869D01*
X207147Y164815D01*
X207575Y164739D01*
X207979Y164642D01*
X208359Y164523D01*
X208715Y164383D01*
X209047Y164220D01*
X209357Y164034D01*
X209649Y163822D01*
X209923Y163584D01*
X210179Y163321D01*
X210416Y163031D01*
X210635Y162715D01*
X210835Y162373D01*
X211017Y162005D01*
X209423Y161532D01*
X209286Y161785D01*
X209136Y162022D01*
X208973Y162240D01*
X208798Y162440D01*
X208611Y162623D01*
X208411Y162788D01*
X208198Y162935D01*
X207974Y163064D01*
X207736Y163177D01*
X207483Y163275D01*
X207217Y163358D01*
X206937Y163426D01*
X206642Y163478D01*
X206334Y163516D01*
X206011Y163539D01*
X205675Y163546D01*
X205156Y163526D01*
X204669Y163465D01*
X204213Y163364D01*
X203789Y163223D01*
X203397Y163041D01*
X203035Y162819D01*
X202706Y162557D01*
X202408Y162254D01*
X202143Y161915D01*
X201913Y161542D01*
X201719Y161137D01*
X201560Y160698D01*
X201437Y160227D01*
X201348Y159723D01*
X201295Y159185D01*
X201278Y158615D01*
X201296Y158046D01*
X201353Y157507D01*
X201446Y157000D01*
X201578Y156523D01*
X201746Y156077D01*
X201953Y155661D01*
X202196Y155277D01*
X202478Y154923D01*
X202792Y154606D01*
X203135Y154331D01*
X203507Y154099D01*
X203907Y153908D01*
X204337Y153760D01*
X204795Y153655D01*
X205282Y153591D01*
X205797Y153570D01*
X206391Y153593D01*
X206965Y153662D01*
X207519Y153777D01*
X208052Y153938D01*
X208551Y154138D01*
X208999Y154371D01*
X209398Y154638D01*
X209747Y154936D01*
X209747Y157161D01*
X206060Y157161D01*
X206060Y158562D01*
X211289Y158562D01*
X211289Y154306D01*
X211037Y154063D01*
X210771Y153835D01*
X210491Y153620D01*
X210197Y153420D01*
X209890Y153234D01*
X209569Y153062D01*
X209233Y152904D01*
X208885Y152760D01*
X208525Y152632D01*
X208158Y152520D01*
X207783Y152426D01*
X207401Y152349D01*
X207011Y152289D01*
X206614Y152247D01*
X206209Y152221D01*
X205797Y152213D01*
G37*
G36*
X231670Y253988D02*
X227054Y253988D01*
X227054Y266328D01*
X231136Y266328D01*
X231522Y266322D01*
X231897Y266304D01*
X232261Y266273D01*
X232614Y266230D01*
X232955Y266175D01*
X233286Y266107D01*
X233605Y266028D01*
X233913Y265935D01*
X234210Y265831D01*
X234496Y265714D01*
X234770Y265585D01*
X235033Y265444D01*
X235286Y265291D01*
X235526Y265125D01*
X235756Y264947D01*
X235975Y264756D01*
X236181Y264555D01*
X236374Y264343D01*
X236554Y264120D01*
X236720Y263887D01*
X236873Y263644D01*
X237013Y263391D01*
X237139Y263127D01*
X237252Y262852D01*
X237352Y262568D01*
X237439Y262273D01*
X237512Y261967D01*
X237572Y261652D01*
X237618Y261326D01*
X237652Y260989D01*
X237672Y260642D01*
X237678Y260285D01*
X237667Y259815D01*
X237632Y259360D01*
X237574Y258920D01*
X237492Y258495D01*
X237387Y258085D01*
X237259Y257690D01*
X237108Y257309D01*
X236934Y256944D01*
X236738Y256596D01*
X236523Y256270D01*
X236288Y255964D01*
X236034Y255679D01*
X235760Y255415D01*
X235467Y255173D01*
X235155Y254951D01*
X234823Y254750D01*
X234475Y254571D01*
X234114Y254416D01*
X233739Y254285D01*
X233352Y254178D01*
X232951Y254095D01*
X232537Y254035D01*
X232110Y254000D01*
X231670Y253988D01*
G37*
%LPC*%
G36*
X231477Y255328D02*
X231811Y255337D01*
X232135Y255365D01*
X232449Y255411D01*
X232753Y255477D01*
X233046Y255560D01*
X233329Y255663D01*
X233601Y255784D01*
X233864Y255923D01*
X234114Y256080D01*
X234349Y256254D01*
X234569Y256444D01*
X234774Y256650D01*
X234964Y256873D01*
X235139Y257112D01*
X235299Y257368D01*
X235445Y257640D01*
X235574Y257927D01*
X235686Y258226D01*
X235781Y258537D01*
X235859Y258862D01*
X235919Y259199D01*
X235962Y259548D01*
X235988Y259910D01*
X235997Y260285D01*
X235977Y260842D01*
X235918Y261364D01*
X235820Y261853D01*
X235682Y262307D01*
X235506Y262728D01*
X235290Y263114D01*
X235034Y263466D01*
X234740Y263784D01*
X234408Y264066D01*
X234041Y264311D01*
X233639Y264518D01*
X233202Y264687D01*
X232729Y264819D01*
X232221Y264913D01*
X231679Y264970D01*
X231101Y264988D01*
X228727Y264988D01*
X228727Y255328D01*
X231477Y255328D01*
G37*
%LPD*%
G36*
X215574Y253988D02*
X214085Y253988D01*
X214085Y266328D01*
X216030Y266328D01*
X222704Y255748D01*
X222625Y257228D01*
X222599Y258236D01*
X222599Y266328D01*
X224105Y266328D01*
X224105Y253988D01*
X222091Y253988D01*
X215487Y264498D01*
X215531Y263648D01*
X215574Y262186D01*
X215574Y253988D01*
G37*
G36*
X205797Y253813D02*
X205322Y253825D01*
X204863Y253861D01*
X204421Y253921D01*
X203995Y254005D01*
X203586Y254114D01*
X203194Y254246D01*
X202819Y254403D01*
X202460Y254583D01*
X202120Y254787D01*
X201801Y255011D01*
X201502Y255257D01*
X201224Y255524D01*
X200967Y255812D01*
X200730Y256121D01*
X200514Y256452D01*
X200319Y256804D01*
X200145Y257174D01*
X199995Y257560D01*
X199868Y257963D01*
X199764Y258381D01*
X199683Y258816D01*
X199625Y259266D01*
X199590Y259733D01*
X199579Y260215D01*
X199585Y260585D01*
X199604Y260945D01*
X199635Y261294D01*
X199679Y261632D01*
X199736Y261960D01*
X199805Y262277D01*
X199887Y262584D01*
X199981Y262880D01*
X200088Y263165D01*
X200208Y263440D01*
X200340Y263704D01*
X200485Y263958D01*
X200642Y264201D01*
X200812Y264433D01*
X201190Y264866D01*
X201613Y265252D01*
X201840Y265425D01*
X202077Y265586D01*
X202325Y265734D01*
X202582Y265869D01*
X202850Y265991D01*
X203128Y266101D01*
X203416Y266197D01*
X203714Y266281D01*
X204023Y266352D01*
X204342Y266409D01*
X204670Y266454D01*
X205010Y266487D01*
X205359Y266506D01*
X205718Y266512D01*
X206219Y266502D01*
X206695Y266469D01*
X207147Y266415D01*
X207575Y266339D01*
X207979Y266242D01*
X208359Y266123D01*
X208715Y265983D01*
X209047Y265820D01*
X209357Y265634D01*
X209649Y265422D01*
X209923Y265184D01*
X210179Y264921D01*
X210416Y264631D01*
X210635Y264315D01*
X210835Y263973D01*
X211017Y263605D01*
X209423Y263132D01*
X209286Y263385D01*
X209136Y263622D01*
X208973Y263840D01*
X208798Y264040D01*
X208611Y264223D01*
X208411Y264388D01*
X208198Y264535D01*
X207974Y264664D01*
X207736Y264777D01*
X207483Y264875D01*
X207217Y264958D01*
X206937Y265026D01*
X206642Y265078D01*
X206334Y265116D01*
X206011Y265139D01*
X205675Y265146D01*
X205156Y265126D01*
X204669Y265065D01*
X204213Y264964D01*
X203789Y264823D01*
X203397Y264641D01*
X203035Y264419D01*
X202706Y264157D01*
X202408Y263854D01*
X202143Y263515D01*
X201913Y263142D01*
X201719Y262737D01*
X201560Y262298D01*
X201437Y261827D01*
X201348Y261323D01*
X201295Y260785D01*
X201278Y260215D01*
X201296Y259646D01*
X201353Y259107D01*
X201446Y258600D01*
X201578Y258123D01*
X201746Y257677D01*
X201953Y257261D01*
X202196Y256877D01*
X202478Y256523D01*
X202792Y256206D01*
X203135Y255931D01*
X203507Y255699D01*
X203907Y255508D01*
X204337Y255360D01*
X204795Y255255D01*
X205282Y255191D01*
X205797Y255170D01*
X206391Y255193D01*
X206965Y255262D01*
X207519Y255377D01*
X208052Y255538D01*
X208551Y255738D01*
X208999Y255971D01*
X209398Y256238D01*
X209747Y256536D01*
X209747Y258761D01*
X206060Y258761D01*
X206060Y260162D01*
X211289Y260162D01*
X211289Y255906D01*
X211037Y255663D01*
X210771Y255435D01*
X210491Y255220D01*
X210197Y255020D01*
X209890Y254834D01*
X209569Y254662D01*
X209233Y254504D01*
X208885Y254360D01*
X208525Y254232D01*
X208158Y254120D01*
X207783Y254026D01*
X207401Y253949D01*
X207011Y253889D01*
X206614Y253847D01*
X206209Y253821D01*
X205797Y253813D01*
G37*
G36*
X231670Y203188D02*
X227054Y203188D01*
X227054Y215528D01*
X231136Y215528D01*
X231522Y215522D01*
X231897Y215504D01*
X232261Y215473D01*
X232614Y215430D01*
X232955Y215375D01*
X233286Y215307D01*
X233605Y215228D01*
X233913Y215135D01*
X234210Y215031D01*
X234496Y214914D01*
X234770Y214785D01*
X235033Y214644D01*
X235286Y214491D01*
X235526Y214325D01*
X235756Y214147D01*
X235975Y213956D01*
X236181Y213755D01*
X236374Y213543D01*
X236554Y213320D01*
X236720Y213087D01*
X236873Y212844D01*
X237013Y212591D01*
X237139Y212327D01*
X237252Y212052D01*
X237352Y211768D01*
X237439Y211473D01*
X237512Y211167D01*
X237572Y210852D01*
X237618Y210526D01*
X237652Y210189D01*
X237672Y209842D01*
X237678Y209485D01*
X237667Y209015D01*
X237632Y208560D01*
X237574Y208120D01*
X237492Y207695D01*
X237387Y207285D01*
X237259Y206890D01*
X237108Y206509D01*
X236934Y206144D01*
X236738Y205796D01*
X236523Y205470D01*
X236288Y205164D01*
X236034Y204879D01*
X235760Y204615D01*
X235467Y204373D01*
X235155Y204151D01*
X234823Y203950D01*
X234475Y203771D01*
X234114Y203616D01*
X233739Y203485D01*
X233352Y203378D01*
X232951Y203295D01*
X232537Y203235D01*
X232110Y203200D01*
X231670Y203188D01*
G37*
%LPC*%
G36*
X231477Y204528D02*
X231811Y204537D01*
X232135Y204565D01*
X232449Y204611D01*
X232753Y204677D01*
X233046Y204760D01*
X233329Y204863D01*
X233601Y204984D01*
X233864Y205123D01*
X234114Y205280D01*
X234349Y205454D01*
X234569Y205644D01*
X234774Y205850D01*
X234964Y206073D01*
X235139Y206312D01*
X235299Y206568D01*
X235445Y206840D01*
X235574Y207127D01*
X235686Y207426D01*
X235781Y207737D01*
X235859Y208062D01*
X235919Y208399D01*
X235962Y208748D01*
X235988Y209110D01*
X235997Y209485D01*
X235977Y210042D01*
X235918Y210564D01*
X235820Y211053D01*
X235682Y211507D01*
X235506Y211928D01*
X235290Y212314D01*
X235034Y212666D01*
X234740Y212984D01*
X234408Y213266D01*
X234041Y213511D01*
X233639Y213718D01*
X233202Y213887D01*
X232729Y214019D01*
X232221Y214113D01*
X231679Y214170D01*
X231101Y214188D01*
X228727Y214188D01*
X228727Y204528D01*
X231477Y204528D01*
G37*
%LPD*%
G36*
X215574Y203188D02*
X214085Y203188D01*
X214085Y215528D01*
X216030Y215528D01*
X222704Y204948D01*
X222625Y206428D01*
X222599Y207436D01*
X222599Y215528D01*
X224105Y215528D01*
X224105Y203188D01*
X222091Y203188D01*
X215487Y213698D01*
X215531Y212848D01*
X215574Y211386D01*
X215574Y203188D01*
G37*
G36*
X205797Y203013D02*
X205322Y203025D01*
X204863Y203061D01*
X204421Y203121D01*
X203995Y203205D01*
X203586Y203314D01*
X203194Y203446D01*
X202819Y203603D01*
X202460Y203783D01*
X202120Y203987D01*
X201801Y204211D01*
X201502Y204457D01*
X201224Y204724D01*
X200967Y205012D01*
X200730Y205321D01*
X200514Y205652D01*
X200319Y206004D01*
X200145Y206374D01*
X199995Y206760D01*
X199868Y207163D01*
X199764Y207581D01*
X199683Y208016D01*
X199625Y208466D01*
X199590Y208933D01*
X199579Y209415D01*
X199585Y209785D01*
X199604Y210145D01*
X199635Y210494D01*
X199679Y210832D01*
X199736Y211160D01*
X199805Y211477D01*
X199887Y211784D01*
X199981Y212080D01*
X200088Y212365D01*
X200208Y212640D01*
X200340Y212904D01*
X200485Y213158D01*
X200642Y213401D01*
X200812Y213633D01*
X201190Y214066D01*
X201613Y214452D01*
X201840Y214625D01*
X202077Y214786D01*
X202325Y214934D01*
X202582Y215069D01*
X202850Y215191D01*
X203128Y215301D01*
X203416Y215397D01*
X203714Y215481D01*
X204023Y215552D01*
X204342Y215609D01*
X204670Y215654D01*
X205010Y215687D01*
X205359Y215706D01*
X205718Y215712D01*
X206219Y215702D01*
X206695Y215669D01*
X207147Y215615D01*
X207575Y215539D01*
X207979Y215442D01*
X208359Y215323D01*
X208715Y215183D01*
X209047Y215020D01*
X209357Y214834D01*
X209649Y214622D01*
X209923Y214384D01*
X210179Y214121D01*
X210416Y213831D01*
X210635Y213515D01*
X210835Y213173D01*
X211017Y212805D01*
X209423Y212332D01*
X209286Y212585D01*
X209136Y212822D01*
X208973Y213040D01*
X208798Y213240D01*
X208611Y213423D01*
X208411Y213588D01*
X208198Y213735D01*
X207974Y213864D01*
X207736Y213977D01*
X207483Y214075D01*
X207217Y214158D01*
X206937Y214226D01*
X206642Y214278D01*
X206334Y214316D01*
X206011Y214339D01*
X205675Y214346D01*
X205156Y214326D01*
X204669Y214265D01*
X204213Y214164D01*
X203789Y214023D01*
X203397Y213841D01*
X203035Y213619D01*
X202706Y213357D01*
X202408Y213054D01*
X202143Y212715D01*
X201913Y212342D01*
X201719Y211937D01*
X201560Y211498D01*
X201437Y211027D01*
X201348Y210523D01*
X201295Y209985D01*
X201278Y209415D01*
X201296Y208846D01*
X201353Y208307D01*
X201446Y207800D01*
X201578Y207323D01*
X201746Y206877D01*
X201953Y206461D01*
X202196Y206077D01*
X202478Y205723D01*
X202792Y205406D01*
X203135Y205131D01*
X203507Y204899D01*
X203907Y204708D01*
X204337Y204560D01*
X204795Y204455D01*
X205282Y204391D01*
X205797Y204370D01*
X206391Y204393D01*
X206965Y204462D01*
X207519Y204577D01*
X208052Y204738D01*
X208551Y204938D01*
X208999Y205171D01*
X209398Y205438D01*
X209747Y205736D01*
X209747Y207961D01*
X206060Y207961D01*
X206060Y209362D01*
X211289Y209362D01*
X211289Y205106D01*
X211037Y204863D01*
X210771Y204635D01*
X210491Y204420D01*
X210197Y204220D01*
X209890Y204034D01*
X209569Y203862D01*
X209233Y203704D01*
X208885Y203560D01*
X208525Y203432D01*
X208158Y203320D01*
X207783Y203226D01*
X207401Y203149D01*
X207011Y203089D01*
X206614Y203047D01*
X206209Y203021D01*
X205797Y203013D01*
G37*
G36*
X211470Y228588D02*
X206460Y228588D01*
X206460Y240928D01*
X210945Y240928D01*
X211471Y240917D01*
X211963Y240882D01*
X212421Y240823D01*
X212845Y240741D01*
X213236Y240636D01*
X213592Y240507D01*
X213914Y240355D01*
X214203Y240180D01*
X214457Y239981D01*
X214678Y239758D01*
X214865Y239513D01*
X215017Y239244D01*
X215136Y238951D01*
X215221Y238635D01*
X215272Y238296D01*
X215289Y237933D01*
X215279Y237665D01*
X215251Y237408D01*
X215203Y237161D01*
X215136Y236926D01*
X215049Y236701D01*
X214944Y236488D01*
X214820Y236285D01*
X214676Y236094D01*
X214515Y235915D01*
X214415Y235824D01*
X214338Y235752D01*
X214145Y235604D01*
X213936Y235472D01*
X213711Y235355D01*
X213470Y235253D01*
X213214Y235166D01*
X212942Y235095D01*
X213299Y235042D01*
X213635Y234968D01*
X213950Y234875D01*
X214245Y234761D01*
X214518Y234628D01*
X214769Y234475D01*
X215000Y234303D01*
X215097Y234214D01*
X215210Y234110D01*
X215397Y233901D01*
X215559Y233678D01*
X215696Y233443D01*
X215808Y233194D01*
X215895Y232931D01*
X215957Y232656D01*
X215995Y232367D01*
X216007Y232065D01*
X215988Y231665D01*
X215932Y231287D01*
X215838Y230933D01*
X215707Y230601D01*
X215538Y230292D01*
X215332Y230006D01*
X215088Y229743D01*
X214807Y229503D01*
X214493Y229288D01*
X214149Y229102D01*
X213776Y228945D01*
X213373Y228816D01*
X212941Y228716D01*
X212480Y228645D01*
X211990Y228602D01*
X211470Y228588D01*
G37*
%LPC*%
G36*
X211383Y229928D02*
X211753Y229937D01*
X212097Y229963D01*
X212415Y230008D01*
X212707Y230070D01*
X212974Y230150D01*
X213214Y230248D01*
X213428Y230364D01*
X213616Y230497D01*
X213780Y230648D01*
X213923Y230817D01*
X214043Y231003D01*
X214142Y231206D01*
X214218Y231428D01*
X214273Y231666D01*
X214306Y231922D01*
X214317Y232196D01*
X214305Y232460D01*
X214269Y232707D01*
X214209Y232937D01*
X214125Y233150D01*
X214017Y233346D01*
X213886Y233525D01*
X213730Y233687D01*
X213550Y233832D01*
X213347Y233960D01*
X213119Y234070D01*
X212868Y234164D01*
X212592Y234241D01*
X212293Y234300D01*
X211970Y234343D01*
X211623Y234369D01*
X211251Y234377D01*
X208133Y234377D01*
X208133Y229928D01*
X211383Y229928D01*
G37*
G36*
X210945Y235682D02*
X211269Y235690D01*
X211572Y235714D01*
X211854Y235753D01*
X212115Y235808D01*
X212355Y235879D01*
X212573Y235965D01*
X212770Y236068D01*
X212946Y236186D01*
X213101Y236320D01*
X213235Y236471D01*
X213349Y236639D01*
X213442Y236824D01*
X213514Y237026D01*
X213566Y237244D01*
X213597Y237479D01*
X213607Y237732D01*
X213597Y237972D01*
X213565Y238195D01*
X213511Y238400D01*
X213437Y238588D01*
X213340Y238757D01*
X213223Y238909D01*
X213084Y239043D01*
X212924Y239159D01*
X212744Y239260D01*
X212544Y239347D01*
X212326Y239421D01*
X212088Y239481D01*
X211831Y239528D01*
X211555Y239562D01*
X211259Y239582D01*
X210945Y239588D01*
X208133Y239588D01*
X208133Y235682D01*
X210945Y235682D01*
G37*
%LPD*%
G36*
X218727Y228588D02*
X216993Y228588D01*
X222029Y240928D01*
X223929Y240928D01*
X228887Y228588D01*
X227179Y228588D01*
X225769Y232196D01*
X220146Y232196D01*
X218727Y228588D01*
G37*
%LPC*%
G36*
X225270Y233501D02*
X223684Y237574D01*
X223439Y238218D01*
X223194Y238940D01*
X222957Y239667D01*
X222878Y239422D01*
X222607Y238592D01*
X222230Y237556D01*
X220654Y233501D01*
X225270Y233501D01*
G37*
%LPD*%
G36*
X233889Y228588D02*
X232225Y228588D01*
X232225Y239562D01*
X227986Y239562D01*
X227986Y240928D01*
X238128Y240928D01*
X238128Y239562D01*
X233889Y239562D01*
X233889Y228588D01*
G37*
G36*
X233064Y279388D02*
X228054Y279388D01*
X228054Y291728D01*
X232538Y291728D01*
X233065Y291717D01*
X233557Y291682D01*
X234015Y291623D01*
X234439Y291541D01*
X234829Y291436D01*
X235186Y291307D01*
X235508Y291155D01*
X235797Y290980D01*
X236051Y290781D01*
X236272Y290558D01*
X236458Y290313D01*
X236611Y290044D01*
X236730Y289751D01*
X236815Y289435D01*
X236866Y289096D01*
X236883Y288733D01*
X236873Y288465D01*
X236844Y288208D01*
X236797Y287961D01*
X236729Y287726D01*
X236643Y287501D01*
X236538Y287288D01*
X236413Y287085D01*
X236270Y286894D01*
X236108Y286715D01*
X236009Y286624D01*
X235931Y286552D01*
X235738Y286404D01*
X235530Y286272D01*
X235305Y286155D01*
X235064Y286053D01*
X234808Y285966D01*
X234535Y285895D01*
X234893Y285842D01*
X235229Y285768D01*
X235544Y285675D01*
X235838Y285561D01*
X236111Y285428D01*
X236363Y285275D01*
X236594Y285103D01*
X236691Y285014D01*
X236804Y284910D01*
X236991Y284701D01*
X237153Y284478D01*
X237290Y284243D01*
X237402Y283994D01*
X237489Y283731D01*
X237551Y283456D01*
X237588Y283167D01*
X237601Y282865D01*
X237582Y282465D01*
X237526Y282087D01*
X237432Y281733D01*
X237301Y281401D01*
X237132Y281092D01*
X236926Y280806D01*
X236682Y280543D01*
X236401Y280303D01*
X236086Y280088D01*
X235742Y279902D01*
X235369Y279745D01*
X234967Y279616D01*
X234535Y279516D01*
X234074Y279445D01*
X233584Y279402D01*
X233064Y279388D01*
G37*
%LPC*%
G36*
X232976Y280728D02*
X233347Y280737D01*
X233691Y280763D01*
X234009Y280808D01*
X234301Y280870D01*
X234567Y280950D01*
X234808Y281048D01*
X235022Y281164D01*
X235210Y281297D01*
X235374Y281448D01*
X235516Y281617D01*
X235637Y281803D01*
X235735Y282006D01*
X235812Y282228D01*
X235867Y282466D01*
X235900Y282722D01*
X235911Y282996D01*
X235899Y283260D01*
X235863Y283507D01*
X235803Y283737D01*
X235719Y283950D01*
X235611Y284146D01*
X235479Y284325D01*
X235324Y284487D01*
X235144Y284632D01*
X234941Y284760D01*
X234713Y284870D01*
X234462Y284964D01*
X234186Y285041D01*
X233887Y285100D01*
X233564Y285143D01*
X233216Y285169D01*
X232845Y285177D01*
X229727Y285177D01*
X229727Y280728D01*
X232976Y280728D01*
G37*
G36*
X232538Y286482D02*
X232863Y286490D01*
X233166Y286514D01*
X233448Y286553D01*
X233709Y286608D01*
X233948Y286679D01*
X234167Y286765D01*
X234364Y286868D01*
X234540Y286986D01*
X234695Y287120D01*
X234829Y287271D01*
X234943Y287439D01*
X235036Y287624D01*
X235108Y287826D01*
X235160Y288044D01*
X235191Y288279D01*
X235201Y288532D01*
X235190Y288772D01*
X235158Y288995D01*
X235105Y289200D01*
X235030Y289388D01*
X234934Y289557D01*
X234817Y289709D01*
X234678Y289843D01*
X234518Y289959D01*
X234338Y290060D01*
X234138Y290147D01*
X233919Y290221D01*
X233681Y290281D01*
X233424Y290328D01*
X233148Y290362D01*
X232853Y290382D01*
X232538Y290388D01*
X229727Y290388D01*
X229727Y286482D01*
X232538Y286482D01*
G37*
%LPD*%
G36*
X220657Y279213D02*
X220108Y279225D01*
X219589Y279262D01*
X219099Y279323D01*
X218639Y279408D01*
X218209Y279519D01*
X217808Y279653D01*
X217436Y279813D01*
X217095Y279996D01*
X216783Y280205D01*
X216500Y280437D01*
X216248Y280695D01*
X216025Y280976D01*
X215831Y281282D01*
X215667Y281613D01*
X215533Y281968D01*
X215428Y282348D01*
X217049Y282672D01*
X217129Y282403D01*
X217228Y282153D01*
X217348Y281921D01*
X217487Y281708D01*
X217645Y281513D01*
X217824Y281336D01*
X218022Y281178D01*
X218240Y281039D01*
X218478Y280917D01*
X218736Y280811D01*
X219016Y280721D01*
X219315Y280648D01*
X219635Y280591D01*
X219976Y280550D01*
X220337Y280526D01*
X220719Y280518D01*
X221112Y280526D01*
X221483Y280552D01*
X221830Y280596D01*
X222154Y280657D01*
X222455Y280735D01*
X222733Y280830D01*
X222988Y280943D01*
X223219Y281074D01*
X223426Y281221D01*
X223604Y281384D01*
X223756Y281564D01*
X223879Y281760D01*
X223976Y281972D01*
X224044Y282201D01*
X224086Y282446D01*
X224099Y282707D01*
X224082Y282995D01*
X224030Y283255D01*
X223944Y283486D01*
X223824Y283688D01*
X223672Y283868D01*
X223492Y284032D01*
X223284Y284179D01*
X223048Y284310D01*
X222787Y284428D01*
X222501Y284535D01*
X222191Y284633D01*
X221857Y284722D01*
X220325Y285081D01*
X219637Y285243D01*
X219038Y285405D01*
X218527Y285567D01*
X218104Y285729D01*
X217745Y285896D01*
X217427Y286072D01*
X217148Y286257D01*
X216909Y286451D01*
X216703Y286659D01*
X216522Y286884D01*
X216368Y287126D01*
X216239Y287384D01*
X216137Y287661D01*
X216065Y287958D01*
X216021Y288274D01*
X216007Y288610D01*
X216026Y288995D01*
X216082Y289358D01*
X216177Y289697D01*
X216310Y290014D01*
X216480Y290308D01*
X216689Y290579D01*
X216935Y290828D01*
X217220Y291054D01*
X217539Y291255D01*
X217892Y291430D01*
X218277Y291577D01*
X218694Y291698D01*
X219145Y291792D01*
X219628Y291859D01*
X220144Y291899D01*
X220692Y291912D01*
X221202Y291902D01*
X221682Y291872D01*
X222130Y291822D01*
X222547Y291751D01*
X222933Y291661D01*
X223289Y291550D01*
X223613Y291420D01*
X223907Y291269D01*
X224174Y291094D01*
X224421Y290890D01*
X224647Y290658D01*
X224853Y290398D01*
X225037Y290110D01*
X225201Y289793D01*
X225344Y289448D01*
X225466Y289075D01*
X223819Y288786D01*
X223744Y289022D01*
X223653Y289242D01*
X223547Y289446D01*
X223425Y289632D01*
X223288Y289801D01*
X223136Y289954D01*
X222968Y290090D01*
X222786Y290209D01*
X222586Y290313D01*
X222368Y290402D01*
X222132Y290478D01*
X221877Y290541D01*
X221604Y290589D01*
X221313Y290624D01*
X221003Y290644D01*
X220675Y290651D01*
X220316Y290643D01*
X219979Y290620D01*
X219663Y290582D01*
X219370Y290529D01*
X219098Y290460D01*
X218849Y290375D01*
X218621Y290276D01*
X218415Y290161D01*
X218232Y290031D01*
X218074Y289885D01*
X217940Y289725D01*
X217831Y289550D01*
X217745Y289359D01*
X217684Y289154D01*
X217648Y288934D01*
X217636Y288698D01*
X217655Y288426D01*
X217711Y288178D01*
X217806Y287955D01*
X217938Y287756D01*
X218106Y287577D01*
X218307Y287413D01*
X218541Y287262D01*
X218809Y287126D01*
X219165Y286989D01*
X219661Y286838D01*
X220299Y286672D01*
X221078Y286491D01*
X222212Y286224D01*
X222765Y286075D01*
X223294Y285900D01*
X223794Y285695D01*
X224261Y285457D01*
X224480Y285323D01*
X224683Y285175D01*
X224872Y285012D01*
X225045Y284835D01*
X225203Y284643D01*
X225342Y284435D01*
X225463Y284210D01*
X225566Y283968D01*
X225649Y283708D01*
X225708Y283425D01*
X225743Y283121D01*
X225755Y282795D01*
X225734Y282380D01*
X225671Y281989D01*
X225567Y281622D01*
X225421Y281280D01*
X225233Y280961D01*
X225003Y280666D01*
X224732Y280396D01*
X224419Y280150D01*
X224068Y279930D01*
X223683Y279740D01*
X223264Y279579D01*
X222811Y279447D01*
X222324Y279344D01*
X221802Y279271D01*
X221247Y279227D01*
X220657Y279213D01*
G37*
G36*
X208048Y279213D02*
X207675Y279221D01*
X207314Y279247D01*
X206965Y279290D01*
X206629Y279350D01*
X206304Y279428D01*
X205992Y279523D01*
X205691Y279635D01*
X205403Y279764D01*
X205128Y279910D01*
X204869Y280071D01*
X204627Y280248D01*
X204400Y280441D01*
X204189Y280649D01*
X203994Y280873D01*
X203814Y281112D01*
X203651Y281367D01*
X203505Y281636D01*
X203379Y281918D01*
X203272Y282212D01*
X203185Y282519D01*
X203116Y282838D01*
X203068Y283170D01*
X203039Y283515D01*
X203029Y283872D01*
X203029Y291728D01*
X204702Y291728D01*
X204702Y284012D01*
X204715Y283602D01*
X204756Y283218D01*
X204823Y282859D01*
X204917Y282525D01*
X205037Y282217D01*
X205185Y281935D01*
X205359Y281678D01*
X205560Y281446D01*
X205787Y281241D01*
X206037Y281063D01*
X206311Y280912D01*
X206609Y280789D01*
X206931Y280693D01*
X207276Y280625D01*
X207646Y280584D01*
X208039Y280570D01*
X208443Y280584D01*
X208825Y280627D01*
X209183Y280698D01*
X209518Y280797D01*
X209830Y280924D01*
X210119Y281080D01*
X210385Y281264D01*
X210627Y281477D01*
X210844Y281716D01*
X211031Y281982D01*
X211190Y282274D01*
X211320Y282592D01*
X211421Y282936D01*
X211493Y283307D01*
X211537Y283703D01*
X211551Y284126D01*
X211551Y291728D01*
X213215Y291728D01*
X213215Y284030D01*
X213205Y283662D01*
X213176Y283307D01*
X213126Y282964D01*
X213056Y282635D01*
X212967Y282318D01*
X212858Y282015D01*
X212729Y281724D01*
X212580Y281446D01*
X212413Y281182D01*
X212230Y280935D01*
X212030Y280703D01*
X211814Y280488D01*
X211581Y280288D01*
X211332Y280105D01*
X211067Y279938D01*
X210785Y279786D01*
X210488Y279652D01*
X210178Y279535D01*
X209856Y279437D01*
X209520Y279356D01*
X209172Y279293D01*
X208810Y279248D01*
X208435Y279221D01*
X208048Y279213D01*
G37*
G36*
X196526Y279388D02*
X194791Y279388D01*
X189755Y291728D01*
X191516Y291728D01*
X194932Y283040D01*
X195667Y280859D01*
X196403Y283040D01*
X199801Y291728D01*
X201562Y291728D01*
X196526Y279388D01*
G37*
G36*
X221457Y177613D02*
X221036Y177624D01*
X220636Y177660D01*
X220257Y177718D01*
X219898Y177801D01*
X219561Y177907D01*
X219244Y178036D01*
X218948Y178189D01*
X218672Y178366D01*
X218419Y178565D01*
X218191Y178784D01*
X217987Y179025D01*
X217807Y179288D01*
X217652Y179571D01*
X217521Y179875D01*
X217414Y180200D01*
X217332Y180547D01*
X218926Y180731D01*
X218995Y180509D01*
X219075Y180301D01*
X219169Y180108D01*
X219274Y179930D01*
X219391Y179765D01*
X219521Y179615D01*
X219663Y179479D01*
X219817Y179358D01*
X219984Y179250D01*
X220163Y179157D01*
X220354Y179079D01*
X220557Y179014D01*
X220772Y178964D01*
X221000Y178929D01*
X221240Y178907D01*
X221492Y178900D01*
X221801Y178912D01*
X222093Y178948D01*
X222367Y179008D01*
X222624Y179092D01*
X222864Y179199D01*
X223087Y179331D01*
X223292Y179487D01*
X223481Y179666D01*
X223649Y179867D01*
X223795Y180085D01*
X223918Y180322D01*
X224019Y180576D01*
X224098Y180848D01*
X224154Y181139D01*
X224188Y181447D01*
X224199Y181773D01*
X224188Y182057D01*
X224154Y182327D01*
X224097Y182584D01*
X224018Y182826D01*
X223917Y183054D01*
X223792Y183269D01*
X223646Y183469D01*
X223476Y183656D01*
X223288Y183824D01*
X223083Y183970D01*
X222864Y184094D01*
X222628Y184195D01*
X222376Y184273D01*
X222109Y184329D01*
X221826Y184363D01*
X221527Y184374D01*
X221213Y184361D01*
X220910Y184324D01*
X220618Y184261D01*
X220336Y184173D01*
X220060Y184054D01*
X219785Y183901D01*
X219509Y183713D01*
X219233Y183489D01*
X217691Y183489D01*
X218103Y190128D01*
X225118Y190128D01*
X225118Y188788D01*
X219539Y188788D01*
X219303Y184873D01*
X219567Y185058D01*
X219846Y185218D01*
X220142Y185354D01*
X220452Y185465D01*
X220779Y185551D01*
X221121Y185612D01*
X221478Y185649D01*
X221852Y185662D01*
X222295Y185645D01*
X222716Y185595D01*
X223114Y185511D01*
X223488Y185394D01*
X223840Y185244D01*
X224168Y185061D01*
X224473Y184843D01*
X224755Y184593D01*
X225009Y184316D01*
X225228Y184018D01*
X225414Y183700D01*
X225566Y183362D01*
X225685Y183004D01*
X225769Y182626D01*
X225820Y182227D01*
X225837Y181808D01*
X225819Y181333D01*
X225764Y180883D01*
X225673Y180460D01*
X225547Y180063D01*
X225383Y179691D01*
X225184Y179346D01*
X224948Y179027D01*
X224676Y178734D01*
X224372Y178471D01*
X224040Y178243D01*
X223680Y178050D01*
X223291Y177893D01*
X222875Y177770D01*
X222430Y177683D01*
X221958Y177630D01*
X221457Y177613D01*
G37*
G36*
X233432Y177788D02*
X231698Y177788D01*
X226662Y190128D01*
X228422Y190128D01*
X231838Y181440D01*
X232574Y179259D01*
X233309Y181440D01*
X236708Y190128D01*
X238468Y190128D01*
X233432Y177788D01*
G37*
G36*
X150774Y253143D02*
X150409Y253150D01*
X150054Y253169D01*
X149709Y253200D01*
X149375Y253245D01*
X149050Y253302D01*
X148736Y253371D01*
X148431Y253454D01*
X148137Y253549D01*
X147852Y253656D01*
X147578Y253776D01*
X147314Y253909D01*
X147060Y254055D01*
X146583Y254384D01*
X146145Y254764D01*
X145754Y255189D01*
X145578Y255416D01*
X145415Y255653D01*
X145265Y255901D01*
X145129Y256158D01*
X145005Y256425D01*
X144894Y256702D01*
X144796Y256989D01*
X144711Y257285D01*
X144640Y257592D01*
X144581Y257909D01*
X144535Y258235D01*
X144503Y258572D01*
X144483Y258918D01*
X144477Y259274D01*
X144488Y259737D01*
X144524Y260185D01*
X144582Y260617D01*
X144664Y261033D01*
X144769Y261433D01*
X144898Y261818D01*
X145050Y262188D01*
X145226Y262541D01*
X145423Y262877D01*
X145642Y263193D01*
X145883Y263488D01*
X146144Y263762D01*
X146427Y264016D01*
X146731Y264250D01*
X147056Y264464D01*
X147402Y264657D01*
X147767Y264828D01*
X148148Y264977D01*
X148546Y265102D01*
X148959Y265205D01*
X149389Y265285D01*
X149834Y265342D01*
X150296Y265377D01*
X150774Y265388D01*
X151251Y265376D01*
X151712Y265342D01*
X152158Y265284D01*
X152589Y265203D01*
X153006Y265099D01*
X153407Y264972D01*
X153793Y264821D01*
X154164Y264648D01*
X154517Y264453D01*
X154849Y264238D01*
X155159Y264002D01*
X155449Y263747D01*
X155718Y263471D01*
X155965Y263176D01*
X156192Y262860D01*
X156397Y262524D01*
X156580Y262170D01*
X156738Y261801D01*
X156872Y261416D01*
X156982Y261015D01*
X157067Y260599D01*
X157128Y260167D01*
X157164Y259720D01*
X157177Y259257D01*
X157165Y258790D01*
X157128Y258339D01*
X157068Y257905D01*
X156984Y257487D01*
X156876Y257085D01*
X156743Y256699D01*
X156587Y256330D01*
X156406Y255977D01*
X156202Y255642D01*
X155978Y255328D01*
X155731Y255034D01*
X155463Y254761D01*
X155174Y254507D01*
X154863Y254275D01*
X154531Y254062D01*
X154177Y253870D01*
X153805Y253700D01*
X153417Y253552D01*
X153015Y253427D01*
X152597Y253325D01*
X152164Y253246D01*
X151716Y253189D01*
X151253Y253155D01*
X150774Y253143D01*
G37*
%LPC*%
G36*
X150774Y254843D02*
X151339Y254861D01*
X151875Y254916D01*
X152380Y255007D01*
X152855Y255135D01*
X153301Y255299D01*
X153716Y255500D01*
X154102Y255738D01*
X154457Y256012D01*
X154776Y256318D01*
X155053Y256653D01*
X155287Y257016D01*
X155479Y257408D01*
X155628Y257828D01*
X155734Y258276D01*
X155798Y258752D01*
X155819Y259257D01*
X155798Y259776D01*
X155737Y260263D01*
X155634Y260720D01*
X155490Y261146D01*
X155304Y261540D01*
X155078Y261903D01*
X154810Y262236D01*
X154501Y262537D01*
X154154Y262805D01*
X153774Y263037D01*
X153359Y263234D01*
X152910Y263394D01*
X152427Y263519D01*
X151910Y263609D01*
X151359Y263662D01*
X150774Y263680D01*
X150214Y263662D01*
X149684Y263608D01*
X149186Y263518D01*
X148718Y263392D01*
X148281Y263230D01*
X147876Y263032D01*
X147501Y262798D01*
X147157Y262528D01*
X146849Y262225D01*
X146582Y261893D01*
X146356Y261531D01*
X146172Y261139D01*
X146028Y260717D01*
X145925Y260266D01*
X145864Y259785D01*
X145843Y259274D01*
X145863Y258760D01*
X145924Y258275D01*
X146025Y257820D01*
X146167Y257396D01*
X146349Y257001D01*
X146572Y256637D01*
X146836Y256303D01*
X147139Y255999D01*
X147480Y255728D01*
X147853Y255493D01*
X148258Y255294D01*
X148696Y255132D01*
X149167Y255005D01*
X149670Y254915D01*
X150206Y254861D01*
X150774Y254843D01*
G37*
%LPD*%
G36*
X157001Y295609D02*
X144661Y295609D01*
X144661Y299691D01*
X144667Y300077D01*
X144685Y300452D01*
X144716Y300816D01*
X144759Y301169D01*
X144814Y301510D01*
X144882Y301841D01*
X144962Y302160D01*
X145054Y302468D01*
X145158Y302765D01*
X145275Y303051D01*
X145404Y303325D01*
X145545Y303588D01*
X145699Y303840D01*
X145864Y304081D01*
X146042Y304311D01*
X146233Y304530D01*
X146435Y304736D01*
X146647Y304929D01*
X146869Y305109D01*
X147102Y305275D01*
X147345Y305428D01*
X147599Y305568D01*
X147862Y305694D01*
X148137Y305807D01*
X148421Y305907D01*
X148716Y305994D01*
X149022Y306067D01*
X149337Y306127D01*
X149664Y306173D01*
X150000Y306207D01*
X150347Y306227D01*
X150704Y306233D01*
X151174Y306222D01*
X151629Y306187D01*
X152069Y306129D01*
X152494Y306047D01*
X152904Y305942D01*
X153300Y305814D01*
X153680Y305663D01*
X154045Y305489D01*
X154393Y305293D01*
X154720Y305078D01*
X155025Y304843D01*
X155310Y304589D01*
X155574Y304315D01*
X155817Y304022D01*
X156039Y303710D01*
X156239Y303378D01*
X156418Y303030D01*
X156573Y302668D01*
X156704Y302294D01*
X156811Y301906D01*
X156894Y301506D01*
X156954Y301092D01*
X156990Y300665D01*
X157001Y300225D01*
X157001Y295609D01*
G37*
%LPC*%
G36*
X155661Y297282D02*
X155661Y300032D01*
X155652Y300366D01*
X155624Y300690D01*
X155578Y301004D01*
X155513Y301308D01*
X155429Y301601D01*
X155326Y301884D01*
X155205Y302156D01*
X155066Y302419D01*
X154909Y302669D01*
X154735Y302904D01*
X154545Y303124D01*
X154339Y303329D01*
X154116Y303519D01*
X153877Y303694D01*
X153621Y303854D01*
X153349Y304000D01*
X153063Y304129D01*
X152763Y304241D01*
X152452Y304336D01*
X152127Y304414D01*
X151790Y304474D01*
X151441Y304517D01*
X151079Y304543D01*
X150704Y304552D01*
X150147Y304532D01*
X149625Y304473D01*
X149136Y304375D01*
X148682Y304237D01*
X148262Y304061D01*
X147875Y303845D01*
X147523Y303589D01*
X147205Y303295D01*
X146923Y302963D01*
X146678Y302596D01*
X146471Y302194D01*
X146302Y301756D01*
X146170Y301284D01*
X146076Y300776D01*
X146020Y300234D01*
X146001Y299656D01*
X146001Y297282D01*
X155661Y297282D01*
G37*
%LPD*%
G36*
X157001Y277672D02*
X144661Y277672D01*
X144661Y283479D01*
X144675Y283985D01*
X144719Y284461D01*
X144792Y284908D01*
X144894Y285325D01*
X145025Y285713D01*
X145185Y286071D01*
X145375Y286399D01*
X145593Y286697D01*
X145838Y286963D01*
X146106Y287193D01*
X146396Y287388D01*
X146709Y287548D01*
X147045Y287672D01*
X147404Y287761D01*
X147786Y287814D01*
X148190Y287832D01*
X148527Y287819D01*
X148851Y287781D01*
X149160Y287719D01*
X149456Y287631D01*
X149738Y287518D01*
X150007Y287381D01*
X150261Y287218D01*
X150503Y287030D01*
X150726Y286820D01*
X150928Y286591D01*
X151108Y286343D01*
X151174Y286233D01*
X151267Y286077D01*
X151404Y285791D01*
X151519Y285486D01*
X151613Y285162D01*
X151685Y284819D01*
X153948Y286310D01*
X157001Y288322D01*
X157001Y286395D01*
X151878Y283189D01*
X151878Y279344D01*
X157001Y279344D01*
X157001Y277672D01*
G37*
%LPC*%
G36*
X150555Y279344D02*
X150555Y283382D01*
X150546Y283703D01*
X150517Y284006D01*
X150468Y284290D01*
X150401Y284555D01*
X150314Y284801D01*
X150208Y285028D01*
X150082Y285237D01*
X149938Y285427D01*
X149776Y285597D01*
X149598Y285743D01*
X149405Y285868D01*
X149197Y285969D01*
X148973Y286048D01*
X148733Y286105D01*
X148478Y286139D01*
X148208Y286150D01*
X147947Y286138D01*
X147701Y286104D01*
X147472Y286047D01*
X147259Y285967D01*
X147061Y285864D01*
X146880Y285738D01*
X146715Y285590D01*
X146566Y285419D01*
X146433Y285226D01*
X146319Y285013D01*
X146221Y284779D01*
X146142Y284526D01*
X146080Y284253D01*
X146036Y283959D01*
X146010Y283646D01*
X146001Y283312D01*
X146001Y279344D01*
X150555Y279344D01*
G37*
%LPD*%
G36*
X157001Y320547D02*
X144661Y320547D01*
X144661Y326354D01*
X144675Y326860D01*
X144719Y327336D01*
X144792Y327783D01*
X144894Y328200D01*
X145025Y328588D01*
X145185Y328946D01*
X145375Y329274D01*
X145593Y329572D01*
X145838Y329838D01*
X146106Y330068D01*
X146396Y330263D01*
X146709Y330423D01*
X147045Y330547D01*
X147404Y330636D01*
X147786Y330689D01*
X148190Y330707D01*
X148527Y330694D01*
X148851Y330656D01*
X149160Y330594D01*
X149456Y330506D01*
X149738Y330393D01*
X150007Y330256D01*
X150261Y330093D01*
X150503Y329905D01*
X150726Y329695D01*
X150928Y329466D01*
X151108Y329218D01*
X151174Y329108D01*
X151267Y328952D01*
X151404Y328666D01*
X151519Y328361D01*
X151613Y328037D01*
X151685Y327694D01*
X153948Y329185D01*
X157001Y331197D01*
X157001Y329270D01*
X151878Y326064D01*
X151878Y322219D01*
X157001Y322219D01*
X157001Y320547D01*
G37*
%LPC*%
G36*
X150555Y322219D02*
X150555Y326257D01*
X150546Y326578D01*
X150517Y326881D01*
X150468Y327165D01*
X150401Y327430D01*
X150314Y327676D01*
X150208Y327903D01*
X150082Y328112D01*
X149938Y328302D01*
X149776Y328472D01*
X149598Y328618D01*
X149405Y328743D01*
X149197Y328844D01*
X148973Y328923D01*
X148733Y328980D01*
X148478Y329014D01*
X148208Y329025D01*
X147947Y329013D01*
X147701Y328979D01*
X147472Y328922D01*
X147259Y328842D01*
X147061Y328739D01*
X146880Y328613D01*
X146715Y328465D01*
X146566Y328294D01*
X146433Y328101D01*
X146319Y327888D01*
X146221Y327654D01*
X146142Y327401D01*
X146080Y327128D01*
X146036Y326834D01*
X146010Y326521D01*
X146001Y326187D01*
X146001Y322219D01*
X150555Y322219D01*
G37*
%LPD*%
G36*
X157001Y241797D02*
X144661Y241797D01*
X144661Y246990D01*
X144676Y247495D01*
X144721Y247970D01*
X144797Y248415D01*
X144904Y248832D01*
X145040Y249219D01*
X145208Y249577D01*
X145405Y249905D01*
X145633Y250205D01*
X145888Y250472D01*
X146169Y250703D01*
X146474Y250899D01*
X146804Y251059D01*
X147159Y251183D01*
X147540Y251272D01*
X147944Y251326D01*
X148374Y251343D01*
X148801Y251326D01*
X149205Y251272D01*
X149587Y251183D01*
X149946Y251058D01*
X150283Y250897D01*
X150598Y250700D01*
X150890Y250468D01*
X151160Y250200D01*
X151402Y249902D01*
X151612Y249578D01*
X151789Y249228D01*
X151935Y248853D01*
X152048Y248452D01*
X152128Y248025D01*
X152177Y247573D01*
X152193Y247096D01*
X152193Y243469D01*
X157001Y243469D01*
X157001Y241797D01*
G37*
%LPC*%
G36*
X150870Y243469D02*
X150870Y246859D01*
X150861Y247198D01*
X150832Y247516D01*
X150783Y247812D01*
X150716Y248085D01*
X150628Y248337D01*
X150522Y248567D01*
X150396Y248775D01*
X150251Y248961D01*
X150086Y249125D01*
X149902Y249268D01*
X149699Y249388D01*
X149476Y249487D01*
X149234Y249563D01*
X148973Y249618D01*
X148692Y249651D01*
X148392Y249662D01*
X148102Y249651D01*
X147831Y249617D01*
X147579Y249561D01*
X147346Y249482D01*
X147131Y249381D01*
X146935Y249258D01*
X146757Y249112D01*
X146599Y248944D01*
X146458Y248753D01*
X146337Y248540D01*
X146234Y248304D01*
X146150Y248046D01*
X146085Y247765D01*
X146038Y247462D01*
X146010Y247137D01*
X146001Y246789D01*
X146001Y243469D01*
X150870Y243469D01*
G37*
%LPD*%
G36*
X157001Y308578D02*
X144661Y308578D01*
X144661Y317941D01*
X146027Y317941D01*
X146027Y310251D01*
X149986Y310251D01*
X149986Y317415D01*
X151335Y317415D01*
X151335Y310251D01*
X155635Y310251D01*
X155635Y318300D01*
X157001Y318300D01*
X157001Y308578D01*
G37*
G36*
X157001Y226859D02*
X144661Y226859D01*
X144661Y228532D01*
X155635Y228532D01*
X155635Y234768D01*
X157001Y234768D01*
X157001Y226859D01*
G37*
G36*
X157001Y237012D02*
X144661Y237012D01*
X144661Y238685D01*
X157001Y238685D01*
X157001Y237012D01*
G37*
G36*
X157001Y290824D02*
X144661Y290824D01*
X144661Y292497D01*
X157001Y292497D01*
X157001Y290824D01*
G37*
G36*
X160566Y265960D02*
X159428Y265960D01*
X159428Y276409D01*
X160566Y276409D01*
X160566Y265960D01*
G37*
G36*
X635426Y642425D02*
X635073Y642434D01*
X634739Y642463D01*
X634423Y642510D01*
X634124Y642577D01*
X633843Y642663D01*
X633581Y642767D01*
X633336Y642891D01*
X633109Y643034D01*
X632899Y643197D01*
X632704Y643385D01*
X632525Y643595D01*
X632361Y643829D01*
X632213Y644087D01*
X632080Y644368D01*
X631963Y644672D01*
X631861Y645000D01*
X633368Y645236D01*
X633504Y644875D01*
X633675Y644562D01*
X633882Y644297D01*
X634125Y644080D01*
X634404Y643912D01*
X634717Y643791D01*
X635067Y643719D01*
X635255Y643701D01*
X635452Y643695D01*
X635782Y643715D01*
X636093Y643774D01*
X636384Y643872D01*
X636656Y644010D01*
X636910Y644187D01*
X637144Y644404D01*
X637358Y644660D01*
X637554Y644956D01*
X637729Y645288D01*
X637882Y645654D01*
X638013Y646053D01*
X638121Y646487D01*
X638208Y646953D01*
X638272Y647454D01*
X638314Y647988D01*
X638334Y648556D01*
X638238Y648364D01*
X638127Y648181D01*
X638001Y648008D01*
X637858Y647845D01*
X637701Y647692D01*
X637527Y647548D01*
X637338Y647414D01*
X637134Y647290D01*
X636919Y647178D01*
X636699Y647081D01*
X636473Y646999D01*
X636243Y646932D01*
X636007Y646880D01*
X635766Y646843D01*
X635520Y646820D01*
X635268Y646813D01*
X634863Y646831D01*
X634478Y646884D01*
X634114Y646973D01*
X633770Y647098D01*
X633448Y647258D01*
X633146Y647453D01*
X632866Y647685D01*
X632606Y647951D01*
X632372Y648248D01*
X632169Y648567D01*
X631997Y648910D01*
X631857Y649276D01*
X631747Y649666D01*
X631669Y650078D01*
X631623Y650514D01*
X631607Y650973D01*
X631624Y651444D01*
X631675Y651889D01*
X631760Y652309D01*
X631879Y652702D01*
X632031Y653069D01*
X632218Y653411D01*
X632439Y653727D01*
X632693Y654017D01*
X632978Y654276D01*
X633289Y654501D01*
X633627Y654692D01*
X633992Y654848D01*
X634383Y654969D01*
X634800Y655055D01*
X635244Y655107D01*
X635715Y655125D01*
X635968Y655119D01*
X636214Y655101D01*
X636682Y655029D01*
X637118Y654910D01*
X637523Y654744D01*
X637898Y654529D01*
X638241Y654267D01*
X638552Y653958D01*
X638833Y653601D01*
X639081Y653196D01*
X639297Y652743D01*
X639479Y652242D01*
X639628Y651694D01*
X639744Y651097D01*
X639826Y650453D01*
X639876Y649760D01*
X639893Y649020D01*
X639875Y648248D01*
X639820Y647522D01*
X639729Y646842D01*
X639603Y646209D01*
X639439Y645621D01*
X639240Y645079D01*
X639004Y644583D01*
X638732Y644133D01*
X638427Y643732D01*
X638090Y643386D01*
X637723Y643092D01*
X637325Y642852D01*
X636897Y642665D01*
X636671Y642592D01*
X636437Y642532D01*
X636196Y642485D01*
X635947Y642452D01*
X635690Y642432D01*
X635426Y642425D01*
G37*
%LPC*%
G36*
X635645Y648057D02*
X635980Y648076D01*
X636304Y648134D01*
X636615Y648231D01*
X636915Y648368D01*
X637193Y648539D01*
X637439Y648743D01*
X637655Y648979D01*
X637839Y649248D01*
X637986Y649542D01*
X638092Y649856D01*
X638155Y650190D01*
X638176Y650544D01*
X638165Y650907D01*
X638133Y651252D01*
X638080Y651579D01*
X638005Y651887D01*
X637909Y652178D01*
X637792Y652450D01*
X637653Y652704D01*
X637493Y652939D01*
X637315Y653152D01*
X637122Y653336D01*
X636915Y653492D01*
X636694Y653619D01*
X636458Y653718D01*
X636207Y653789D01*
X635942Y653832D01*
X635662Y653846D01*
X635385Y653834D01*
X635123Y653798D01*
X634876Y653737D01*
X634644Y653652D01*
X634427Y653543D01*
X634225Y653410D01*
X634039Y653253D01*
X633867Y653071D01*
X633713Y652869D01*
X633579Y652649D01*
X633466Y652413D01*
X633374Y652159D01*
X633302Y651888D01*
X633251Y651600D01*
X633220Y651295D01*
X633210Y650973D01*
X633220Y650645D01*
X633251Y650334D01*
X633302Y650041D01*
X633374Y649766D01*
X633466Y649508D01*
X633579Y649268D01*
X633713Y649045D01*
X633867Y648840D01*
X634038Y648657D01*
X634224Y648498D01*
X634425Y648363D01*
X634640Y648253D01*
X634869Y648167D01*
X635113Y648106D01*
X635372Y648069D01*
X635645Y648057D01*
G37*
%LPD*%
G36*
X616031Y642425D02*
X615775Y642431D01*
X615526Y642449D01*
X615050Y642522D01*
X614606Y642643D01*
X614192Y642812D01*
X613809Y643030D01*
X613456Y643297D01*
X613134Y643612D01*
X612843Y643975D01*
X612585Y644385D01*
X612360Y644838D01*
X612171Y645336D01*
X612016Y645878D01*
X611895Y646464D01*
X611809Y647094D01*
X611757Y647768D01*
X611740Y648486D01*
X611758Y649264D01*
X611811Y649995D01*
X611901Y650681D01*
X612026Y651319D01*
X612188Y651911D01*
X612385Y652457D01*
X612618Y652956D01*
X612887Y653408D01*
X613189Y653810D01*
X613521Y654159D01*
X613884Y654454D01*
X614277Y654696D01*
X614701Y654883D01*
X614924Y654957D01*
X615155Y655017D01*
X615393Y655064D01*
X615639Y655098D01*
X615893Y655118D01*
X616154Y655125D01*
X616495Y655115D01*
X616820Y655085D01*
X617129Y655036D01*
X617422Y654968D01*
X617698Y654879D01*
X617959Y654771D01*
X618203Y654644D01*
X618431Y654496D01*
X618643Y654329D01*
X618839Y654143D01*
X619019Y653937D01*
X619182Y653711D01*
X619330Y653465D01*
X619461Y653200D01*
X619576Y652915D01*
X619675Y652611D01*
X618168Y652340D01*
X618035Y652693D01*
X617867Y652999D01*
X617665Y653258D01*
X617428Y653469D01*
X617157Y653634D01*
X616851Y653752D01*
X616511Y653822D01*
X616136Y653846D01*
X615809Y653826D01*
X615500Y653767D01*
X615210Y653669D01*
X614940Y653532D01*
X614688Y653355D01*
X614456Y653139D01*
X614242Y652884D01*
X614048Y652589D01*
X613874Y652257D01*
X613724Y651890D01*
X613597Y651488D01*
X613492Y651051D01*
X613411Y650578D01*
X613354Y650071D01*
X613319Y649528D01*
X613307Y648950D01*
X613544Y649325D01*
X613824Y649652D01*
X614148Y649931D01*
X614516Y650163D01*
X614920Y650345D01*
X615353Y650475D01*
X615579Y650521D01*
X615813Y650553D01*
X616055Y650573D01*
X616303Y650579D01*
X616719Y650562D01*
X617113Y650512D01*
X617485Y650429D01*
X617834Y650312D01*
X618162Y650162D01*
X618468Y649978D01*
X618752Y649761D01*
X619014Y649510D01*
X619249Y649232D01*
X619452Y648930D01*
X619625Y648606D01*
X619766Y648258D01*
X619875Y647887D01*
X619954Y647494D01*
X620001Y647077D01*
X620016Y646638D01*
X620000Y646162D01*
X619950Y645713D01*
X619867Y645289D01*
X619752Y644890D01*
X619602Y644518D01*
X619420Y644171D01*
X619205Y643850D01*
X618957Y643555D01*
X618679Y643290D01*
X618376Y643060D01*
X618049Y642866D01*
X617695Y642707D01*
X617317Y642584D01*
X616914Y642495D01*
X616485Y642443D01*
X616031Y642425D01*
G37*
%LPC*%
G36*
X615979Y643695D02*
X616256Y643707D01*
X616517Y643743D01*
X616764Y643803D01*
X616995Y643886D01*
X617210Y643994D01*
X617411Y644126D01*
X617596Y644282D01*
X617766Y644461D01*
X617917Y644662D01*
X618049Y644880D01*
X618160Y645117D01*
X618252Y645371D01*
X618323Y645643D01*
X618373Y645933D01*
X618404Y646242D01*
X618414Y646568D01*
X618403Y646893D01*
X618373Y647199D01*
X618321Y647486D01*
X618249Y647754D01*
X618157Y648003D01*
X618044Y648233D01*
X617911Y648443D01*
X617757Y648635D01*
X617584Y648805D01*
X617396Y648953D01*
X617191Y649078D01*
X616971Y649180D01*
X616734Y649259D01*
X616481Y649316D01*
X616212Y649350D01*
X615926Y649362D01*
X615657Y649352D01*
X615401Y649321D01*
X615158Y649271D01*
X614929Y649201D01*
X614713Y649110D01*
X614510Y648999D01*
X614320Y648869D01*
X614144Y648718D01*
X613985Y648549D01*
X613847Y648366D01*
X613730Y648167D01*
X613635Y647953D01*
X613561Y647723D01*
X613507Y647479D01*
X613476Y647219D01*
X613465Y646944D01*
X613476Y646595D01*
X613509Y646263D01*
X613564Y645946D01*
X613641Y645646D01*
X613740Y645362D01*
X613862Y645093D01*
X614005Y644842D01*
X614170Y644606D01*
X614353Y644392D01*
X614548Y644207D01*
X614755Y644051D01*
X614975Y643923D01*
X615207Y643823D01*
X615452Y643752D01*
X615709Y643709D01*
X615979Y643695D01*
G37*
%LPD*%
G36*
X669786Y642600D02*
X668113Y642600D01*
X668113Y654941D01*
X669786Y654941D01*
X669786Y648757D01*
X675733Y654941D01*
X677703Y654941D01*
X672448Y649581D01*
X678404Y642600D01*
X676328Y642600D01*
X671397Y648556D01*
X669786Y647330D01*
X669786Y642600D01*
G37*
G36*
X661516Y642425D02*
X661095Y642437D01*
X660695Y642472D01*
X660316Y642531D01*
X659957Y642613D01*
X659619Y642719D01*
X659302Y642849D01*
X659006Y643002D01*
X658731Y643178D01*
X658478Y643377D01*
X658250Y643597D01*
X658046Y643838D01*
X657866Y644100D01*
X657711Y644383D01*
X657580Y644687D01*
X657473Y645013D01*
X657391Y645359D01*
X658985Y645543D01*
X659053Y645321D01*
X659134Y645114D01*
X659227Y644921D01*
X659332Y644742D01*
X659450Y644578D01*
X659580Y644427D01*
X659722Y644292D01*
X659876Y644170D01*
X660042Y644063D01*
X660221Y643970D01*
X660412Y643891D01*
X660615Y643827D01*
X660831Y643777D01*
X661059Y643741D01*
X661299Y643719D01*
X661551Y643712D01*
X661860Y643724D01*
X662152Y643760D01*
X662426Y643820D01*
X662683Y643904D01*
X662923Y644012D01*
X663146Y644143D01*
X663351Y644299D01*
X663539Y644479D01*
X663708Y644679D01*
X663853Y644898D01*
X663977Y645134D01*
X664078Y645389D01*
X664156Y645661D01*
X664213Y645951D01*
X664246Y646259D01*
X664257Y646585D01*
X664246Y646869D01*
X664212Y647140D01*
X664156Y647396D01*
X664077Y647638D01*
X663975Y647867D01*
X663851Y648081D01*
X663704Y648282D01*
X663535Y648468D01*
X663346Y648637D01*
X663142Y648782D01*
X662922Y648906D01*
X662686Y649007D01*
X662435Y649085D01*
X662168Y649142D01*
X661885Y649175D01*
X661586Y649186D01*
X661272Y649174D01*
X660969Y649136D01*
X660676Y649073D01*
X660395Y648985D01*
X660119Y648867D01*
X659843Y648713D01*
X659567Y648525D01*
X659291Y648302D01*
X657750Y648302D01*
X658161Y654941D01*
X665177Y654941D01*
X665177Y653601D01*
X659598Y653601D01*
X659361Y649686D01*
X659625Y649870D01*
X659905Y650031D01*
X660200Y650166D01*
X660511Y650277D01*
X660837Y650363D01*
X661179Y650425D01*
X661537Y650462D01*
X661910Y650474D01*
X662354Y650457D01*
X662775Y650407D01*
X663172Y650324D01*
X663547Y650207D01*
X663898Y650057D01*
X664226Y649873D01*
X664532Y649656D01*
X664814Y649405D01*
X665067Y649128D01*
X665287Y648831D01*
X665473Y648513D01*
X665625Y648175D01*
X665743Y647817D01*
X665828Y647438D01*
X665878Y647039D01*
X665895Y646620D01*
X665877Y646145D01*
X665823Y645696D01*
X665732Y645272D01*
X665605Y644875D01*
X665442Y644504D01*
X665242Y644158D01*
X665007Y643839D01*
X664735Y643546D01*
X664431Y643283D01*
X664098Y643055D01*
X663738Y642863D01*
X663350Y642705D01*
X662933Y642583D01*
X662489Y642495D01*
X662017Y642442D01*
X661516Y642425D01*
G37*
G36*
X645736Y642425D02*
X645279Y642438D01*
X644846Y642478D01*
X644437Y642544D01*
X644051Y642636D01*
X643689Y642755D01*
X643351Y642900D01*
X643036Y643072D01*
X642745Y643270D01*
X642480Y643494D01*
X642243Y643743D01*
X642035Y644018D01*
X641855Y644318D01*
X641703Y644643D01*
X641580Y644994D01*
X641485Y645369D01*
X641418Y645771D01*
X643047Y645919D01*
X643095Y645654D01*
X643158Y645406D01*
X643238Y645175D01*
X643334Y644962D01*
X643445Y644765D01*
X643573Y644585D01*
X643717Y644423D01*
X643877Y644277D01*
X644053Y644149D01*
X644245Y644038D01*
X644454Y643944D01*
X644678Y643867D01*
X644918Y643807D01*
X645175Y643764D01*
X645447Y643738D01*
X645736Y643730D01*
X646026Y643739D01*
X646300Y643767D01*
X646557Y643812D01*
X646799Y643877D01*
X647025Y643959D01*
X647235Y644060D01*
X647428Y644179D01*
X647606Y644317D01*
X647765Y644472D01*
X647903Y644646D01*
X648020Y644837D01*
X648115Y645046D01*
X648189Y645273D01*
X648242Y645517D01*
X648274Y645779D01*
X648285Y646060D01*
X648273Y646305D01*
X648236Y646536D01*
X648176Y646753D01*
X648091Y646956D01*
X647982Y647146D01*
X647849Y647322D01*
X647691Y647484D01*
X647510Y647632D01*
X647305Y647764D01*
X647079Y647879D01*
X646832Y647976D01*
X646563Y648055D01*
X646272Y648117D01*
X645960Y648161D01*
X645627Y648188D01*
X645272Y648197D01*
X644379Y648197D01*
X644379Y649563D01*
X645237Y649563D01*
X645552Y649572D01*
X645849Y649598D01*
X646127Y649642D01*
X646388Y649704D01*
X646630Y649784D01*
X646854Y649881D01*
X647059Y649996D01*
X647247Y650128D01*
X647414Y650276D01*
X647559Y650438D01*
X647682Y650613D01*
X647782Y650801D01*
X647860Y651003D01*
X647916Y651219D01*
X647950Y651449D01*
X647961Y651691D01*
X647952Y651932D01*
X647924Y652160D01*
X647879Y652375D01*
X647815Y652577D01*
X647733Y652766D01*
X647633Y652942D01*
X647515Y653105D01*
X647378Y653255D01*
X647224Y653389D01*
X647052Y653506D01*
X646862Y653604D01*
X646655Y653685D01*
X646430Y653748D01*
X646187Y653793D01*
X645927Y653819D01*
X645649Y653828D01*
X645394Y653820D01*
X645152Y653795D01*
X644923Y653753D01*
X644706Y653695D01*
X644501Y653620D01*
X644309Y653528D01*
X644130Y653419D01*
X643963Y653294D01*
X643810Y653154D01*
X643674Y653000D01*
X643555Y652832D01*
X643453Y652650D01*
X643368Y652455D01*
X643300Y652246D01*
X643248Y652024D01*
X643214Y651788D01*
X641628Y651910D01*
X641686Y652279D01*
X641773Y652626D01*
X641887Y652953D01*
X642030Y653259D01*
X642201Y653544D01*
X642401Y653809D01*
X642629Y654052D01*
X642885Y654275D01*
X643165Y654474D01*
X643465Y654647D01*
X643783Y654793D01*
X644121Y654912D01*
X644479Y655005D01*
X644855Y655072D01*
X645251Y655111D01*
X645666Y655125D01*
X646117Y655111D01*
X646543Y655071D01*
X646942Y655003D01*
X647316Y654909D01*
X647664Y654788D01*
X647986Y654639D01*
X648282Y654464D01*
X648552Y654262D01*
X648793Y654036D01*
X649002Y653788D01*
X649179Y653520D01*
X649324Y653230D01*
X649436Y652918D01*
X649517Y652586D01*
X649565Y652233D01*
X649581Y651858D01*
X649571Y651569D01*
X649540Y651294D01*
X649488Y651033D01*
X649416Y650786D01*
X649323Y650553D01*
X649209Y650333D01*
X649075Y650127D01*
X648920Y649935D01*
X648745Y649758D01*
X648552Y649595D01*
X648340Y649447D01*
X648109Y649315D01*
X647859Y649197D01*
X647590Y649094D01*
X647303Y649006D01*
X646997Y648932D01*
X646997Y648897D01*
X647334Y648850D01*
X647651Y648784D01*
X647949Y648697D01*
X648228Y648591D01*
X648488Y648465D01*
X648728Y648319D01*
X648950Y648154D01*
X649152Y647969D01*
X649333Y647768D01*
X649489Y647554D01*
X649622Y647328D01*
X649730Y647089D01*
X649814Y646837D01*
X649875Y646573D01*
X649911Y646296D01*
X649923Y646007D01*
X649906Y645592D01*
X649855Y645201D01*
X649770Y644835D01*
X649651Y644492D01*
X649498Y644173D01*
X649312Y643879D01*
X649091Y643608D01*
X648837Y643362D01*
X648551Y643142D01*
X648236Y642952D01*
X647892Y642791D01*
X647518Y642659D01*
X647116Y642557D01*
X646685Y642483D01*
X646225Y642440D01*
X645736Y642425D01*
G37*
G36*
X606166Y642600D02*
X604502Y642600D01*
X604502Y653574D01*
X600263Y653574D01*
X600263Y654941D01*
X610405Y654941D01*
X610405Y653574D01*
X606166Y653574D01*
X606166Y642600D01*
G37*
G36*
X625641Y642600D02*
X623994Y642600D01*
X624010Y643195D01*
X624057Y643798D01*
X624135Y644409D01*
X624245Y645027D01*
X624386Y645654D01*
X624558Y646288D01*
X624762Y646930D01*
X624997Y647579D01*
X625269Y648245D01*
X625583Y648936D01*
X625938Y649652D01*
X626336Y650392D01*
X626776Y651157D01*
X627258Y651947D01*
X627782Y652761D01*
X628347Y653601D01*
X621717Y653601D01*
X621717Y654941D01*
X629871Y654941D01*
X629871Y653662D01*
X628995Y652295D01*
X628258Y651085D01*
X627659Y650031D01*
X627200Y649134D01*
X626835Y648318D01*
X626518Y647507D01*
X626250Y646702D01*
X626031Y645902D01*
X625860Y645098D01*
X625738Y644279D01*
X625665Y643447D01*
X625647Y643025D01*
X625641Y642600D01*
G37*
G36*
X655880Y646664D02*
X651501Y646664D01*
X651501Y648065D01*
X655880Y648065D01*
X655880Y646664D01*
G37*
G36*
X661214Y498500D02*
X659725Y498500D01*
X659725Y510841D01*
X661670Y510841D01*
X668344Y500260D01*
X668265Y501741D01*
X668238Y502748D01*
X668238Y510841D01*
X669745Y510841D01*
X669745Y498500D01*
X667730Y498500D01*
X661127Y509010D01*
X661170Y508161D01*
X661214Y506698D01*
X661214Y498500D01*
G37*
G36*
X657478Y498500D02*
X647756Y498500D01*
X647756Y510841D01*
X657119Y510841D01*
X657119Y509474D01*
X649429Y509474D01*
X649429Y505516D01*
X656594Y505516D01*
X656594Y504167D01*
X649429Y504167D01*
X649429Y499866D01*
X657478Y499866D01*
X657478Y498500D01*
G37*
G36*
X640360Y498325D02*
X639811Y498337D01*
X639291Y498374D01*
X638801Y498435D01*
X638341Y498521D01*
X637911Y498631D01*
X637510Y498766D01*
X637139Y498925D01*
X636797Y499109D01*
X636485Y499317D01*
X636203Y499550D01*
X635950Y499807D01*
X635727Y500089D01*
X635533Y500395D01*
X635370Y500725D01*
X635235Y501081D01*
X635131Y501460D01*
X636751Y501784D01*
X636831Y501516D01*
X636931Y501265D01*
X637050Y501033D01*
X637189Y500820D01*
X637348Y500625D01*
X637526Y500449D01*
X637724Y500291D01*
X637942Y500151D01*
X638180Y500029D01*
X638439Y499923D01*
X638718Y499833D01*
X639017Y499760D01*
X639337Y499703D01*
X639678Y499662D01*
X640039Y499638D01*
X640421Y499630D01*
X640814Y499639D01*
X641185Y499665D01*
X641532Y499708D01*
X641856Y499769D01*
X642157Y499847D01*
X642435Y499943D01*
X642690Y500056D01*
X642922Y500186D01*
X643128Y500333D01*
X643307Y500497D01*
X643458Y500676D01*
X643582Y500872D01*
X643678Y501085D01*
X643747Y501313D01*
X643788Y501558D01*
X643802Y501819D01*
X643785Y502107D01*
X643733Y502367D01*
X643647Y502598D01*
X643526Y502800D01*
X643374Y502981D01*
X643194Y503144D01*
X642986Y503291D01*
X642751Y503422D01*
X642489Y503540D01*
X642203Y503648D01*
X641893Y503746D01*
X641560Y503834D01*
X640027Y504193D01*
X639340Y504355D01*
X638740Y504517D01*
X638229Y504679D01*
X637807Y504841D01*
X637448Y505008D01*
X637129Y505184D01*
X636850Y505369D01*
X636611Y505564D01*
X636405Y505772D01*
X636225Y505996D01*
X636070Y506238D01*
X635941Y506497D01*
X635839Y506774D01*
X635767Y507070D01*
X635723Y507387D01*
X635709Y507723D01*
X635728Y508108D01*
X635785Y508470D01*
X635879Y508809D01*
X636012Y509126D01*
X636183Y509420D01*
X636391Y509692D01*
X636638Y509940D01*
X636922Y510166D01*
X637242Y510368D01*
X637594Y510542D01*
X637979Y510689D01*
X638397Y510810D01*
X638847Y510904D01*
X639330Y510971D01*
X639846Y511011D01*
X640395Y511025D01*
X640905Y511015D01*
X641384Y510984D01*
X641832Y510934D01*
X642249Y510864D01*
X642636Y510773D01*
X642991Y510663D01*
X643316Y510532D01*
X643609Y510381D01*
X643877Y510206D01*
X644124Y510002D01*
X644350Y509771D01*
X644555Y509511D01*
X644739Y509222D01*
X644903Y508905D01*
X645046Y508560D01*
X645168Y508187D01*
X643521Y507898D01*
X643446Y508135D01*
X643355Y508355D01*
X643249Y508558D01*
X643127Y508744D01*
X642990Y508914D01*
X642838Y509066D01*
X642671Y509202D01*
X642488Y509321D01*
X642288Y509425D01*
X642070Y509515D01*
X641834Y509591D01*
X641579Y509653D01*
X641306Y509701D01*
X641015Y509736D01*
X640705Y509757D01*
X640377Y509763D01*
X640018Y509756D01*
X639681Y509733D01*
X639366Y509695D01*
X639072Y509641D01*
X638801Y509572D01*
X638551Y509488D01*
X638323Y509388D01*
X638117Y509273D01*
X637935Y509143D01*
X637776Y508998D01*
X637642Y508837D01*
X637533Y508662D01*
X637448Y508472D01*
X637387Y508266D01*
X637350Y508046D01*
X637338Y507810D01*
X637357Y507538D01*
X637413Y507290D01*
X637508Y507067D01*
X637640Y506869D01*
X637808Y506690D01*
X638009Y506525D01*
X638244Y506374D01*
X638512Y506238D01*
X638867Y506102D01*
X639363Y505950D01*
X640001Y505784D01*
X640780Y505603D01*
X641914Y505336D01*
X642467Y505187D01*
X642996Y505012D01*
X643496Y504807D01*
X643964Y504570D01*
X644182Y504436D01*
X644385Y504287D01*
X644574Y504125D01*
X644748Y503948D01*
X644905Y503756D01*
X645044Y503547D01*
X645166Y503322D01*
X645269Y503081D01*
X645351Y502820D01*
X645410Y502538D01*
X645445Y502233D01*
X645457Y501907D01*
X645436Y501492D01*
X645374Y501101D01*
X645269Y500735D01*
X645123Y500392D01*
X644935Y500073D01*
X644706Y499779D01*
X644434Y499508D01*
X644121Y499262D01*
X643770Y499042D01*
X643385Y498852D01*
X642966Y498691D01*
X642513Y498559D01*
X642026Y498457D01*
X641505Y498383D01*
X640949Y498340D01*
X640360Y498325D01*
G37*
G36*
X676066Y498325D02*
X675645Y498337D01*
X675245Y498372D01*
X674866Y498431D01*
X674507Y498513D01*
X674169Y498619D01*
X673852Y498749D01*
X673556Y498902D01*
X673281Y499078D01*
X673028Y499277D01*
X672800Y499497D01*
X672596Y499738D01*
X672416Y500000D01*
X672261Y500283D01*
X672130Y500587D01*
X672023Y500913D01*
X671941Y501259D01*
X673535Y501443D01*
X673603Y501221D01*
X673684Y501014D01*
X673777Y500821D01*
X673882Y500642D01*
X674000Y500478D01*
X674130Y500327D01*
X674272Y500192D01*
X674426Y500070D01*
X674592Y499963D01*
X674771Y499870D01*
X674962Y499791D01*
X675165Y499727D01*
X675381Y499677D01*
X675609Y499641D01*
X675849Y499619D01*
X676101Y499612D01*
X676410Y499624D01*
X676702Y499660D01*
X676976Y499720D01*
X677233Y499804D01*
X677473Y499912D01*
X677696Y500043D01*
X677901Y500199D01*
X678089Y500379D01*
X678258Y500579D01*
X678403Y500798D01*
X678527Y501034D01*
X678628Y501289D01*
X678706Y501561D01*
X678763Y501851D01*
X678796Y502159D01*
X678807Y502485D01*
X678796Y502769D01*
X678762Y503040D01*
X678706Y503296D01*
X678627Y503538D01*
X678525Y503767D01*
X678401Y503981D01*
X678254Y504182D01*
X678085Y504368D01*
X677896Y504537D01*
X677692Y504682D01*
X677472Y504806D01*
X677236Y504907D01*
X676985Y504985D01*
X676718Y505042D01*
X676435Y505075D01*
X676136Y505086D01*
X675822Y505074D01*
X675519Y505036D01*
X675226Y504973D01*
X674945Y504885D01*
X674669Y504767D01*
X674393Y504613D01*
X674117Y504425D01*
X673841Y504202D01*
X672300Y504202D01*
X672711Y510841D01*
X679727Y510841D01*
X679727Y509501D01*
X674148Y509501D01*
X673911Y505586D01*
X674175Y505770D01*
X674455Y505931D01*
X674750Y506066D01*
X675061Y506177D01*
X675387Y506263D01*
X675729Y506325D01*
X676087Y506362D01*
X676460Y506374D01*
X676904Y506357D01*
X677325Y506307D01*
X677722Y506224D01*
X678097Y506107D01*
X678448Y505957D01*
X678776Y505773D01*
X679082Y505556D01*
X679364Y505305D01*
X679617Y505028D01*
X679837Y504731D01*
X680023Y504413D01*
X680175Y504075D01*
X680293Y503717D01*
X680378Y503338D01*
X680428Y502939D01*
X680445Y502520D01*
X680427Y502045D01*
X680373Y501596D01*
X680282Y501172D01*
X680155Y500775D01*
X679992Y500404D01*
X679792Y500058D01*
X679557Y499739D01*
X679285Y499446D01*
X678981Y499183D01*
X678648Y498955D01*
X678288Y498763D01*
X677900Y498605D01*
X677483Y498483D01*
X677039Y498395D01*
X676567Y498342D01*
X676066Y498325D01*
G37*
G36*
X683442Y498500D02*
X681594Y498500D01*
X686289Y504911D01*
X681953Y510841D01*
X683801Y510841D01*
X687235Y505997D01*
X690572Y510841D01*
X692420Y510841D01*
X688198Y504973D01*
X692779Y498500D01*
X690931Y498500D01*
X687226Y503895D01*
X683442Y498500D01*
G37*
G36*
X537028Y490900D02*
X535355Y490900D01*
X535355Y503241D01*
X537028Y503241D01*
X537028Y490900D01*
G37*
G36*
X550580Y491776D02*
X549950Y491776D01*
X550219Y492311D01*
X550482Y492777D01*
X550740Y493173D01*
X550992Y493501D01*
X542330Y493501D01*
X542330Y494255D01*
X550992Y494255D01*
X550740Y494582D01*
X550482Y494979D01*
X550219Y495445D01*
X549950Y495980D01*
X550580Y495980D01*
X550861Y495664D01*
X551145Y495369D01*
X551434Y495095D01*
X551728Y494841D01*
X552026Y494609D01*
X552328Y494397D01*
X552634Y494206D01*
X552945Y494036D01*
X552945Y493720D01*
X552634Y493550D01*
X552328Y493359D01*
X552026Y493147D01*
X551728Y492914D01*
X551434Y492661D01*
X551145Y492387D01*
X550861Y492092D01*
X550580Y491776D01*
G37*
G36*
X141745Y89297D02*
X140457Y89297D01*
X140457Y93046D01*
X136744Y93046D01*
X136744Y94325D01*
X140457Y94325D01*
X140457Y98073D01*
X141745Y98073D01*
X141745Y94325D01*
X145459Y94325D01*
X145459Y93046D01*
X141745Y93046D01*
X141745Y89297D01*
G37*
G36*
X194087Y94185D02*
X189708Y94185D01*
X189708Y95586D01*
X194087Y95586D01*
X194087Y94185D01*
G37*
G36*
X180788Y79554D02*
X179733Y79554D01*
X182752Y86950D01*
X183791Y86950D01*
X186809Y79554D01*
X185754Y79554D01*
X183707Y84761D01*
X183266Y86068D01*
X182825Y84761D01*
X180788Y79554D01*
G37*
G36*
X174032Y81166D02*
X173807Y81173D01*
X173597Y81195D01*
X173402Y81231D01*
X173223Y81282D01*
X173060Y81347D01*
X172913Y81427D01*
X172781Y81521D01*
X172665Y81630D01*
X172564Y81756D01*
X172476Y81900D01*
X172401Y82064D01*
X172340Y82246D01*
X172293Y82448D01*
X172259Y82668D01*
X172239Y82907D01*
X172232Y83165D01*
X172232Y86950D01*
X173182Y86950D01*
X173182Y83349D01*
X173189Y83084D01*
X173210Y82851D01*
X173244Y82648D01*
X173292Y82478D01*
X173356Y82334D01*
X173435Y82211D01*
X173531Y82111D01*
X173644Y82032D01*
X173779Y81972D01*
X173942Y81929D01*
X174133Y81904D01*
X174353Y81895D01*
X174519Y81903D01*
X174676Y81924D01*
X174824Y81961D01*
X174963Y82012D01*
X175093Y82078D01*
X175214Y82158D01*
X175326Y82253D01*
X175429Y82362D01*
X175521Y82485D01*
X175601Y82619D01*
X175669Y82764D01*
X175724Y82920D01*
X175767Y83088D01*
X175798Y83267D01*
X175816Y83457D01*
X175822Y83659D01*
X175822Y86950D01*
X176767Y86950D01*
X176767Y82483D01*
X176775Y81684D01*
X176799Y81271D01*
X175906Y81271D01*
X175896Y81412D01*
X175883Y81677D01*
X175864Y82242D01*
X175849Y82242D01*
X175679Y81969D01*
X175498Y81740D01*
X175303Y81553D01*
X175095Y81410D01*
X174868Y81303D01*
X174616Y81227D01*
X174337Y81181D01*
X174032Y81166D01*
G37*
G36*
X179168Y81271D02*
X178224Y81271D01*
X178224Y86950D01*
X179168Y86950D01*
X179168Y81271D01*
G37*
G36*
X179168Y79160D02*
X178224Y79160D01*
X178224Y80063D01*
X179168Y80063D01*
X179168Y79160D01*
G37*
G36*
X167145Y89297D02*
X165857Y89297D01*
X165857Y93046D01*
X162144Y93046D01*
X162144Y94325D01*
X165857Y94325D01*
X165857Y98073D01*
X167145Y98073D01*
X167145Y94325D01*
X170859Y94325D01*
X170859Y93046D01*
X167145Y93046D01*
X167145Y89297D01*
G37*
G36*
X110013Y89714D02*
X109110Y89714D01*
X109110Y97110D01*
X110317Y97110D01*
X114275Y90811D01*
X114249Y91320D01*
X114223Y92197D01*
X114223Y97110D01*
X115115Y97110D01*
X115115Y89714D01*
X113950Y89714D01*
X109950Y96055D01*
X109997Y95168D01*
X110013Y94564D01*
X110013Y89714D01*
G37*
G36*
X122271Y89714D02*
X116660Y89714D01*
X116660Y90533D01*
X121269Y90533D01*
X121269Y92906D01*
X116975Y92906D01*
X116975Y93714D01*
X121269Y93714D01*
X121269Y96291D01*
X116445Y96291D01*
X116445Y97110D01*
X122271Y97110D01*
X122271Y89714D01*
G37*
G36*
X124116Y79554D02*
X123072Y79554D01*
X125250Y86950D01*
X126447Y86950D01*
X127728Y82252D01*
X127882Y81637D01*
X128095Y80672D01*
X128326Y81691D01*
X128731Y83210D01*
X129759Y86950D01*
X130956Y86950D01*
X133134Y79554D01*
X132089Y79554D01*
X130761Y84252D01*
X130534Y85147D01*
X130326Y86068D01*
X130034Y84808D01*
X129588Y83154D01*
X128578Y79554D01*
X127617Y79554D01*
X126331Y84158D01*
X126069Y85199D01*
X125869Y86068D01*
X125822Y85884D01*
X125591Y84900D01*
X125178Y83373D01*
X124116Y79554D01*
G37*
G36*
X136695Y79444D02*
X136389Y79450D01*
X136102Y79468D01*
X135833Y79498D01*
X135583Y79540D01*
X135352Y79595D01*
X135139Y79661D01*
X134944Y79739D01*
X134768Y79830D01*
X134608Y79935D01*
X134460Y80057D01*
X134324Y80195D01*
X134201Y80351D01*
X134091Y80524D01*
X133993Y80714D01*
X133907Y80921D01*
X133834Y81145D01*
X134821Y81318D01*
X134921Y81044D01*
X135057Y80811D01*
X135230Y80618D01*
X135440Y80465D01*
X135691Y80349D01*
X135985Y80266D01*
X136323Y80216D01*
X136705Y80200D01*
X137123Y80218D01*
X137487Y80273D01*
X137800Y80365D01*
X138059Y80494D01*
X138264Y80659D01*
X138344Y80755D01*
X138410Y80860D01*
X138461Y80974D01*
X138497Y81097D01*
X138519Y81229D01*
X138527Y81370D01*
X138515Y81534D01*
X138481Y81682D01*
X138425Y81816D01*
X138346Y81935D01*
X138245Y82042D01*
X138124Y82141D01*
X137984Y82231D01*
X137823Y82313D01*
X137610Y82394D01*
X137313Y82485D01*
X136464Y82693D01*
X135784Y82853D01*
X135453Y82942D01*
X135136Y83047D01*
X134836Y83170D01*
X134556Y83312D01*
X134303Y83482D01*
X134086Y83685D01*
X133908Y83925D01*
X133774Y84205D01*
X133724Y84361D01*
X133689Y84530D01*
X133668Y84713D01*
X133661Y84908D01*
X133673Y85157D01*
X133711Y85391D01*
X133773Y85611D01*
X133861Y85816D01*
X133973Y86007D01*
X134111Y86184D01*
X134274Y86346D01*
X134461Y86493D01*
X134672Y86625D01*
X134902Y86739D01*
X135154Y86836D01*
X135425Y86915D01*
X135717Y86976D01*
X136030Y87020D01*
X136362Y87046D01*
X136716Y87055D01*
X137045Y87048D01*
X137356Y87026D01*
X137650Y86989D01*
X137925Y86938D01*
X138183Y86872D01*
X138424Y86791D01*
X138646Y86695D01*
X138851Y86585D01*
X139038Y86460D01*
X139207Y86321D01*
X139358Y86167D01*
X139492Y85998D01*
X139608Y85814D01*
X139706Y85616D01*
X139787Y85403D01*
X139849Y85176D01*
X138878Y84982D01*
X138771Y85293D01*
X138616Y85560D01*
X138414Y85782D01*
X138164Y85961D01*
X137867Y86097D01*
X137520Y86195D01*
X137124Y86253D01*
X136679Y86273D01*
X136221Y86252D01*
X135819Y86190D01*
X135472Y86085D01*
X135180Y85940D01*
X135057Y85851D01*
X134950Y85753D01*
X134859Y85646D01*
X134785Y85528D01*
X134727Y85401D01*
X134686Y85264D01*
X134661Y85117D01*
X134653Y84961D01*
X134663Y84788D01*
X134694Y84633D01*
X134746Y84494D01*
X134818Y84373D01*
X134909Y84265D01*
X135017Y84167D01*
X135141Y84078D01*
X135283Y84000D01*
X135611Y83865D01*
X135997Y83753D01*
X136915Y83538D01*
X137686Y83344D01*
X137992Y83247D01*
X138246Y83150D01*
X138461Y83050D01*
X138652Y82944D01*
X138819Y82833D01*
X138962Y82717D01*
X139086Y82592D01*
X139194Y82458D01*
X139287Y82313D01*
X139364Y82158D01*
X139425Y81992D01*
X139468Y81814D01*
X139494Y81624D01*
X139503Y81423D01*
X139492Y81192D01*
X139457Y80975D01*
X139401Y80772D01*
X139321Y80582D01*
X139219Y80405D01*
X139094Y80243D01*
X138946Y80094D01*
X138776Y79958D01*
X138584Y79838D01*
X138373Y79733D01*
X138142Y79645D01*
X137892Y79573D01*
X137622Y79516D01*
X137333Y79476D01*
X137023Y79452D01*
X136695Y79444D01*
G37*
G36*
X122784Y79554D02*
X116705Y79554D01*
X116705Y80373D01*
X119246Y80373D01*
X119246Y86950D01*
X120243Y86950D01*
X120243Y80373D01*
X122784Y80373D01*
X122784Y79554D01*
G37*
G36*
X75419Y146500D02*
X70409Y146500D01*
X70409Y158841D01*
X74893Y158841D01*
X75419Y158829D01*
X75911Y158794D01*
X76370Y158735D01*
X76794Y158654D01*
X77184Y158548D01*
X77541Y158420D01*
X77863Y158267D01*
X78151Y158092D01*
X78406Y157893D01*
X78627Y157671D01*
X78813Y157425D01*
X78966Y157156D01*
X79085Y156863D01*
X79170Y156547D01*
X79221Y156208D01*
X79238Y155845D01*
X79228Y155577D01*
X79199Y155320D01*
X79151Y155074D01*
X79084Y154838D01*
X78998Y154614D01*
X78893Y154400D01*
X78768Y154198D01*
X78624Y154006D01*
X78463Y153828D01*
X78364Y153736D01*
X78286Y153664D01*
X78093Y153517D01*
X77884Y153384D01*
X77660Y153267D01*
X77419Y153165D01*
X77163Y153079D01*
X76890Y153008D01*
X77248Y152954D01*
X77584Y152880D01*
X77899Y152787D01*
X78193Y152674D01*
X78466Y152541D01*
X78718Y152388D01*
X78949Y152215D01*
X79046Y152126D01*
X79159Y152022D01*
X79346Y151813D01*
X79507Y151591D01*
X79644Y151355D01*
X79756Y151106D01*
X79844Y150844D01*
X79906Y150568D01*
X79943Y150279D01*
X79956Y149977D01*
X79937Y149577D01*
X79881Y149200D01*
X79787Y148845D01*
X79656Y148513D01*
X79487Y148205D01*
X79281Y147919D01*
X79037Y147656D01*
X78756Y147415D01*
X78441Y147201D01*
X78097Y147015D01*
X77724Y146858D01*
X77322Y146729D01*
X76890Y146629D01*
X76429Y146557D01*
X75938Y146514D01*
X75419Y146500D01*
G37*
%LPC*%
G36*
X75331Y147840D02*
X75701Y147849D01*
X76046Y147876D01*
X76364Y147920D01*
X76656Y147982D01*
X76922Y148062D01*
X77162Y148160D01*
X77376Y148276D01*
X77565Y148409D01*
X77729Y148560D01*
X77871Y148729D01*
X77992Y148915D01*
X78090Y149119D01*
X78167Y149340D01*
X78222Y149579D01*
X78254Y149835D01*
X78265Y150109D01*
X78253Y150373D01*
X78217Y150620D01*
X78158Y150850D01*
X78074Y151063D01*
X77966Y151259D01*
X77834Y151437D01*
X77679Y151599D01*
X77499Y151744D01*
X77295Y151872D01*
X77068Y151983D01*
X76816Y152076D01*
X76541Y152153D01*
X76242Y152213D01*
X75918Y152255D01*
X75571Y152281D01*
X75200Y152289D01*
X72082Y152289D01*
X72082Y147840D01*
X75331Y147840D01*
G37*
G36*
X74893Y153594D02*
X75218Y153602D01*
X75521Y153626D01*
X75803Y153665D01*
X76064Y153720D01*
X76303Y153791D01*
X76522Y153878D01*
X76719Y153980D01*
X76895Y154098D01*
X77050Y154232D01*
X77184Y154384D01*
X77298Y154551D01*
X77391Y154736D01*
X77463Y154938D01*
X77515Y155156D01*
X77546Y155392D01*
X77556Y155644D01*
X77545Y155885D01*
X77513Y156108D01*
X77460Y156313D01*
X77385Y156500D01*
X77289Y156670D01*
X77172Y156821D01*
X77033Y156955D01*
X76873Y157072D01*
X76692Y157172D01*
X76493Y157259D01*
X76274Y157333D01*
X76036Y157393D01*
X75779Y157440D01*
X75503Y157474D01*
X75208Y157494D01*
X74893Y157501D01*
X72082Y157501D01*
X72082Y153594D01*
X74893Y153594D01*
G37*
%LPD*%
G36*
X60113Y146500D02*
X58440Y146500D01*
X58440Y158841D01*
X63634Y158841D01*
X64138Y158826D01*
X64613Y158780D01*
X65059Y158704D01*
X65475Y158598D01*
X65863Y158461D01*
X66221Y158294D01*
X66549Y158096D01*
X66848Y157869D01*
X67115Y157613D01*
X67347Y157333D01*
X67542Y157027D01*
X67702Y156697D01*
X67827Y156342D01*
X67916Y155962D01*
X67969Y155557D01*
X67987Y155127D01*
X67969Y154700D01*
X67916Y154296D01*
X67826Y153914D01*
X67701Y153555D01*
X67541Y153218D01*
X67344Y152904D01*
X67112Y152612D01*
X66844Y152342D01*
X66545Y152100D01*
X66221Y151890D01*
X65872Y151712D01*
X65496Y151567D01*
X65095Y151454D01*
X64669Y151373D01*
X64217Y151325D01*
X63739Y151308D01*
X60113Y151308D01*
X60113Y146500D01*
G37*
%LPC*%
G36*
X63503Y152631D02*
X63842Y152641D01*
X64160Y152670D01*
X64455Y152718D01*
X64729Y152786D01*
X64981Y152873D01*
X65211Y152980D01*
X65419Y153105D01*
X65605Y153251D01*
X65769Y153415D01*
X65911Y153599D01*
X66032Y153803D01*
X66130Y154025D01*
X66207Y154267D01*
X66262Y154529D01*
X66294Y154809D01*
X66305Y155110D01*
X66294Y155399D01*
X66260Y155670D01*
X66204Y155922D01*
X66126Y156156D01*
X66025Y156371D01*
X65901Y156567D01*
X65755Y156744D01*
X65587Y156903D01*
X65396Y157043D01*
X65183Y157164D01*
X64948Y157267D01*
X64689Y157351D01*
X64409Y157417D01*
X64106Y157463D01*
X63780Y157491D01*
X63433Y157501D01*
X60113Y157501D01*
X60113Y152631D01*
X63503Y152631D01*
G37*
%LPD*%
G36*
X82675Y146500D02*
X80941Y146500D01*
X85977Y158841D01*
X87878Y158841D01*
X92835Y146500D01*
X91127Y146500D01*
X89717Y150109D01*
X84094Y150109D01*
X82675Y146500D01*
G37*
%LPC*%
G36*
X89218Y151414D02*
X87633Y155486D01*
X87388Y156130D01*
X87142Y156853D01*
X86906Y157580D01*
X86827Y157334D01*
X86556Y156504D01*
X86179Y155469D01*
X84602Y151414D01*
X89218Y151414D01*
G37*
%LPD*%
G36*
X52306Y146500D02*
X50642Y146500D01*
X50642Y157474D01*
X46403Y157474D01*
X46403Y158841D01*
X56545Y158841D01*
X56545Y157474D01*
X52306Y157474D01*
X52306Y146500D01*
G37*
G36*
X97837Y146500D02*
X96173Y146500D01*
X96173Y157474D01*
X91934Y157474D01*
X91934Y158841D01*
X102077Y158841D01*
X102077Y157474D01*
X97837Y157474D01*
X97837Y146500D01*
G37*
G36*
X60113Y181500D02*
X58440Y181500D01*
X58440Y193841D01*
X63634Y193841D01*
X64138Y193826D01*
X64613Y193780D01*
X65059Y193704D01*
X65475Y193598D01*
X65863Y193461D01*
X66221Y193294D01*
X66549Y193096D01*
X66848Y192869D01*
X67115Y192613D01*
X67347Y192333D01*
X67542Y192027D01*
X67702Y191697D01*
X67827Y191342D01*
X67916Y190962D01*
X67969Y190557D01*
X67987Y190127D01*
X67969Y189700D01*
X67916Y189296D01*
X67826Y188914D01*
X67701Y188555D01*
X67541Y188218D01*
X67344Y187904D01*
X67112Y187612D01*
X66844Y187342D01*
X66545Y187100D01*
X66221Y186890D01*
X65872Y186712D01*
X65496Y186567D01*
X65095Y186454D01*
X64669Y186373D01*
X64217Y186325D01*
X63739Y186308D01*
X60113Y186308D01*
X60113Y181500D01*
G37*
%LPC*%
G36*
X63503Y187631D02*
X63842Y187641D01*
X64160Y187670D01*
X64455Y187718D01*
X64729Y187786D01*
X64981Y187873D01*
X65211Y187980D01*
X65419Y188105D01*
X65605Y188251D01*
X65769Y188415D01*
X65911Y188599D01*
X66032Y188803D01*
X66130Y189025D01*
X66207Y189267D01*
X66262Y189529D01*
X66294Y189809D01*
X66305Y190110D01*
X66294Y190399D01*
X66260Y190670D01*
X66204Y190922D01*
X66126Y191156D01*
X66025Y191371D01*
X65901Y191567D01*
X65755Y191744D01*
X65587Y191903D01*
X65396Y192043D01*
X65183Y192164D01*
X64948Y192267D01*
X64689Y192351D01*
X64409Y192417D01*
X64106Y192463D01*
X63780Y192491D01*
X63433Y192501D01*
X60113Y192501D01*
X60113Y187631D01*
X63503Y187631D01*
G37*
%LPD*%
G36*
X88835Y181500D02*
X87346Y181500D01*
X87346Y193841D01*
X89291Y193841D01*
X95965Y183260D01*
X95886Y184741D01*
X95860Y185748D01*
X95860Y193841D01*
X97366Y193841D01*
X97366Y181500D01*
X95352Y181500D01*
X88748Y192010D01*
X88792Y191161D01*
X88835Y189698D01*
X88835Y181500D01*
G37*
G36*
X75787Y181500D02*
X74052Y181500D01*
X69016Y193841D01*
X70777Y193841D01*
X74193Y185152D01*
X74928Y182971D01*
X75664Y185152D01*
X79062Y193841D01*
X80823Y193841D01*
X75787Y181500D01*
G37*
G36*
X52306Y181500D02*
X50642Y181500D01*
X50642Y192474D01*
X46403Y192474D01*
X46403Y193841D01*
X56545Y193841D01*
X56545Y192474D01*
X52306Y192474D01*
X52306Y181500D01*
G37*
G36*
X84234Y181500D02*
X82562Y181500D01*
X82562Y193841D01*
X84234Y193841D01*
X84234Y181500D01*
G37*
G36*
X60113Y111500D02*
X58440Y111500D01*
X58440Y123841D01*
X63634Y123841D01*
X64138Y123826D01*
X64613Y123780D01*
X65059Y123704D01*
X65475Y123598D01*
X65863Y123461D01*
X66221Y123294D01*
X66549Y123096D01*
X66848Y122869D01*
X67115Y122613D01*
X67347Y122333D01*
X67542Y122027D01*
X67702Y121697D01*
X67827Y121342D01*
X67916Y120962D01*
X67969Y120557D01*
X67987Y120127D01*
X67969Y119700D01*
X67916Y119296D01*
X67826Y118914D01*
X67701Y118555D01*
X67541Y118218D01*
X67344Y117904D01*
X67112Y117612D01*
X66844Y117342D01*
X66545Y117100D01*
X66221Y116890D01*
X65872Y116712D01*
X65496Y116567D01*
X65095Y116454D01*
X64669Y116373D01*
X64217Y116325D01*
X63739Y116308D01*
X60113Y116308D01*
X60113Y111500D01*
G37*
%LPC*%
G36*
X63503Y117631D02*
X63842Y117641D01*
X64160Y117670D01*
X64455Y117718D01*
X64729Y117786D01*
X64981Y117873D01*
X65211Y117980D01*
X65419Y118105D01*
X65605Y118251D01*
X65769Y118415D01*
X65911Y118599D01*
X66032Y118803D01*
X66130Y119025D01*
X66207Y119267D01*
X66262Y119529D01*
X66294Y119809D01*
X66305Y120110D01*
X66294Y120399D01*
X66260Y120670D01*
X66204Y120922D01*
X66126Y121156D01*
X66025Y121371D01*
X65901Y121567D01*
X65755Y121744D01*
X65587Y121903D01*
X65396Y122043D01*
X65183Y122164D01*
X64948Y122267D01*
X64689Y122351D01*
X64409Y122417D01*
X64106Y122463D01*
X63780Y122491D01*
X63433Y122501D01*
X60113Y122501D01*
X60113Y117631D01*
X63503Y117631D01*
G37*
%LPD*%
G36*
X73781Y111325D02*
X73360Y111337D01*
X72960Y111372D01*
X72581Y111431D01*
X72222Y111513D01*
X71884Y111619D01*
X71567Y111749D01*
X71271Y111902D01*
X70996Y112078D01*
X70743Y112277D01*
X70515Y112497D01*
X70311Y112738D01*
X70131Y113000D01*
X69976Y113283D01*
X69845Y113587D01*
X69738Y113913D01*
X69656Y114259D01*
X71250Y114443D01*
X71318Y114221D01*
X71399Y114014D01*
X71492Y113821D01*
X71597Y113642D01*
X71715Y113478D01*
X71845Y113327D01*
X71987Y113192D01*
X72141Y113070D01*
X72307Y112963D01*
X72486Y112870D01*
X72677Y112791D01*
X72880Y112727D01*
X73096Y112677D01*
X73324Y112641D01*
X73564Y112619D01*
X73816Y112612D01*
X74125Y112624D01*
X74417Y112660D01*
X74691Y112720D01*
X74948Y112804D01*
X75188Y112912D01*
X75411Y113043D01*
X75616Y113199D01*
X75804Y113379D01*
X75973Y113579D01*
X76118Y113798D01*
X76242Y114034D01*
X76343Y114289D01*
X76421Y114561D01*
X76478Y114851D01*
X76511Y115159D01*
X76522Y115485D01*
X76511Y115769D01*
X76477Y116040D01*
X76421Y116296D01*
X76342Y116538D01*
X76240Y116767D01*
X76116Y116981D01*
X75969Y117182D01*
X75800Y117368D01*
X75611Y117537D01*
X75407Y117682D01*
X75187Y117806D01*
X74951Y117907D01*
X74700Y117985D01*
X74433Y118042D01*
X74150Y118075D01*
X73851Y118086D01*
X73537Y118074D01*
X73234Y118036D01*
X72941Y117973D01*
X72660Y117885D01*
X72384Y117767D01*
X72108Y117613D01*
X71832Y117425D01*
X71556Y117202D01*
X70015Y117202D01*
X70426Y123841D01*
X77442Y123841D01*
X77442Y122501D01*
X71863Y122501D01*
X71626Y118586D01*
X71890Y118770D01*
X72170Y118931D01*
X72465Y119066D01*
X72776Y119177D01*
X73102Y119263D01*
X73444Y119325D01*
X73802Y119362D01*
X74175Y119374D01*
X74619Y119357D01*
X75040Y119307D01*
X75437Y119224D01*
X75812Y119107D01*
X76163Y118957D01*
X76491Y118773D01*
X76797Y118556D01*
X77079Y118305D01*
X77332Y118028D01*
X77552Y117731D01*
X77738Y117413D01*
X77890Y117075D01*
X78008Y116717D01*
X78093Y116338D01*
X78143Y115939D01*
X78160Y115520D01*
X78142Y115045D01*
X78088Y114596D01*
X77997Y114172D01*
X77870Y113775D01*
X77707Y113404D01*
X77507Y113058D01*
X77272Y112739D01*
X77000Y112446D01*
X76696Y112183D01*
X76363Y111955D01*
X76003Y111763D01*
X75615Y111605D01*
X75198Y111483D01*
X74754Y111395D01*
X74282Y111342D01*
X73781Y111325D01*
G37*
G36*
X85755Y111500D02*
X84021Y111500D01*
X78985Y123841D01*
X80746Y123841D01*
X84161Y115152D01*
X84897Y112971D01*
X85633Y115152D01*
X89031Y123841D01*
X90792Y123841D01*
X85755Y111500D01*
G37*
G36*
X52306Y111500D02*
X50642Y111500D01*
X50642Y122474D01*
X46403Y122474D01*
X46403Y123841D01*
X56545Y123841D01*
X56545Y122474D01*
X52306Y122474D01*
X52306Y111500D01*
G37*
G36*
X86993Y321500D02*
X82378Y321500D01*
X82378Y333841D01*
X86459Y333841D01*
X86846Y333835D01*
X87221Y333816D01*
X87585Y333786D01*
X87937Y333743D01*
X88279Y333687D01*
X88609Y333620D01*
X88929Y333540D01*
X89237Y333448D01*
X89534Y333343D01*
X89819Y333227D01*
X90094Y333098D01*
X90357Y332956D01*
X90609Y332803D01*
X90850Y332637D01*
X91080Y332459D01*
X91298Y332269D01*
X91505Y332067D01*
X91698Y331855D01*
X91877Y331632D01*
X92044Y331400D01*
X92197Y331156D01*
X92336Y330903D01*
X92463Y330639D01*
X92576Y330365D01*
X92676Y330080D01*
X92762Y329785D01*
X92835Y329480D01*
X92895Y329164D01*
X92942Y328838D01*
X92975Y328501D01*
X92995Y328155D01*
X93002Y327797D01*
X92990Y327328D01*
X92955Y326873D01*
X92897Y326432D01*
X92816Y326007D01*
X92711Y325597D01*
X92583Y325202D01*
X92432Y324821D01*
X92257Y324456D01*
X92061Y324108D01*
X91846Y323782D01*
X91612Y323476D01*
X91357Y323191D01*
X91084Y322928D01*
X90791Y322685D01*
X90478Y322463D01*
X90147Y322262D01*
X89798Y322083D01*
X89437Y321929D01*
X89063Y321798D01*
X88675Y321690D01*
X88274Y321607D01*
X87861Y321548D01*
X87434Y321512D01*
X86993Y321500D01*
G37*
%LPC*%
G36*
X86801Y322840D02*
X87135Y322849D01*
X87459Y322877D01*
X87773Y322924D01*
X88076Y322989D01*
X88369Y323073D01*
X88652Y323175D01*
X88925Y323296D01*
X89187Y323436D01*
X89437Y323593D01*
X89672Y323766D01*
X89892Y323956D01*
X90097Y324163D01*
X90287Y324385D01*
X90463Y324625D01*
X90623Y324880D01*
X90768Y325152D01*
X90898Y325439D01*
X91010Y325738D01*
X91105Y326050D01*
X91182Y326374D01*
X91243Y326711D01*
X91286Y327061D01*
X91312Y327423D01*
X91320Y327797D01*
X91301Y328354D01*
X91242Y328877D01*
X91143Y329365D01*
X91006Y329820D01*
X90829Y330240D01*
X90613Y330626D01*
X90358Y330978D01*
X90063Y331296D01*
X89732Y331579D01*
X89365Y331823D01*
X88962Y332030D01*
X88525Y332200D01*
X88053Y332331D01*
X87545Y332425D01*
X87002Y332482D01*
X86424Y332501D01*
X84051Y332501D01*
X84051Y322840D01*
X86801Y322840D01*
G37*
%LPD*%
G36*
X60113Y321500D02*
X58440Y321500D01*
X58440Y333841D01*
X63634Y333841D01*
X64138Y333826D01*
X64613Y333780D01*
X65059Y333704D01*
X65475Y333598D01*
X65863Y333461D01*
X66221Y333294D01*
X66549Y333096D01*
X66848Y332869D01*
X67115Y332613D01*
X67347Y332333D01*
X67542Y332027D01*
X67702Y331697D01*
X67827Y331342D01*
X67916Y330962D01*
X67969Y330557D01*
X67987Y330127D01*
X67969Y329700D01*
X67916Y329296D01*
X67826Y328914D01*
X67701Y328555D01*
X67541Y328218D01*
X67344Y327904D01*
X67112Y327612D01*
X66844Y327342D01*
X66545Y327100D01*
X66221Y326890D01*
X65872Y326712D01*
X65496Y326567D01*
X65095Y326454D01*
X64669Y326373D01*
X64217Y326325D01*
X63739Y326308D01*
X60113Y326308D01*
X60113Y321500D01*
G37*
%LPC*%
G36*
X63503Y327631D02*
X63842Y327641D01*
X64160Y327670D01*
X64455Y327718D01*
X64729Y327786D01*
X64981Y327873D01*
X65211Y327980D01*
X65419Y328105D01*
X65605Y328251D01*
X65769Y328415D01*
X65911Y328599D01*
X66032Y328803D01*
X66130Y329025D01*
X66207Y329267D01*
X66262Y329529D01*
X66294Y329809D01*
X66305Y330110D01*
X66294Y330399D01*
X66260Y330670D01*
X66204Y330922D01*
X66126Y331156D01*
X66025Y331371D01*
X65901Y331567D01*
X65755Y331744D01*
X65587Y331903D01*
X65396Y332043D01*
X65183Y332164D01*
X64948Y332267D01*
X64689Y332351D01*
X64409Y332417D01*
X64106Y332463D01*
X63780Y332491D01*
X63433Y332501D01*
X60113Y332501D01*
X60113Y327631D01*
X63503Y327631D01*
G37*
%LPD*%
G36*
X95644Y321500D02*
X93910Y321500D01*
X98946Y333841D01*
X100847Y333841D01*
X105804Y321500D01*
X104096Y321500D01*
X102686Y325109D01*
X97063Y325109D01*
X95644Y321500D01*
G37*
%LPC*%
G36*
X102187Y326414D02*
X100602Y330486D01*
X100356Y331130D01*
X100111Y331853D01*
X99875Y332580D01*
X99796Y332334D01*
X99524Y331504D01*
X99148Y330469D01*
X97571Y326414D01*
X102187Y326414D01*
G37*
%LPD*%
G36*
X74981Y321325D02*
X74432Y321337D01*
X73912Y321374D01*
X73423Y321435D01*
X72963Y321521D01*
X72532Y321631D01*
X72131Y321766D01*
X71760Y321925D01*
X71418Y322109D01*
X71106Y322317D01*
X70824Y322550D01*
X70571Y322807D01*
X70348Y323089D01*
X70155Y323395D01*
X69991Y323725D01*
X69857Y324081D01*
X69752Y324460D01*
X71372Y324784D01*
X71452Y324516D01*
X71552Y324265D01*
X71671Y324033D01*
X71810Y323820D01*
X71969Y323625D01*
X72148Y323449D01*
X72346Y323291D01*
X72564Y323151D01*
X72802Y323029D01*
X73060Y322923D01*
X73339Y322833D01*
X73639Y322760D01*
X73959Y322703D01*
X74299Y322662D01*
X74661Y322638D01*
X75042Y322630D01*
X75436Y322639D01*
X75806Y322665D01*
X76153Y322708D01*
X76478Y322769D01*
X76779Y322847D01*
X77056Y322943D01*
X77311Y323056D01*
X77543Y323186D01*
X77749Y323333D01*
X77928Y323497D01*
X78079Y323676D01*
X78203Y323872D01*
X78299Y324085D01*
X78368Y324313D01*
X78409Y324558D01*
X78423Y324819D01*
X78406Y325107D01*
X78354Y325367D01*
X78268Y325598D01*
X78147Y325800D01*
X77995Y325981D01*
X77815Y326144D01*
X77608Y326291D01*
X77372Y326422D01*
X77110Y326540D01*
X76825Y326648D01*
X76515Y326746D01*
X76181Y326834D01*
X74648Y327193D01*
X73961Y327355D01*
X73362Y327517D01*
X72851Y327679D01*
X72428Y327841D01*
X72069Y328008D01*
X71750Y328184D01*
X71471Y328369D01*
X71232Y328564D01*
X71026Y328772D01*
X70846Y328996D01*
X70691Y329238D01*
X70562Y329497D01*
X70461Y329774D01*
X70388Y330070D01*
X70345Y330387D01*
X70330Y330723D01*
X70349Y331108D01*
X70406Y331470D01*
X70501Y331809D01*
X70633Y332126D01*
X70804Y332420D01*
X71012Y332692D01*
X71259Y332940D01*
X71543Y333166D01*
X71863Y333368D01*
X72215Y333542D01*
X72600Y333689D01*
X73018Y333810D01*
X73468Y333904D01*
X73951Y333971D01*
X74467Y334011D01*
X75016Y334025D01*
X75526Y334015D01*
X76005Y333984D01*
X76453Y333934D01*
X76871Y333864D01*
X77257Y333773D01*
X77612Y333663D01*
X77937Y333532D01*
X78230Y333381D01*
X78498Y333206D01*
X78745Y333002D01*
X78971Y332771D01*
X79176Y332511D01*
X79361Y332222D01*
X79524Y331905D01*
X79667Y331560D01*
X79789Y331187D01*
X78143Y330898D01*
X78067Y331135D01*
X77976Y331355D01*
X77870Y331558D01*
X77749Y331744D01*
X77612Y331914D01*
X77460Y332066D01*
X77292Y332202D01*
X77109Y332321D01*
X76910Y332425D01*
X76692Y332515D01*
X76455Y332591D01*
X76201Y332653D01*
X75928Y332701D01*
X75636Y332736D01*
X75326Y332757D01*
X74998Y332763D01*
X74639Y332756D01*
X74302Y332733D01*
X73987Y332695D01*
X73693Y332641D01*
X73422Y332572D01*
X73172Y332488D01*
X72945Y332388D01*
X72739Y332273D01*
X72556Y332143D01*
X72398Y331998D01*
X72264Y331837D01*
X72154Y331662D01*
X72069Y331472D01*
X72008Y331266D01*
X71971Y331046D01*
X71959Y330810D01*
X71978Y330538D01*
X72035Y330290D01*
X72129Y330067D01*
X72261Y329869D01*
X72429Y329690D01*
X72630Y329525D01*
X72865Y329374D01*
X73133Y329238D01*
X73488Y329102D01*
X73985Y328950D01*
X74622Y328784D01*
X75401Y328603D01*
X76536Y328336D01*
X77088Y328187D01*
X77617Y328012D01*
X78118Y327807D01*
X78585Y327570D01*
X78803Y327436D01*
X79007Y327287D01*
X79195Y327125D01*
X79369Y326948D01*
X79526Y326756D01*
X79666Y326547D01*
X79787Y326322D01*
X79890Y326081D01*
X79972Y325820D01*
X80031Y325538D01*
X80067Y325233D01*
X80078Y324907D01*
X80057Y324492D01*
X79995Y324101D01*
X79891Y323735D01*
X79744Y323392D01*
X79557Y323073D01*
X79327Y322779D01*
X79056Y322508D01*
X78743Y322262D01*
X78392Y322042D01*
X78007Y321852D01*
X77588Y321691D01*
X77134Y321559D01*
X76647Y321457D01*
X76126Y321383D01*
X75570Y321340D01*
X74981Y321325D01*
G37*
G36*
X52306Y321500D02*
X50642Y321500D01*
X50642Y332474D01*
X46403Y332474D01*
X46403Y333841D01*
X56545Y333841D01*
X56545Y332474D01*
X52306Y332474D01*
X52306Y321500D01*
G37*
G36*
X60113Y286500D02*
X58440Y286500D01*
X58440Y298841D01*
X63634Y298841D01*
X64138Y298826D01*
X64613Y298780D01*
X65059Y298704D01*
X65475Y298598D01*
X65863Y298461D01*
X66221Y298294D01*
X66549Y298096D01*
X66848Y297869D01*
X67115Y297613D01*
X67347Y297333D01*
X67542Y297027D01*
X67702Y296697D01*
X67827Y296342D01*
X67916Y295962D01*
X67969Y295557D01*
X67987Y295127D01*
X67969Y294700D01*
X67916Y294296D01*
X67826Y293914D01*
X67701Y293555D01*
X67541Y293218D01*
X67344Y292904D01*
X67112Y292612D01*
X66844Y292342D01*
X66545Y292100D01*
X66221Y291890D01*
X65872Y291712D01*
X65496Y291567D01*
X65095Y291454D01*
X64669Y291373D01*
X64217Y291325D01*
X63739Y291308D01*
X60113Y291308D01*
X60113Y286500D01*
G37*
%LPC*%
G36*
X63503Y292631D02*
X63842Y292641D01*
X64160Y292670D01*
X64455Y292718D01*
X64729Y292786D01*
X64981Y292873D01*
X65211Y292980D01*
X65419Y293105D01*
X65605Y293251D01*
X65769Y293415D01*
X65911Y293599D01*
X66032Y293803D01*
X66130Y294025D01*
X66207Y294267D01*
X66262Y294529D01*
X66294Y294809D01*
X66305Y295110D01*
X66294Y295399D01*
X66260Y295670D01*
X66204Y295922D01*
X66126Y296156D01*
X66025Y296371D01*
X65901Y296567D01*
X65755Y296744D01*
X65587Y296903D01*
X65396Y297043D01*
X65183Y297164D01*
X64948Y297267D01*
X64689Y297351D01*
X64409Y297417D01*
X64106Y297463D01*
X63780Y297491D01*
X63433Y297501D01*
X60113Y297501D01*
X60113Y292631D01*
X63503Y292631D01*
G37*
%LPD*%
G36*
X74981Y286325D02*
X74432Y286337D01*
X73912Y286374D01*
X73423Y286435D01*
X72963Y286521D01*
X72532Y286631D01*
X72131Y286766D01*
X71760Y286925D01*
X71418Y287109D01*
X71106Y287317D01*
X70824Y287550D01*
X70571Y287807D01*
X70348Y288089D01*
X70155Y288395D01*
X69991Y288725D01*
X69857Y289081D01*
X69752Y289460D01*
X71372Y289784D01*
X71452Y289516D01*
X71552Y289265D01*
X71671Y289033D01*
X71810Y288820D01*
X71969Y288625D01*
X72148Y288449D01*
X72346Y288291D01*
X72564Y288151D01*
X72802Y288029D01*
X73060Y287923D01*
X73339Y287833D01*
X73639Y287760D01*
X73959Y287703D01*
X74299Y287662D01*
X74661Y287638D01*
X75042Y287630D01*
X75436Y287639D01*
X75806Y287665D01*
X76153Y287708D01*
X76478Y287769D01*
X76779Y287847D01*
X77056Y287943D01*
X77311Y288056D01*
X77543Y288186D01*
X77749Y288333D01*
X77928Y288497D01*
X78079Y288676D01*
X78203Y288872D01*
X78299Y289085D01*
X78368Y289313D01*
X78409Y289558D01*
X78423Y289819D01*
X78406Y290107D01*
X78354Y290367D01*
X78268Y290598D01*
X78147Y290800D01*
X77995Y290981D01*
X77815Y291144D01*
X77608Y291291D01*
X77372Y291422D01*
X77110Y291540D01*
X76825Y291648D01*
X76515Y291746D01*
X76181Y291834D01*
X74648Y292193D01*
X73961Y292355D01*
X73362Y292517D01*
X72851Y292679D01*
X72428Y292841D01*
X72069Y293008D01*
X71750Y293184D01*
X71471Y293369D01*
X71232Y293564D01*
X71026Y293772D01*
X70846Y293996D01*
X70691Y294238D01*
X70562Y294497D01*
X70461Y294774D01*
X70388Y295070D01*
X70345Y295387D01*
X70330Y295723D01*
X70349Y296108D01*
X70406Y296470D01*
X70501Y296809D01*
X70633Y297126D01*
X70804Y297420D01*
X71012Y297692D01*
X71259Y297940D01*
X71543Y298166D01*
X71863Y298368D01*
X72215Y298542D01*
X72600Y298689D01*
X73018Y298810D01*
X73468Y298904D01*
X73951Y298971D01*
X74467Y299011D01*
X75016Y299025D01*
X75526Y299015D01*
X76005Y298984D01*
X76453Y298934D01*
X76871Y298864D01*
X77257Y298773D01*
X77612Y298663D01*
X77937Y298532D01*
X78230Y298381D01*
X78498Y298206D01*
X78745Y298002D01*
X78971Y297771D01*
X79176Y297511D01*
X79361Y297222D01*
X79524Y296905D01*
X79667Y296560D01*
X79789Y296187D01*
X78143Y295898D01*
X78067Y296135D01*
X77976Y296355D01*
X77870Y296558D01*
X77749Y296744D01*
X77612Y296914D01*
X77460Y297066D01*
X77292Y297202D01*
X77109Y297321D01*
X76910Y297425D01*
X76692Y297515D01*
X76455Y297591D01*
X76201Y297653D01*
X75928Y297701D01*
X75636Y297736D01*
X75326Y297757D01*
X74998Y297763D01*
X74639Y297756D01*
X74302Y297733D01*
X73987Y297695D01*
X73693Y297641D01*
X73422Y297572D01*
X73172Y297488D01*
X72945Y297388D01*
X72739Y297273D01*
X72556Y297143D01*
X72398Y296998D01*
X72264Y296837D01*
X72154Y296662D01*
X72069Y296472D01*
X72008Y296266D01*
X71971Y296046D01*
X71959Y295810D01*
X71978Y295538D01*
X72035Y295290D01*
X72129Y295067D01*
X72261Y294869D01*
X72429Y294690D01*
X72630Y294525D01*
X72865Y294374D01*
X73133Y294238D01*
X73488Y294102D01*
X73985Y293950D01*
X74622Y293784D01*
X75401Y293603D01*
X76536Y293336D01*
X77088Y293187D01*
X77617Y293012D01*
X78118Y292807D01*
X78585Y292570D01*
X78803Y292436D01*
X79007Y292287D01*
X79195Y292125D01*
X79369Y291948D01*
X79526Y291756D01*
X79666Y291547D01*
X79787Y291322D01*
X79890Y291081D01*
X79972Y290820D01*
X80031Y290538D01*
X80067Y290233D01*
X80078Y289907D01*
X80057Y289492D01*
X79995Y289101D01*
X79891Y288735D01*
X79744Y288392D01*
X79557Y288073D01*
X79327Y287779D01*
X79056Y287508D01*
X78743Y287262D01*
X78392Y287042D01*
X78007Y286852D01*
X77588Y286691D01*
X77134Y286559D01*
X76647Y286457D01*
X76126Y286383D01*
X75570Y286340D01*
X74981Y286325D01*
G37*
G36*
X87834Y286325D02*
X87376Y286337D01*
X86933Y286373D01*
X86506Y286434D01*
X86095Y286519D01*
X85699Y286628D01*
X85319Y286761D01*
X84955Y286918D01*
X84607Y287100D01*
X84276Y287304D01*
X83966Y287529D01*
X83676Y287775D01*
X83407Y288042D01*
X83157Y288329D01*
X82928Y288637D01*
X82720Y288966D01*
X82531Y289316D01*
X82364Y289684D01*
X82219Y290069D01*
X82096Y290471D01*
X81996Y290889D01*
X81918Y291324D01*
X81862Y291775D01*
X81828Y292243D01*
X81817Y292727D01*
X81823Y293091D01*
X81842Y293445D01*
X81873Y293789D01*
X81917Y294123D01*
X81973Y294447D01*
X82041Y294761D01*
X82122Y295065D01*
X82216Y295359D01*
X82322Y295643D01*
X82440Y295917D01*
X82714Y296435D01*
X83038Y296914D01*
X83411Y297352D01*
X83829Y297744D01*
X84285Y298084D01*
X84527Y298234D01*
X84779Y298371D01*
X85041Y298495D01*
X85312Y298606D01*
X85592Y298705D01*
X85883Y298789D01*
X86183Y298861D01*
X86492Y298920D01*
X86811Y298966D01*
X87140Y298999D01*
X87478Y299018D01*
X87826Y299025D01*
X88308Y299013D01*
X88770Y298977D01*
X89212Y298916D01*
X89634Y298832D01*
X90036Y298724D01*
X90417Y298591D01*
X90778Y298435D01*
X91119Y298254D01*
X91438Y298050D01*
X91736Y297822D01*
X92012Y297571D01*
X92266Y297297D01*
X92498Y297000D01*
X92708Y296679D01*
X92897Y296335D01*
X93063Y295968D01*
X91478Y295442D01*
X91362Y295704D01*
X91231Y295949D01*
X91083Y296179D01*
X90918Y296393D01*
X90738Y296591D01*
X90541Y296773D01*
X90328Y296939D01*
X90098Y297089D01*
X89855Y297223D01*
X89601Y297338D01*
X89336Y297436D01*
X89059Y297516D01*
X88772Y297578D01*
X88473Y297623D01*
X88164Y297649D01*
X87843Y297658D01*
X87345Y297638D01*
X86875Y297576D01*
X86434Y297473D01*
X86021Y297329D01*
X85637Y297143D01*
X85281Y296917D01*
X84954Y296649D01*
X84655Y296340D01*
X84388Y295995D01*
X84157Y295620D01*
X83961Y295214D01*
X83801Y294778D01*
X83676Y294311D01*
X83587Y293814D01*
X83534Y293286D01*
X83516Y292727D01*
X83535Y292174D01*
X83590Y291649D01*
X83683Y291151D01*
X83813Y290681D01*
X83980Y290239D01*
X84184Y289825D01*
X84425Y289438D01*
X84703Y289079D01*
X85013Y288756D01*
X85349Y288476D01*
X85711Y288239D01*
X86099Y288045D01*
X86513Y287894D01*
X86954Y287786D01*
X87420Y287721D01*
X87913Y287700D01*
X88232Y287710D01*
X88541Y287740D01*
X88840Y287790D01*
X89129Y287860D01*
X89408Y287951D01*
X89676Y288061D01*
X89935Y288191D01*
X90184Y288341D01*
X90422Y288512D01*
X90651Y288702D01*
X90869Y288913D01*
X91078Y289143D01*
X91276Y289394D01*
X91464Y289665D01*
X91642Y289955D01*
X91811Y290266D01*
X93177Y289583D01*
X92977Y289196D01*
X92757Y288834D01*
X92519Y288495D01*
X92261Y288179D01*
X91983Y287888D01*
X91687Y287621D01*
X91371Y287377D01*
X91036Y287157D01*
X90684Y286962D01*
X90318Y286793D01*
X89939Y286650D01*
X89545Y286533D01*
X89138Y286442D01*
X88718Y286377D01*
X88283Y286338D01*
X87834Y286325D01*
G37*
G36*
X52306Y286500D02*
X50642Y286500D01*
X50642Y297474D01*
X46403Y297474D01*
X46403Y298841D01*
X56545Y298841D01*
X56545Y297474D01*
X52306Y297474D01*
X52306Y286500D01*
G37*
G36*
X103255Y286500D02*
X95346Y286500D01*
X95346Y298841D01*
X97019Y298841D01*
X97019Y287866D01*
X103255Y287866D01*
X103255Y286500D01*
G37*
G36*
X72082Y251500D02*
X70409Y251500D01*
X70409Y263841D01*
X76216Y263841D01*
X76722Y263826D01*
X77199Y263782D01*
X77646Y263710D01*
X78063Y263608D01*
X78450Y263476D01*
X78808Y263316D01*
X79136Y263127D01*
X79435Y262908D01*
X79700Y262663D01*
X79931Y262396D01*
X80126Y262106D01*
X80285Y261792D01*
X80409Y261456D01*
X80498Y261097D01*
X80551Y260716D01*
X80569Y260311D01*
X80556Y259974D01*
X80519Y259651D01*
X80456Y259341D01*
X80368Y259045D01*
X80256Y258763D01*
X80118Y258495D01*
X79955Y258240D01*
X79767Y257999D01*
X79558Y257775D01*
X79329Y257574D01*
X79081Y257393D01*
X78970Y257327D01*
X78814Y257235D01*
X78528Y257098D01*
X78223Y256982D01*
X77899Y256889D01*
X77556Y256816D01*
X79047Y254553D01*
X81059Y251500D01*
X79132Y251500D01*
X75927Y256624D01*
X72082Y256624D01*
X72082Y251500D01*
G37*
%LPC*%
G36*
X76120Y257946D02*
X76441Y257956D01*
X76743Y257985D01*
X77027Y258033D01*
X77292Y258101D01*
X77538Y258187D01*
X77766Y258294D01*
X77975Y258419D01*
X78165Y258564D01*
X78334Y258726D01*
X78481Y258903D01*
X78605Y259096D01*
X78707Y259305D01*
X78786Y259529D01*
X78842Y259768D01*
X78876Y260023D01*
X78887Y260294D01*
X78876Y260555D01*
X78841Y260800D01*
X78784Y261030D01*
X78704Y261243D01*
X78602Y261440D01*
X78476Y261621D01*
X78327Y261787D01*
X78156Y261936D01*
X77963Y262068D01*
X77750Y262183D01*
X77517Y262280D01*
X77264Y262360D01*
X76990Y262421D01*
X76697Y262465D01*
X76383Y262492D01*
X76049Y262501D01*
X72082Y262501D01*
X72082Y257946D01*
X76120Y257946D01*
G37*
%LPD*%
G36*
X60113Y251500D02*
X58440Y251500D01*
X58440Y263841D01*
X63634Y263841D01*
X64138Y263826D01*
X64613Y263780D01*
X65059Y263704D01*
X65475Y263598D01*
X65863Y263461D01*
X66221Y263294D01*
X66549Y263096D01*
X66848Y262869D01*
X67115Y262613D01*
X67347Y262333D01*
X67542Y262027D01*
X67702Y261697D01*
X67827Y261342D01*
X67916Y260962D01*
X67969Y260557D01*
X67987Y260127D01*
X67969Y259700D01*
X67916Y259296D01*
X67826Y258914D01*
X67701Y258555D01*
X67541Y258218D01*
X67344Y257904D01*
X67112Y257612D01*
X66844Y257342D01*
X66545Y257100D01*
X66221Y256890D01*
X65872Y256712D01*
X65496Y256567D01*
X65095Y256454D01*
X64669Y256373D01*
X64217Y256325D01*
X63739Y256308D01*
X60113Y256308D01*
X60113Y251500D01*
G37*
%LPC*%
G36*
X63503Y257631D02*
X63842Y257641D01*
X64160Y257670D01*
X64455Y257718D01*
X64729Y257786D01*
X64981Y257873D01*
X65211Y257980D01*
X65419Y258105D01*
X65605Y258251D01*
X65769Y258415D01*
X65911Y258599D01*
X66032Y258803D01*
X66130Y259025D01*
X66207Y259267D01*
X66262Y259529D01*
X66294Y259809D01*
X66305Y260110D01*
X66294Y260399D01*
X66260Y260670D01*
X66204Y260922D01*
X66126Y261156D01*
X66025Y261371D01*
X65901Y261567D01*
X65755Y261744D01*
X65587Y261903D01*
X65396Y262043D01*
X65183Y262164D01*
X64948Y262267D01*
X64689Y262351D01*
X64409Y262417D01*
X64106Y262463D01*
X63780Y262491D01*
X63433Y262501D01*
X60113Y262501D01*
X60113Y257631D01*
X63503Y257631D01*
G37*
%LPD*%
G36*
X84157Y251500D02*
X82309Y251500D01*
X87004Y257911D01*
X82668Y263841D01*
X84516Y263841D01*
X87950Y258997D01*
X91287Y263841D01*
X93135Y263841D01*
X88913Y257973D01*
X93494Y251500D01*
X91646Y251500D01*
X87941Y256895D01*
X84157Y251500D01*
G37*
G36*
X52306Y251500D02*
X50642Y251500D01*
X50642Y262474D01*
X46403Y262474D01*
X46403Y263841D01*
X56545Y263841D01*
X56545Y262474D01*
X52306Y262474D01*
X52306Y251500D01*
G37*
G36*
X60113Y216500D02*
X58440Y216500D01*
X58440Y228841D01*
X63634Y228841D01*
X64138Y228826D01*
X64613Y228780D01*
X65059Y228704D01*
X65475Y228598D01*
X65863Y228461D01*
X66221Y228294D01*
X66549Y228096D01*
X66848Y227869D01*
X67115Y227613D01*
X67347Y227333D01*
X67542Y227027D01*
X67702Y226697D01*
X67827Y226342D01*
X67916Y225962D01*
X67969Y225557D01*
X67987Y225127D01*
X67969Y224700D01*
X67916Y224296D01*
X67826Y223914D01*
X67701Y223555D01*
X67541Y223218D01*
X67344Y222904D01*
X67112Y222612D01*
X66844Y222342D01*
X66545Y222100D01*
X66221Y221890D01*
X65872Y221712D01*
X65496Y221567D01*
X65095Y221454D01*
X64669Y221373D01*
X64217Y221325D01*
X63739Y221308D01*
X60113Y221308D01*
X60113Y216500D01*
G37*
%LPC*%
G36*
X63503Y222631D02*
X63842Y222641D01*
X64160Y222670D01*
X64455Y222718D01*
X64729Y222786D01*
X64981Y222873D01*
X65211Y222980D01*
X65419Y223105D01*
X65605Y223251D01*
X65769Y223415D01*
X65911Y223599D01*
X66032Y223803D01*
X66130Y224025D01*
X66207Y224267D01*
X66262Y224529D01*
X66294Y224809D01*
X66305Y225110D01*
X66294Y225399D01*
X66260Y225670D01*
X66204Y225922D01*
X66126Y226156D01*
X66025Y226371D01*
X65901Y226567D01*
X65755Y226744D01*
X65587Y226903D01*
X65396Y227043D01*
X65183Y227164D01*
X64948Y227267D01*
X64689Y227351D01*
X64409Y227417D01*
X64106Y227463D01*
X63780Y227491D01*
X63433Y227501D01*
X60113Y227501D01*
X60113Y222631D01*
X63503Y222631D01*
G37*
%LPD*%
G36*
X82157Y216500D02*
X80309Y216500D01*
X85004Y222911D01*
X80668Y228841D01*
X82516Y228841D01*
X85950Y223997D01*
X89287Y228841D01*
X91135Y228841D01*
X86913Y222973D01*
X91494Y216500D01*
X89646Y216500D01*
X85941Y221895D01*
X82157Y216500D01*
G37*
G36*
X52306Y216500D02*
X50642Y216500D01*
X50642Y227474D01*
X46403Y227474D01*
X46403Y228841D01*
X56545Y228841D01*
X56545Y227474D01*
X52306Y227474D01*
X52306Y216500D01*
G37*
G36*
X75244Y216500D02*
X73580Y216500D01*
X73580Y227474D01*
X69340Y227474D01*
X69340Y228841D01*
X79483Y228841D01*
X79483Y227474D01*
X75244Y227474D01*
X75244Y216500D01*
G37*
D10*
X310000Y430000D02*
X840000Y430000D01*
X840000Y1250D01*
X310000Y1250D01*
X310000Y430000D01*
D11*
X244901Y304788D02*
X244901Y101588D01*
X244901Y304788D02*
X283001Y304788D01*
X283001Y101588D02*
X244901Y101588D01*
X283001Y101588D02*
X283001Y25388D01*
X283001Y101588D02*
X283001Y304788D01*
X283001Y437988D01*
X26801Y437988D01*
X26801Y25388D01*
X283001Y25388D01*
D12*
X482864Y677430D02*
X484360Y680000D01*
X484360Y527600D01*
X801860Y527600D01*
X801860Y680000D01*
X484360Y680000D01*
D11*
X698860Y491900D02*
X698860Y441100D01*
X597260Y441100D01*
X597260Y491900D01*
X698860Y491900D01*
X569000Y484550D02*
X518200Y484550D01*
X518200Y446450D01*
X569000Y446450D01*
X569000Y484550D01*
X204600Y106000D02*
X103000Y106000D01*
X204600Y106000D02*
X204600Y188550D01*
X103000Y188550D01*
X103000Y106000D01*
X21500Y654063D02*
X453300Y654063D01*
X453300Y476263D01*
X21500Y476263D01*
X21500Y590563D01*
X21500Y654063D01*
X21500Y590563D02*
X8800Y590563D01*
X8800Y539763D01*
X72300Y539763D02*
X72300Y590563D01*
X21500Y590563D01*
X8800Y539763D02*
X72300Y539763D01*
D13*
X62592Y511442D02*
X59981Y509354D01*
X62592Y511442D02*
X62592Y502044D01*
X65202Y502044D02*
X59981Y502044D01*
D11*
X182635Y668198D02*
X182635Y681152D01*
X189832Y668198D01*
X189832Y681152D01*
X199462Y681152D02*
X195144Y668198D01*
X203780Y668198D02*
X199462Y681152D01*
X202700Y671437D02*
X196223Y671437D01*
X209092Y668198D02*
X209092Y681152D01*
X216288Y668198D01*
X216288Y681152D01*
X222320Y677554D02*
X222320Y671796D01*
X222320Y677554D02*
X222322Y677673D01*
X222328Y677792D01*
X222338Y677910D01*
X222351Y678029D01*
X222369Y678146D01*
X222391Y678263D01*
X222416Y678379D01*
X222445Y678495D01*
X222478Y678609D01*
X222515Y678722D01*
X222555Y678834D01*
X222600Y678945D01*
X222647Y679054D01*
X222699Y679161D01*
X222754Y679266D01*
X222812Y679370D01*
X222874Y679472D01*
X222939Y679571D01*
X223007Y679669D01*
X223079Y679764D01*
X223153Y679857D01*
X223231Y679947D01*
X223312Y680034D01*
X223395Y680119D01*
X223481Y680201D01*
X223570Y680280D01*
X223661Y680356D01*
X223755Y680429D01*
X223852Y680499D01*
X223950Y680566D01*
X224051Y680630D01*
X224153Y680690D01*
X224258Y680746D01*
X224365Y680799D01*
X224473Y680849D01*
X224582Y680895D01*
X224694Y680937D01*
X224806Y680976D01*
X224920Y681011D01*
X225035Y681042D01*
X225151Y681069D01*
X225267Y681093D01*
X225385Y681112D01*
X225502Y681128D01*
X225621Y681140D01*
X225740Y681148D01*
X225859Y681152D01*
X225977Y681152D01*
X226096Y681148D01*
X226215Y681140D01*
X226334Y681128D01*
X226451Y681112D01*
X226569Y681093D01*
X226685Y681069D01*
X226801Y681042D01*
X226916Y681011D01*
X227030Y680976D01*
X227142Y680937D01*
X227254Y680895D01*
X227363Y680849D01*
X227471Y680799D01*
X227578Y680746D01*
X227683Y680690D01*
X227785Y680630D01*
X227886Y680566D01*
X227984Y680499D01*
X228081Y680429D01*
X228175Y680356D01*
X228266Y680280D01*
X228355Y680201D01*
X228441Y680119D01*
X228524Y680034D01*
X228605Y679947D01*
X228683Y679857D01*
X228757Y679764D01*
X228829Y679669D01*
X228897Y679571D01*
X228962Y679472D01*
X229024Y679370D01*
X229082Y679266D01*
X229137Y679161D01*
X229189Y679054D01*
X229236Y678945D01*
X229281Y678834D01*
X229321Y678722D01*
X229358Y678609D01*
X229391Y678495D01*
X229420Y678379D01*
X229445Y678263D01*
X229467Y678146D01*
X229485Y678029D01*
X229498Y677910D01*
X229508Y677792D01*
X229514Y677673D01*
X229516Y677554D01*
X229517Y677554D02*
X229517Y671796D01*
X229516Y671796D02*
X229514Y671677D01*
X229508Y671558D01*
X229498Y671440D01*
X229485Y671321D01*
X229467Y671204D01*
X229445Y671087D01*
X229420Y670971D01*
X229391Y670855D01*
X229358Y670741D01*
X229321Y670628D01*
X229281Y670516D01*
X229236Y670405D01*
X229189Y670296D01*
X229137Y670189D01*
X229082Y670084D01*
X229024Y669980D01*
X228962Y669878D01*
X228897Y669779D01*
X228829Y669681D01*
X228757Y669586D01*
X228683Y669493D01*
X228605Y669403D01*
X228524Y669316D01*
X228441Y669231D01*
X228355Y669149D01*
X228266Y669070D01*
X228175Y668994D01*
X228081Y668921D01*
X227984Y668851D01*
X227886Y668784D01*
X227785Y668720D01*
X227683Y668660D01*
X227578Y668604D01*
X227471Y668551D01*
X227363Y668501D01*
X227254Y668455D01*
X227142Y668413D01*
X227030Y668374D01*
X226916Y668339D01*
X226801Y668308D01*
X226685Y668281D01*
X226569Y668257D01*
X226451Y668238D01*
X226334Y668222D01*
X226215Y668210D01*
X226096Y668202D01*
X225977Y668198D01*
X225859Y668198D01*
X225740Y668202D01*
X225621Y668210D01*
X225502Y668222D01*
X225385Y668238D01*
X225267Y668257D01*
X225151Y668281D01*
X225035Y668308D01*
X224920Y668339D01*
X224806Y668374D01*
X224694Y668413D01*
X224582Y668455D01*
X224473Y668501D01*
X224365Y668551D01*
X224258Y668604D01*
X224153Y668660D01*
X224051Y668720D01*
X223950Y668784D01*
X223852Y668851D01*
X223755Y668921D01*
X223661Y668994D01*
X223570Y669070D01*
X223481Y669149D01*
X223395Y669231D01*
X223312Y669316D01*
X223231Y669403D01*
X223153Y669493D01*
X223079Y669586D01*
X223007Y669681D01*
X222939Y669779D01*
X222874Y669878D01*
X222812Y669980D01*
X222754Y670084D01*
X222699Y670189D01*
X222647Y670296D01*
X222600Y670405D01*
X222555Y670516D01*
X222515Y670628D01*
X222478Y670741D01*
X222445Y670855D01*
X222416Y670971D01*
X222391Y671087D01*
X222369Y671204D01*
X222351Y671321D01*
X222338Y671440D01*
X222328Y671558D01*
X222322Y671677D01*
X222320Y671796D01*
X235122Y668198D02*
X238720Y668198D01*
X238839Y668200D01*
X238958Y668206D01*
X239076Y668216D01*
X239195Y668229D01*
X239312Y668247D01*
X239429Y668269D01*
X239545Y668294D01*
X239661Y668323D01*
X239775Y668356D01*
X239888Y668393D01*
X240000Y668433D01*
X240111Y668478D01*
X240220Y668525D01*
X240327Y668577D01*
X240432Y668632D01*
X240536Y668690D01*
X240638Y668752D01*
X240737Y668817D01*
X240835Y668885D01*
X240930Y668957D01*
X241023Y669031D01*
X241113Y669109D01*
X241200Y669190D01*
X241285Y669273D01*
X241367Y669359D01*
X241446Y669448D01*
X241522Y669539D01*
X241595Y669633D01*
X241665Y669730D01*
X241732Y669828D01*
X241796Y669929D01*
X241856Y670031D01*
X241912Y670136D01*
X241965Y670243D01*
X242015Y670351D01*
X242061Y670460D01*
X242103Y670572D01*
X242142Y670684D01*
X242177Y670798D01*
X242208Y670913D01*
X242235Y671029D01*
X242259Y671145D01*
X242278Y671263D01*
X242294Y671380D01*
X242306Y671499D01*
X242314Y671618D01*
X242318Y671737D01*
X242318Y671855D01*
X242314Y671974D01*
X242306Y672093D01*
X242294Y672212D01*
X242278Y672329D01*
X242259Y672447D01*
X242235Y672563D01*
X242208Y672679D01*
X242177Y672794D01*
X242142Y672908D01*
X242103Y673020D01*
X242061Y673132D01*
X242015Y673241D01*
X241965Y673349D01*
X241912Y673456D01*
X241856Y673561D01*
X241796Y673663D01*
X241732Y673764D01*
X241665Y673862D01*
X241595Y673959D01*
X241522Y674053D01*
X241446Y674144D01*
X241367Y674233D01*
X241285Y674319D01*
X241200Y674402D01*
X241113Y674483D01*
X241023Y674561D01*
X240930Y674635D01*
X240835Y674707D01*
X240737Y674775D01*
X240638Y674840D01*
X240536Y674902D01*
X240432Y674960D01*
X240327Y675015D01*
X240220Y675067D01*
X240111Y675114D01*
X240000Y675159D01*
X239888Y675199D01*
X239775Y675236D01*
X239661Y675269D01*
X239545Y675298D01*
X239429Y675323D01*
X239312Y675345D01*
X239195Y675363D01*
X239076Y675376D01*
X238958Y675386D01*
X238839Y675392D01*
X238720Y675394D01*
X239440Y681152D02*
X235122Y681152D01*
X239440Y681152D02*
X239546Y681150D01*
X239653Y681144D01*
X239759Y681134D01*
X239864Y681121D01*
X239969Y681103D01*
X240073Y681081D01*
X240177Y681056D01*
X240279Y681027D01*
X240380Y680994D01*
X240480Y680958D01*
X240579Y680917D01*
X240675Y680873D01*
X240771Y680826D01*
X240864Y680775D01*
X240956Y680721D01*
X241045Y680663D01*
X241132Y680602D01*
X241217Y680538D01*
X241300Y680471D01*
X241380Y680401D01*
X241457Y680327D01*
X241531Y680252D01*
X241603Y680173D01*
X241672Y680092D01*
X241737Y680008D01*
X241800Y679922D01*
X241859Y679834D01*
X241915Y679743D01*
X241968Y679651D01*
X242017Y679556D01*
X242063Y679460D01*
X242105Y679362D01*
X242143Y679263D01*
X242178Y679163D01*
X242209Y679061D01*
X242236Y678958D01*
X242260Y678854D01*
X242279Y678750D01*
X242295Y678644D01*
X242307Y678539D01*
X242315Y678433D01*
X242319Y678326D01*
X242319Y678220D01*
X242315Y678113D01*
X242307Y678007D01*
X242295Y677902D01*
X242279Y677796D01*
X242260Y677692D01*
X242236Y677588D01*
X242209Y677485D01*
X242178Y677383D01*
X242143Y677283D01*
X242105Y677184D01*
X242063Y677086D01*
X242017Y676990D01*
X241968Y676895D01*
X241915Y676803D01*
X241859Y676712D01*
X241800Y676624D01*
X241737Y676538D01*
X241672Y676454D01*
X241603Y676373D01*
X241531Y676294D01*
X241457Y676219D01*
X241380Y676145D01*
X241300Y676075D01*
X241217Y676008D01*
X241132Y675944D01*
X241045Y675883D01*
X240956Y675825D01*
X240864Y675771D01*
X240771Y675720D01*
X240675Y675673D01*
X240579Y675629D01*
X240480Y675588D01*
X240380Y675552D01*
X240279Y675519D01*
X240177Y675490D01*
X240073Y675465D01*
X239969Y675443D01*
X239864Y675425D01*
X239759Y675412D01*
X239653Y675402D01*
X239546Y675396D01*
X239440Y675394D01*
X239440Y675395D02*
X236561Y675395D01*
X247923Y668198D02*
X251521Y668198D01*
X251640Y668200D01*
X251759Y668206D01*
X251877Y668216D01*
X251996Y668229D01*
X252113Y668247D01*
X252230Y668269D01*
X252346Y668294D01*
X252462Y668323D01*
X252576Y668356D01*
X252689Y668393D01*
X252801Y668433D01*
X252912Y668478D01*
X253021Y668525D01*
X253128Y668577D01*
X253233Y668632D01*
X253337Y668690D01*
X253439Y668752D01*
X253538Y668817D01*
X253636Y668885D01*
X253731Y668957D01*
X253824Y669031D01*
X253914Y669109D01*
X254001Y669190D01*
X254086Y669273D01*
X254168Y669359D01*
X254247Y669448D01*
X254323Y669539D01*
X254396Y669633D01*
X254466Y669730D01*
X254533Y669828D01*
X254597Y669929D01*
X254657Y670031D01*
X254713Y670136D01*
X254766Y670243D01*
X254816Y670351D01*
X254862Y670460D01*
X254904Y670572D01*
X254943Y670684D01*
X254978Y670798D01*
X255009Y670913D01*
X255036Y671029D01*
X255060Y671145D01*
X255079Y671263D01*
X255095Y671380D01*
X255107Y671499D01*
X255115Y671618D01*
X255119Y671737D01*
X255119Y671855D01*
X255115Y671974D01*
X255107Y672093D01*
X255095Y672212D01*
X255079Y672329D01*
X255060Y672447D01*
X255036Y672563D01*
X255009Y672679D01*
X254978Y672794D01*
X254943Y672908D01*
X254904Y673020D01*
X254862Y673132D01*
X254816Y673241D01*
X254766Y673349D01*
X254713Y673456D01*
X254657Y673561D01*
X254597Y673663D01*
X254533Y673764D01*
X254466Y673862D01*
X254396Y673959D01*
X254323Y674053D01*
X254247Y674144D01*
X254168Y674233D01*
X254086Y674319D01*
X254001Y674402D01*
X253914Y674483D01*
X253824Y674561D01*
X253731Y674635D01*
X253636Y674707D01*
X253538Y674775D01*
X253439Y674840D01*
X253337Y674902D01*
X253233Y674960D01*
X253128Y675015D01*
X253021Y675067D01*
X252912Y675114D01*
X252801Y675159D01*
X252689Y675199D01*
X252576Y675236D01*
X252462Y675269D01*
X252346Y675298D01*
X252230Y675323D01*
X252113Y675345D01*
X251996Y675363D01*
X251877Y675376D01*
X251759Y675386D01*
X251640Y675392D01*
X251521Y675394D01*
X252241Y681152D02*
X247923Y681152D01*
X252241Y681152D02*
X252347Y681150D01*
X252454Y681144D01*
X252560Y681134D01*
X252665Y681121D01*
X252770Y681103D01*
X252874Y681081D01*
X252978Y681056D01*
X253080Y681027D01*
X253181Y680994D01*
X253281Y680958D01*
X253380Y680917D01*
X253476Y680873D01*
X253572Y680826D01*
X253665Y680775D01*
X253757Y680721D01*
X253846Y680663D01*
X253933Y680602D01*
X254018Y680538D01*
X254101Y680471D01*
X254181Y680401D01*
X254258Y680327D01*
X254332Y680252D01*
X254404Y680173D01*
X254473Y680092D01*
X254538Y680008D01*
X254601Y679922D01*
X254660Y679834D01*
X254716Y679743D01*
X254769Y679651D01*
X254818Y679556D01*
X254864Y679460D01*
X254906Y679362D01*
X254944Y679263D01*
X254979Y679163D01*
X255010Y679061D01*
X255037Y678958D01*
X255061Y678854D01*
X255080Y678750D01*
X255096Y678644D01*
X255108Y678539D01*
X255116Y678433D01*
X255120Y678326D01*
X255120Y678220D01*
X255116Y678113D01*
X255108Y678007D01*
X255096Y677902D01*
X255080Y677796D01*
X255061Y677692D01*
X255037Y677588D01*
X255010Y677485D01*
X254979Y677383D01*
X254944Y677283D01*
X254906Y677184D01*
X254864Y677086D01*
X254818Y676990D01*
X254769Y676895D01*
X254716Y676803D01*
X254660Y676712D01*
X254601Y676624D01*
X254538Y676538D01*
X254473Y676454D01*
X254404Y676373D01*
X254332Y676294D01*
X254258Y676219D01*
X254181Y676145D01*
X254101Y676075D01*
X254018Y676008D01*
X253933Y675944D01*
X253846Y675883D01*
X253757Y675825D01*
X253665Y675771D01*
X253572Y675720D01*
X253476Y675673D01*
X253380Y675629D01*
X253281Y675588D01*
X253181Y675552D01*
X253080Y675519D01*
X252978Y675490D01*
X252874Y675465D01*
X252770Y675443D01*
X252665Y675425D01*
X252560Y675412D01*
X252454Y675402D01*
X252347Y675396D01*
X252241Y675394D01*
X252241Y675395D02*
X249362Y675395D01*
X260164Y666759D02*
X265922Y666759D01*
X271593Y675395D02*
X275192Y675395D01*
X275192Y675394D02*
X275311Y675392D01*
X275430Y675386D01*
X275548Y675376D01*
X275667Y675363D01*
X275784Y675345D01*
X275901Y675323D01*
X276017Y675298D01*
X276133Y675269D01*
X276247Y675236D01*
X276360Y675199D01*
X276472Y675159D01*
X276583Y675114D01*
X276692Y675067D01*
X276799Y675015D01*
X276904Y674960D01*
X277008Y674902D01*
X277110Y674840D01*
X277209Y674775D01*
X277307Y674707D01*
X277402Y674635D01*
X277495Y674561D01*
X277585Y674483D01*
X277672Y674402D01*
X277757Y674319D01*
X277839Y674233D01*
X277918Y674144D01*
X277994Y674053D01*
X278067Y673959D01*
X278137Y673862D01*
X278204Y673764D01*
X278268Y673663D01*
X278328Y673561D01*
X278384Y673456D01*
X278437Y673349D01*
X278487Y673241D01*
X278533Y673132D01*
X278575Y673020D01*
X278614Y672908D01*
X278649Y672794D01*
X278680Y672679D01*
X278707Y672563D01*
X278731Y672447D01*
X278750Y672329D01*
X278766Y672212D01*
X278778Y672093D01*
X278786Y671974D01*
X278790Y671855D01*
X278790Y671737D01*
X278786Y671618D01*
X278778Y671499D01*
X278766Y671380D01*
X278750Y671263D01*
X278731Y671145D01*
X278707Y671029D01*
X278680Y670913D01*
X278649Y670798D01*
X278614Y670684D01*
X278575Y670572D01*
X278533Y670460D01*
X278487Y670351D01*
X278437Y670243D01*
X278384Y670136D01*
X278328Y670031D01*
X278268Y669929D01*
X278204Y669828D01*
X278137Y669730D01*
X278067Y669633D01*
X277994Y669539D01*
X277918Y669448D01*
X277839Y669359D01*
X277757Y669273D01*
X277672Y669190D01*
X277585Y669109D01*
X277495Y669031D01*
X277402Y668957D01*
X277307Y668885D01*
X277209Y668817D01*
X277110Y668752D01*
X277008Y668690D01*
X276904Y668632D01*
X276799Y668577D01*
X276692Y668525D01*
X276583Y668478D01*
X276472Y668433D01*
X276360Y668393D01*
X276247Y668356D01*
X276133Y668323D01*
X276017Y668294D01*
X275901Y668269D01*
X275784Y668247D01*
X275667Y668229D01*
X275548Y668216D01*
X275430Y668206D01*
X275311Y668200D01*
X275192Y668198D01*
X271593Y668198D01*
X271593Y681152D01*
X275192Y681152D01*
X275298Y681150D01*
X275405Y681144D01*
X275511Y681134D01*
X275616Y681121D01*
X275721Y681103D01*
X275825Y681081D01*
X275929Y681056D01*
X276031Y681027D01*
X276132Y680994D01*
X276232Y680958D01*
X276331Y680917D01*
X276427Y680873D01*
X276523Y680826D01*
X276616Y680775D01*
X276708Y680721D01*
X276797Y680663D01*
X276884Y680602D01*
X276969Y680538D01*
X277052Y680471D01*
X277132Y680401D01*
X277209Y680327D01*
X277283Y680252D01*
X277355Y680173D01*
X277424Y680092D01*
X277489Y680008D01*
X277552Y679922D01*
X277611Y679834D01*
X277667Y679743D01*
X277720Y679651D01*
X277769Y679556D01*
X277815Y679460D01*
X277857Y679362D01*
X277895Y679263D01*
X277930Y679163D01*
X277961Y679061D01*
X277988Y678958D01*
X278012Y678854D01*
X278031Y678750D01*
X278047Y678644D01*
X278059Y678539D01*
X278067Y678433D01*
X278071Y678326D01*
X278071Y678220D01*
X278067Y678113D01*
X278059Y678007D01*
X278047Y677902D01*
X278031Y677796D01*
X278012Y677692D01*
X277988Y677588D01*
X277961Y677485D01*
X277930Y677383D01*
X277895Y677283D01*
X277857Y677184D01*
X277815Y677086D01*
X277769Y676990D01*
X277720Y676895D01*
X277667Y676803D01*
X277611Y676712D01*
X277552Y676624D01*
X277489Y676538D01*
X277424Y676454D01*
X277355Y676373D01*
X277283Y676294D01*
X277209Y676219D01*
X277132Y676145D01*
X277052Y676075D01*
X276969Y676008D01*
X276884Y675944D01*
X276797Y675883D01*
X276708Y675825D01*
X276616Y675771D01*
X276523Y675720D01*
X276427Y675673D01*
X276331Y675629D01*
X276232Y675588D01*
X276132Y675552D01*
X276031Y675519D01*
X275929Y675490D01*
X275825Y675465D01*
X275721Y675443D01*
X275616Y675425D01*
X275511Y675412D01*
X275405Y675402D01*
X275298Y675396D01*
X275192Y675394D01*
X284221Y681152D02*
X284221Y668198D01*
X289978Y668198D01*
X295316Y668198D02*
X301073Y668198D01*
X295316Y668198D02*
X295316Y681152D01*
X301073Y681152D01*
X299634Y675395D02*
X295316Y675395D01*
M02*
