<?xml version="1.0" encoding="utf-8"?>
<!-- Generator: Adobe Illustrator 25.2.1, SVG Export Plug-In . SVG Version: 6.00 Build 0)  -->
<svg version="1.1" id="Layer_1" xmlns="http://www.w3.org/2000/svg" xmlns:xlink="http://www.w3.org/1999/xlink" x="0px" y="0px"
	 viewBox="0 0 38.1 40" style="enable-background:new 0 0 38.1 40;" xml:space="preserve">
<style type="text/css">
	.st0{fill:#0099B0;}
	.st1{fill-rule:evenodd;clip-rule:evenodd;fill:#0099B0;}
</style>
<path class="st0" d="M33.3,12.9l-3.5-0.7c-0.1,0-0.2-0.1-0.2-0.2l-1.1-2.5c0-0.1,0-0.2,0-0.3l2.1-3c0-0.1,0-0.2,0-0.2l-2.6-2.6
	c-0.1-0.1-0.2-0.1-0.2,0l-3.1,2.1c-0.1,0-0.2,0.1-0.3,0l-2.5-1c-0.1,0-0.2-0.1-0.2-0.2L21,0.7c0-0.1-0.1-0.2-0.2-0.2h-3.6
	c-0.1,0-0.2,0.1-0.2,0.2l-0.7,3.7c0,0.1-0.1,0.2-0.2,0.2l-2.5,1c-0.1,0-0.2,0-0.3,0l-3.1-2.1c-0.1,0-0.2,0-0.2,0L7.5,6
	c-0.1,0.1-0.1,0.2,0,0.2l2.1,3c0,0.1,0.1,0.2,0,0.3l-1.1,2.5c0,0.1-0.1,0.2-0.2,0.2l-3.5,0.7c-0.1,0-0.2,0.1-0.2,0.2l0,3.6
	c0,0.1,0.1,0.2,0.2,0.2l3.5,0.6c0.1,0,0.2,0.1,0.2,0.2l1.1,2.7c0,0.1,0,0.2,0,0.3l-2,2.9c0,0.1,0,0.2,0,0.2l2.6,2.6
	c0.1,0.1,0.2,0.1,0.2,0l2.8-1.9c0.1,0,0.2-0.1,0.3,0l1.2,0.7c0.1,0,0.2,0,0.2-0.1l2.6-6.2c0-0.1,0-0.2-0.1-0.2l-0.3-0.2
	c-0.1,0-0.1-0.1-0.2-0.2c-1.1-0.7-1.9-2-1.9-3.4c0-2.2,1.8-4,4-4s4,1.8,4,4c0,1.4-0.7,2.7-1.9,3.4c-0.1,0.1-0.1,0.1-0.2,0.2
	l-0.3,0.2c-0.1,0-0.1,0.1-0.1,0.2l2.6,6.2c0,0.1,0.1,0.1,0.2,0.1l1.2-0.7c0.1,0,0.2,0,0.3,0l2.8,1.9c0.1,0,0.2,0,0.2,0l2.6-2.6
	c0.1-0.1,0.1-0.2,0-0.2l-2-2.9c0-0.1-0.1-0.2,0-0.3l1.1-2.7c0-0.1,0.1-0.2,0.2-0.2l3.5-0.6c0.1,0,0.2-0.1,0.2-0.2l0-3.6
	C33.5,13,33.4,12.9,33.3,12.9"/>
<path class="st1" d="M10.3,39.5h0.8v-2.6c0-1-0.7-1.3-1.6-1.3c-0.6,0-1,0.2-1.3,0.6l0.6,0.5c0.1-0.2,0.3-0.3,0.7-0.3
	c0.6,0,0.8,0.1,0.8,0.5v0.4H9.2c-0.8,0-1.3,0.5-1.3,1.1c0,0.7,0.5,1.2,1.4,1.2c0.5,0,0.8-0.1,1-0.4h0V39.5z M10.3,38.1
	c0,0.6-0.2,0.7-0.9,0.7c-0.5,0-0.7-0.2-0.7-0.5c0-0.3,0.2-0.5,0.7-0.5h0.9V38.1z"/>
<path class="st1" d="M11.9,39.5h0.8v-2.3c0-0.6,0.4-0.8,0.8-0.8c0.2,0,0.3,0.1,0.5,0.2l0.6-0.7c-0.2-0.2-0.5-0.3-0.8-0.3
	c-0.4,0-0.8,0.2-1,0.5h0v-0.4h-0.8V39.5z"/>
<path class="st1" d="M16.9,39.5h0.8V34h-0.8v2c-0.3-0.3-0.6-0.5-1-0.5c-0.5,0-0.8,0.2-1,0.5c-0.2,0.3-0.3,0.5-0.3,1.5
	c0,1,0.1,1.2,0.3,1.5c0.2,0.3,0.6,0.5,1,0.5c0.4,0,0.8-0.2,1-0.5V39.5z M16.1,36.3c0.7,0,0.8,0.6,0.8,1.2c0,0.6,0,1.2-0.8,1.2
	c-0.7,0-0.8-0.6-0.8-1.2C15.3,36.9,15.4,36.3,16.1,36.3"/>
<polygon class="st1" points="21.6,39.5 22.3,39.5 23.5,35.6 22.7,35.6 22,38.3 22,38.3 21.1,35.6 20.5,35.6 19.6,38.3 19.6,38.3 
	18.9,35.6 18.1,35.6 19.3,39.5 20,39.5 20.8,36.7 20.8,36.7 "/>
<path class="st1" d="M25.9,39.5h0.8v-2.6c0-1-0.7-1.3-1.6-1.3c-0.6,0-1,0.2-1.3,0.6l0.6,0.5c0.1-0.2,0.3-0.3,0.7-0.3
	c0.6,0,0.8,0.1,0.8,0.5v0.4h-1.1c-0.8,0-1.3,0.5-1.3,1.1c0,0.7,0.5,1.2,1.4,1.2c0.5,0,0.8-0.1,1-0.4h0L25.9,39.5L25.9,39.5z
	 M25.9,38.1c0,0.6-0.2,0.7-0.9,0.7c-0.5,0-0.7-0.2-0.7-0.5c0-0.3,0.2-0.5,0.7-0.5h0.9C25.9,37.8,25.9,38.1,25.9,38.1z"/>
<path class="st1" d="M27.6,39.5h0.8v-2.3c0-0.6,0.4-0.8,0.8-0.8c0.2,0,0.3,0.1,0.5,0.2l0.6-0.7c-0.2-0.2-0.5-0.3-0.8-0.3
	c-0.4,0-0.8,0.2-1,0.5h0v-0.4h-0.8V39.5z"/>
<path class="st1" d="M33.4,37.8v-0.6c0-1-0.7-1.6-1.6-1.6c-0.7,0-1.6,0.5-1.6,2c0,1.6,0.9,2,1.7,2c0.5,0,1-0.2,1.4-0.6l-0.6-0.5
	c-0.2,0.2-0.5,0.4-0.8,0.4c-0.5,0-0.9-0.3-0.9-1H33.4z M31,37.2c0-0.6,0.4-0.9,0.8-0.9c0.5,0,0.8,0.3,0.8,0.9H31z"/>
<path class="st1" d="M0.5,31.4c0,0.8,0.1,1.2,0.4,1.5c0.2,0.2,0.6,0.5,1.2,0.5c0.6,0,1-0.3,1.2-0.5c0.3-0.3,0.4-0.6,0.4-1.5
	c0-0.8-0.1-1.2-0.4-1.5c-0.2-0.2-0.6-0.5-1.2-0.5c-0.6,0-1,0.3-1.2,0.5C0.6,30.3,0.5,30.6,0.5,31.4 M2.9,31.4c0,0.6,0,0.7-0.2,0.9
	c-0.1,0.2-0.4,0.3-0.6,0.3c-0.3,0-0.5-0.1-0.6-0.3c-0.1-0.2-0.2-0.4-0.2-0.9c0-0.6,0-0.7,0.2-0.9c0.1-0.2,0.4-0.3,0.6-0.3
	c0.3,0,0.5,0.1,0.6,0.3C2.8,30.7,2.9,30.8,2.9,31.4"/>
<path class="st1" d="M11.1,31.7v-0.6c0-1-0.7-1.6-1.6-1.6c-0.7,0-1.6,0.5-1.6,2c0,1.6,0.9,2,1.7,2c0.5,0,1-0.2,1.4-0.6l-0.6-0.5
	c-0.2,0.2-0.5,0.4-0.8,0.4c-0.5,0-0.9-0.3-0.9-1L11.1,31.7L11.1,31.7z M8.7,31.1c0-0.6,0.4-0.9,0.8-0.9c0.5,0,0.8,0.3,0.8,0.9H8.7z"
	/>
<path class="st1" d="M11.8,33.3h0.8V31c0-0.5,0.3-0.8,0.8-0.8c0.4,0,0.8,0.3,0.8,0.8v2.3h0.8v-2.6c0-0.9-0.7-1.3-1.3-1.3
	c-0.4,0-0.8,0.2-1,0.5h0v-0.4h-0.8V33.3z"/>
<path class="st1" d="M17,32.7c0.5,0.5,1.1,0.7,1.7,0.7c0.9,0,1.6-0.4,1.6-1.2c0-0.6-0.3-1.1-1.1-1.2l-0.6,0c-0.4,0-0.5-0.2-0.5-0.4
	c0-0.3,0.2-0.5,0.7-0.5c0.4,0,0.7,0.1,1,0.4l0.5-0.6c-0.4-0.3-0.8-0.5-1.5-0.5c-0.8,0-1.4,0.4-1.4,1.2c0,0.7,0.5,1,1.1,1.1l0.7,0.1
	c0.3,0,0.5,0.1,0.5,0.4c0,0.3-0.3,0.5-0.8,0.5c-0.5,0-0.9-0.2-1.2-0.5L17,32.7z"/>
<path class="st1" d="M20.7,31.4c0,0.8,0.1,1.2,0.4,1.5c0.2,0.2,0.6,0.5,1.2,0.5c0.6,0,1-0.3,1.2-0.5c0.3-0.3,0.4-0.6,0.4-1.5
	c0-0.8-0.1-1.2-0.4-1.5c-0.2-0.2-0.6-0.5-1.2-0.5c-0.6,0-1,0.3-1.2,0.5C20.9,30.3,20.7,30.6,20.7,31.4 M23.2,31.4
	c0,0.6,0,0.7-0.2,0.9c-0.1,0.2-0.4,0.3-0.6,0.3c-0.3,0-0.5-0.1-0.6-0.3c-0.1-0.2-0.2-0.4-0.2-0.9c0-0.6,0-0.7,0.2-0.9
	c0.1-0.2,0.4-0.3,0.6-0.3c0.3,0,0.5,0.1,0.6,0.3C23.1,30.7,23.2,30.8,23.2,31.4"/>
<path class="st1" d="M24.6,32c0,0.9,0.7,1.3,1.3,1.3c0.4,0,0.8-0.2,1-0.5h0v0.4h0.8v-3.9h-0.8v2.3c0,0.5-0.3,0.8-0.8,0.8
	c-0.4,0-0.8-0.3-0.8-0.8v-2.3h-0.8C24.6,29.5,24.6,32,24.6,32z"/>
<path class="st1" d="M28.5,33.3h0.8V31c0-0.6,0.4-0.8,0.8-0.8c0.2,0,0.3,0.1,0.5,0.2l0.6-0.7c-0.2-0.2-0.5-0.3-0.8-0.3
	c-0.4,0-0.8,0.2-1,0.5h0v-0.4h-0.8V33.3z"/>
<path class="st1" d="M33.6,32.2c-0.2,0.2-0.5,0.4-0.8,0.4c-0.6,0-1-0.4-1-1.2c0-0.8,0.4-1.2,1-1.2c0.3,0,0.6,0.2,0.8,0.4l0.6-0.5
	c-0.3-0.4-0.8-0.7-1.4-0.7c-0.9,0-1.8,0.6-1.8,2c0,1.4,0.9,2,1.8,2c0.6,0,1.1-0.3,1.4-0.7L33.6,32.2z"/>
<path class="st1" d="M37.6,31.7v-0.6c0-1-0.7-1.6-1.6-1.6c-0.7,0-1.6,0.5-1.6,2c0,1.6,0.9,2,1.7,2c0.5,0,1-0.2,1.4-0.6l-0.6-0.5
	c-0.2,0.2-0.5,0.4-0.8,0.4c-0.5,0-0.9-0.3-0.9-1L37.6,31.7L37.6,31.7z M35.2,31.1c0-0.6,0.4-0.9,0.8-0.9c0.5,0,0.8,0.3,0.8,0.9H35.2
	z"/>
<path class="st0" d="M5.9,32.6c0.7,0,0.8-0.6,0.8-1.2c0-0.6,0-1.2-0.8-1.2c-0.7,0-0.8,0.6-0.8,1.2C5.1,32,5.1,32.6,5.9,32.6
	 M4.3,39.5v-10h0.8v0.4c0.2-0.3,0.6-0.5,1-0.5c0.5,0,0.8,0.2,1,0.5c0.2,0.3,0.3,0.5,0.3,1.5c0,0.9-0.1,1.2-0.3,1.5
	c-0.2,0.3-0.6,0.5-1,0.5c-0.4,0-0.7-0.2-1-0.5l0,3.1c0.3-0.3,0.6-0.5,1-0.5c0.6,0,1.3,0.5,1.3,1.3v2.6H6.6v-2.3
	c0-0.5-0.3-0.8-0.8-0.8c-0.4,0-0.8,0.3-0.8,0.8v2.3H4.3z"/>
</svg>
