<?xml version="1.0" encoding="utf-8"?>
<!-- Generator: Adobe Illustrator 25.2.1, SVG Export Plug-In . SVG Version: 6.00 Build 0)  -->
<svg version="1.1"
	 id="svg3330" inkscape:version="0.48.0 r9654" sodipodi:docname="New document 4" xmlns:cc="http://creativecommons.org/ns#" xmlns:dc="http://purl.org/dc/elements/1.1/" xmlns:inkscape="http://www.inkscape.org/namespaces/inkscape" xmlns:rdf="http://www.w3.org/1999/02/22-rdf-syntax-ns#" xmlns:sodipodi="http://sodipodi.sourceforge.net/DTD/sodipodi-0.dtd" xmlns:svg="http://www.w3.org/2000/svg"
	 xmlns="http://www.w3.org/2000/svg" xmlns:xlink="http://www.w3.org/1999/xlink" x="0px" y="0px" viewBox="0 0 116.9 40"
	 style="enable-background:new 0 0 116.9 40;" xml:space="preserve">
<style type="text/css">
	.st0{fill:#F5EFBC;stroke:#000000;stroke-width:2.3087;stroke-linecap:round;stroke-linejoin:round;stroke-miterlimit:5.0214;}
	.st1{font-family:'Arial-BoldMT';}
	.st2{font-size:30.8402px;}
	.st3{fill:#2E439B;stroke:#000000;stroke-width:1.7957;stroke-miterlimit:5.0214;}
	.st4{fill:none;stroke:#000000;stroke-width:1.7957;stroke-linecap:round;stroke-linejoin:round;stroke-miterlimit:5.0214;}
</style>
<sodipodi:namedview  bordercolor="#666666" borderopacity="1.0" fit-margin-bottom="0" fit-margin-left="0" fit-margin-right="0" fit-margin-top="0" id="base" inkscape:current-layer="layer1" inkscape:cx="51.755214" inkscape:cy="19.316583" inkscape:document-units="px" inkscape:pageopacity="0.0" inkscape:pageshadow="2" inkscape:window-height="950" inkscape:window-maximized="1" inkscape:window-width="1680" inkscape:window-x="0" inkscape:window-y="27" inkscape:zoom="3.959798" pagecolor="#ffffff" showgrid="false">
	</sodipodi:namedview>
<g id="layer1" transform="translate(-319.64995,-513.41138)" inkscape:groupmode="layer" inkscape:label="Layer 1">
	<g id="g5424" transform="matrix(1.1204236,0,0,1.1204236,378.23897,-788.71491)">
		<path id="rect6744" inkscape:connector-curvature="0" sodipodi:nodetypes="cccccc" class="st0" d="M-49.8,1163.7H37v30.2h-86.9
			l2-15.1L-49.8,1163.7z"/>
		<text transform="matrix(0.7269 0 0 0.8925 -42.3346 1188.1014)" class="st1 st2">GFDL</text>
		<path id="path7064-6" inkscape:connector-curvature="0" class="st0" d="M22.7,1167.5v24.5h0.2c-0.1,0.2-0.2,0.5-0.2,0.7
			c0,2,6,3.7,13.3,3.7s13.3-1.7,13.3-3.7c0-0.2-0.1-0.5-0.2-0.7h0.2v-24.5H22.7z"/>
		
			<path id="path7064" sodipodi:cx="354.25" sodipodi:cy="264.98718" sodipodi:rx="13" sodipodi:ry="3.625" sodipodi:type="arc" class="st0" d="
			M49.2,1167.4c0,2-6,3.7-13.3,3.7s-13.3-1.7-13.3-3.7c0-2,6-3.7,13.3-3.7S49.2,1165.4,49.2,1167.4z"/>
		<path id="path7104" inkscape:connector-curvature="0" sodipodi:nodetypes="cccccc" class="st3" d="M48.7,1168.1
			c-2.5,5.8-10.2,7.3-22,5.9l5.9,9.9l-6.1,7.3c7.9,3.2,17.5,1.6,22.6-0.2L48.7,1168.1z"/>
		<path id="path7106" inkscape:connector-curvature="0" sodipodi:nodetypes="ccscc" class="st4" d="M37.8,1166.4
			c-3.5-0.1-8.2,0-10.7,0.8c1.2,1,6.2,1.6,10.2,1.2c3.3-0.2,6.2-0.1,8.1-1.1c-0.7-1.1-4.1-3.5-8.1-3.3"/>
	</g>
</g>
</svg>
