<?xml version="1.0" encoding="utf-8"?>
<!-- Generator: Adobe Illustrator 25.2.1, SVG Export Plug-In . SVG Version: 6.00 Build 0)  -->
<svg version="1.1"
	 id="svg884" inkscape:export-filename="/home/aryeom/Desktop/Projects/FSF-Enamel pin /GPL or later 25mm.png" inkscape:version="0.92.4 5da689c313, 2019-01-14" sodipodi:docname="GPLv3_or_later.svg" xmlns:cc="http://creativecommons.org/ns#" xmlns:dc="http://purl.org/dc/elements/1.1/" xmlns:inkscape="http://www.inkscape.org/namespaces/inkscape" xmlns:rdf="http://www.w3.org/1999/02/22-rdf-syntax-ns#" xmlns:sodipodi="http://sodipodi.sourceforge.net/DTD/sodipodi-0.dtd" xmlns:svg="http://www.w3.org/2000/svg"
	 xmlns="http://www.w3.org/2000/svg" xmlns:xlink="http://www.w3.org/1999/xlink" x="0px" y="0px" viewBox="0 0 95 40"
	 style="enable-background:new 0 0 95 40;" xml:space="preserve">
<style type="text/css">
	.st0{fill:#BD0000;stroke:#000000;stroke-width:2.9499;stroke-linecap:round;stroke-linejoin:round;}
	.st1{fill-rule:evenodd;clip-rule:evenodd;}
	.st2{fill:#FFFFFF;stroke:#000000;stroke-width:0.9792;stroke-linecap:round;stroke-linejoin:round;}
</style>
<sodipodi:namedview  bordercolor="#666666" borderopacity="1" fit-margin-bottom="0" fit-margin-left="0" fit-margin-right="0" fit-margin-top="0" gridtolerance="10" guidetolerance="10" id="namedview886" inkscape:current-layer="svg884" inkscape:cx="54.987105" inkscape:cy="15.847813" inkscape:pageopacity="0" inkscape:pageshadow="2" inkscape:snap-global="false" inkscape:window-height="761" inkscape:window-maximized="0" inkscape:window-width="1611" inkscape:window-x="378" inkscape:window-y="27" inkscape:zoom="11.313708" objecttolerance="10" pagecolor="#ffffff" showgrid="false">
	</sodipodi:namedview>
<path id="path825" inkscape:connector-curvature="0" sodipodi:nodetypes="cccccccccccccccccccccccccscccsccccccc" class="st0" d="
	M87,2L87,2c-1.6,0.1-3.8,0.6-5.8,1.4H69.8h-55h-4.4c0,0-7.7,33.5-7.7,33.5h0h35.5h14.4c1.1,0.6,2.3,1,3.8,1.1l0,0H59l0,0
	c0.8-0.1,1.6-0.2,2.5-0.3c1.5-0.3,3.1-0.7,4.7-1.3c1.2-0.5,2.5-1,3.8-1.6l0,0c2.8-1.3,5.7-3.1,8.5-5.2c0.9-0.7,1.8-1.4,2.7-2.1l0,0
	c0.8-0.7,1.5-1.3,2.3-2l0,0l0,0c2-2,3.6-3.9,4.5-5.7c0.5-0.9,0.8-1.8,0.8-2.6c0.1-0.8-0.1-1.6-0.5-2.2l0,0c-0.3-0.4-0.8-0.7-1.4-0.9
	c1.8-1.5,3.2-3,4.2-4.5c1.1-1.8,1.6-3.5,1.1-5c-0.3-1-1.1-1.7-2.2-2h0l0,0C89.5,2.1,89,2,88.4,2l0,0L87,2z"/>
<g id="g1046" transform="matrix(0.13212209,0,0,0.13212209,-0.01488392,-0.04447238)">
	<path id="path983" inkscape:connector-curvature="0" class="st1" d="M132.1,214.2l0.1,0.1C132.2,214.3,132.2,214.3,132.1,214.2
		C132.1,214.2,132.1,214.2,132.1,214.2L132.1,214.2z"/>
	<path id="path981" inkscape:connector-curvature="0" class="st1" d="M48.4,215.6C48.4,215.6,48.4,215.7,48.4,215.6
		C48.3,215.7,48.3,215.7,48.4,215.6L48.4,215.6z"/>
	<path id="path979" inkscape:connector-curvature="0" class="st1" d="M68.9,215.8c-5.5,0-10.3,1.4-14.5,4.3c-4.2,2.9-7.5,7-9.9,12.4
		c-2.4,5.4-3.6,11.2-3.6,17.6c0,6.3,1.7,11.3,5.2,14.8c3.5,3.5,8.3,5.3,14.5,5.3c5.4,0,10.2-1.4,14.3-4.1c4.1-2.7,7.4-6.8,9.8-12.2
		c2.4-5.4,3.6-11.5,3.6-18.3c0-6.2-1.7-11.1-5.1-14.6C79.8,217.6,75.1,215.8,68.9,215.8z M68,225.2c2.8,0,5.1,0.9,6.6,2.8
		c1.6,1.9,2.3,4.5,2.3,7.9c0,4.8-0.7,9.1-2,12.9c-1.4,3.8-3.2,6.8-5.6,8.9c-2.4,2.1-5,3.1-8,3.1c-2.9,0-5.2-0.9-6.8-2.7
		c-1.6-1.8-2.4-4.5-2.4-8c0-4.5,0.7-8.7,2.1-12.5c1.4-3.9,3.3-6.9,5.7-9.1C62.4,226.3,65.1,225.2,68,225.2z"/>
	<path id="path977" inkscape:connector-curvature="0" class="st1" d="M216.5,216.5l-27.7,53.1h11.6l6.2-12.6h17.1l0.9,12.6h10.7
		l-5.3-53.1H216.5z M221.8,224.4h0.2l0.1,5.6l0.2,4.8l0.9,12.7h-12l6.8-13.9C219.2,231,220.5,228,221.8,224.4z"/>
	<path id="path975" inkscape:connector-curvature="0" class="st1" d="M103.7,216.7l-11.2,52.9h11l4.3-20.3h4.3l7.5,20.3h12
		l-9.4-22.5c3.8-1.3,6.6-3.4,8.6-6.1c2-2.7,3-6,3-9.8c0-4.7-1.4-8.4-4.3-10.8c-2.9-2.5-7.2-3.7-12.9-3.7L103.7,216.7z M112.8,225.9
		h2.7c2.5,0,4.3,0.5,5.4,1.5c1.2,1,1.7,2.5,1.7,4.4c0,2.8-0.9,4.9-2.6,6.3c-1.8,1.4-4.2,2.1-7.4,2.1h-2.8L112.8,225.9z"/>
	<path id="path973" inkscape:connector-curvature="0" class="st1" d="M168,216.7h11.1l-9.3,43.6h18.5l-2,9.3h-29.5L168,216.7z"/>
	<path id="path971" inkscape:connector-curvature="0" class="st1" d="M245.5,216.7H282l-2,9.3h-12.8l-9.2,43.5h-11l9.2-43.5h-12.7
		L245.5,216.7z"/>
	<path id="path969" inkscape:connector-curvature="0" class="st1" d="M289.8,216.7h29.6l-2,9.2h-18.5l-2.4,11.6h17.3l-2,9.2h-17.2
		l-2.9,13.6h18.5l-2,9.3h-29.5L289.8,216.7z"/>
	<path id="path967" inkscape:connector-curvature="0" sodipodi:nodetypes="cccccccccscsccssscccc" class="st1" d="M330,216.7
		l-11.2,52.9h11l4.3-20.3h4.3l7.5,20.3h12l-9.4-22.5c3.8-1.3,6.6-3.4,8.6-6.1c2-2.7,3-6,3-9.8c0-4.7-1.4-8.4-4.3-10.8
		c-2.9-2.5-7.2-3.7-12.9-3.7L330,216.7z M347.2,227.3c1.2,1,1.7,2.5,1.7,4.4c0,2.8-0.9,4.9-2.6,6.3c-1.8,1.4-4.2,2.1-7.4,2.1h-2.8
		l3-14.3h2.7C344.3,225.9,346,226.3,347.2,227.3z"/>
</g>
<path id="path1088" inkscape:connector-curvature="0" sodipodi:nodetypes="cccccccccccccsccccccccccccccccccccccccccccccccccccccccccccccccccccc" class="st2" d="
	M86.8,3.1h1.3c0.4,0,0.9,0.1,1.2,0.2c0.8,0.3,1.3,0.7,1.5,1.4l0,0v0c0.4,1,0,2.4-1,4.1c-1,1.6-2.7,3.4-4.8,5l-1.2,0.9l1.5,0.1
	c0.9,0.1,1.4,0.3,1.8,0.8l0,0v0c0.3,0.4,0.4,0.8,0.3,1.4s-0.3,1.4-0.7,2.2c-0.8,1.6-2.3,3.5-4.2,5.4c-0.7,0.7-1.4,1.3-2.2,1.9l0,0
	c-0.8,0.7-1.7,1.4-2.6,2.1c-2.8,2-5.6,3.7-8.3,5l0,0h0c-1.3,0.6-2.5,1.1-3.7,1.6c-1.6,0.6-3.1,1-4.5,1.3c-0.8,0.2-1.6,0.3-2.4,0.3
	h-2.4c0,0,0,0,0,0h0.2c-2.2-0.2-3.9-1-5-2.4c-0.2-0.3-0.4-0.5-0.5-0.8c-0.1-0.2-0.2-0.4-0.3-0.7c-0.2-0.7-0.3-1.5-0.3-2.3
	c0.1-2.3,1.2-5.1,3.1-7.9c2-3.1,4.9-6.3,8.5-9.2c0.8-0.7,1.6-1.3,2.5-2c1.1-0.8,2.2-1.5,3.2-2.2c4-2.5,8-4.3,11.5-5.2
	c-3.4,1.1-7.2,3-10.9,5.5c-0.1,0.1-0.3,0.2-0.4,0.3c-2.1,1.4-4,3-5.6,4.5c-5.3,5-8.1,10.1-6.8,13.1c0.1,0.2,0.2,0.4,0.3,0.6
	c1.4,2,4.7,2.4,9,1.3c0.3-0.1,0.6-0.2,0.9-0.2c1.4-0.4,2.8-0.9,4.3-1.6c0.4-0.2,0.7-0.3,1.1-0.5c0,0,0.1,0,0.1-0.1
	c4.7-2.3,8.3-5,9.1-6.7c0.2-0.4,0.2-0.7,0.1-0.9c-0.6-1.1-4.5-0.4-9.2,1.7c-0.4,0.2-0.8,0.3-1.2,0.5c0.3-0.3,0.6-0.6,1-0.9
	c0.5-0.5,1.1-0.9,1.7-1.4c0.9-0.7,1.8-1.2,2.8-1.9c4.3-3.3,6.5-6.4,6.1-7.5c-0.1-0.2-0.3-0.4-0.6-0.5c-0.9-0.3-2.5,0.1-4.6,0.9
	c-1.7,0.7-3.5,1.7-5.5,2.9l-0.3,0.2c-0.3,0.2-0.6,0.4-1,0.6l0.5-1c0.8-1.4,2.1-2.9,3.7-4.3c1.2-1,2.5-2,4-2.8
	c0.5-0.3,1.1-0.6,1.6-0.9c0.2-0.1,0.4-0.2,0.6-0.3C82.4,3.9,85.1,3.3,86.8,3.1L86.8,3.1z"/>
<path id="path1086" inkscape:connector-curvature="0" sodipodi:nodetypes="ccccscccc" class="st2" d="M49.7,3.5
	c-0.2,3.3,0.4,8.1,1.9,13.5c0.3,1,0.5,1.9,0.8,2.9c0.2,0.6,0.4,1.2,0.4,1.2s-0.3,0.5-0.5,0.6c-1.8,2.8-2.9,5.3-3.2,7.6
	c-0.8-2.6-1.1-4.8-1.4-7.8c-0.1-0.9-0.2-1.7-0.2-2.5C47.3,13,48.1,7.5,49.7,3.5z"/>
<path id="path1084" inkscape:connector-curvature="0" sodipodi:nodetypes="cccccccccccccccccccccccsccc" class="st2" d="M13.6,7.8
	c2.7,0,5.5,0,8.3,0c0.7,0,1.2,0.1,1.6,0.4c0.4,0.3,0.5,0.6,0.4,1c0,0-1,4.4-1,4.4H20L21,9.3h-7.2l-3.5,16h7.2l0,0l1.4-6.5h-3.4
	l0.3-1.5h6.3c0,0-1.8,8.1-1.8,8.1c0,0.1-0.1,0.2-0.1,0.3c-0.1,0.3-0.4,0.5-0.8,0.7c-0.5,0.3-1.1,0.4-1.8,0.4c0,0-8.1,0-8.1,0
	c-0.7,0-1.2-0.1-1.6-0.4c-0.4-0.3-0.5-0.6-0.4-1L11,9.2c0.1-0.3,0.3-0.6,0.6-0.9c0.1-0.1,0.2-0.1,0.2-0.1
	C12.4,7.9,12.8,7.8,13.6,7.8L13.6,7.8z"/>
<path id="path1082" inkscape:connector-curvature="0" sodipodi:nodetypes="cccccccccccccccc" class="st2" d="M26.3,7.8l-4.2,19.1
	h2.8c0,0,1.1-5,1.7-7.6h7.5c0.7,0,1.3-0.1,1.8-0.4c0.5-0.3,0.8-0.6,0.9-1c0,0,1.9-8.7,1.9-8.7c0.1-0.4-0.1-0.8-0.4-1
	c-0.4-0.3-0.9-0.4-1.6-0.4H26.3z M28.8,9.3h7L34,17.7h-7L28.8,9.3z"/>
<path id="path1080" inkscape:connector-curvature="0" sodipodi:nodetypes="ccccccsc" class="st2" d="M40.5,7.8c0.2,0,2.8,0,2.8,0
	c-1.3,5.8-2.6,11.7-3.9,17.5h6.7c0.1,0.5,0.2,1,0.2,1.5c0,0-10.1,0-10.1,0c1.4-6.3,2.8-12.5,4.2-18.8C40.5,7.9,40.5,7.9,40.5,7.8z"
	/>
</svg>
